<svg width="24" height="24" viewBox="0 0 24 24" fill="none" xmlns="http://www.w3.org/2000/svg">
<path d="M19.1392 6.60061H19.1992C19.6655 6.60073 20.1253 6.70953 20.5422 6.91838C20.959 7.12722 21.3215 7.43036 21.6008 7.80374C21.88 8.17712 22.0684 8.61045 22.151 9.06935C22.2336 9.52825 22.2081 10.0001 22.0764 10.4474C21.9448 10.8947 21.7108 11.3052 21.3928 11.6462C21.0749 11.9873 20.6819 12.2495 20.2449 12.4122C19.8079 12.5748 19.339 12.6334 18.8755 12.5832C18.4119 12.533 17.9664 12.3754 17.5744 12.123L18.1132 14.3478C18.1666 14.5684 18.1692 14.7983 18.1208 15.0201C18.0725 15.2419 17.9744 15.4498 17.8341 15.6282C17.6937 15.8066 17.5146 15.9508 17.3104 16.05C17.1062 16.1491 16.8822 16.2006 16.6552 16.2006H15.7396C15.5126 16.2005 15.2885 16.1488 15.0844 16.0495C14.8802 15.9502 14.7012 15.8059 14.561 15.6274C14.4207 15.4489 14.3228 15.2408 14.2746 15.019C14.2264 14.7971 14.2292 14.5672 14.2828 14.3466L14.8228 12.123C14.3166 12.4488 13.7242 12.6148 13.1224 12.5994C12.9904 12.091 12.6953 11.64 12.2824 11.3154C12.4922 10.768 12.6 10.1868 12.6004 9.60061C12.6004 8.61901 12.3052 7.70701 11.8 6.94621C12.2497 6.70915 12.7522 6.59023 13.2604 6.60061C13.1796 6.20469 13.1796 5.79653 13.2604 5.40061C13.4195 4.62088 13.8819 3.93629 14.5458 3.49745C15.2096 3.05862 16.0207 2.90148 16.8004 3.06061C17.5801 3.21974 18.2647 3.6821 18.7036 4.34598C19.1424 5.00986 19.2983 5.82088 19.1392 6.60061ZM7.80039 6.00061C7.10544 6.00063 6.42536 6.20179 5.84222 6.57981C5.25908 6.95783 4.79782 7.49656 4.51412 8.13096C4.23042 8.76535 4.1364 9.46831 4.24341 10.155C4.35042 10.8416 4.65389 11.4826 5.11719 12.0006H4.80039C4.48213 12.0006 4.17691 12.127 3.95186 12.3521C3.72682 12.5771 3.60039 12.8824 3.60039 13.2006C3.60039 13.5189 3.72682 13.8241 3.95186 14.0491C4.17691 14.2742 4.48213 14.4006 4.80039 14.4006H5.42439C4.97799 16.5582 3.80079 17.8038 3.14439 18.3522C2.72919 18.7002 2.40039 19.2354 2.40039 19.8594C2.40039 20.8206 3.18039 21.6006 4.14159 21.6006H11.4604C12.4204 21.6006 13.2004 20.8206 13.2004 19.8594C13.2004 19.2354 12.8716 18.7002 12.4564 18.3522C11.8 17.8038 10.6228 16.5582 10.1764 14.4006H10.8004C11.1187 14.4006 11.4239 14.2742 11.6489 14.0491C11.874 13.8241 12.0004 13.5189 12.0004 13.2006C12.0004 12.8824 11.874 12.5771 11.6489 12.3521C11.4239 12.127 11.1187 12.0006 10.8004 12.0006H10.4836C10.9469 11.4826 11.2504 10.8416 11.3574 10.155C11.4644 9.46831 11.3704 8.76535 11.0867 8.13096C10.803 7.49656 10.3417 6.95783 9.75856 6.57981C9.17542 6.20179 8.49534 6.00063 7.80039 6.00061Z" fill="#AE6F28"/>
</svg>
