<svg width="24" height="24" viewBox="0 0 24 24" fill="none" xmlns="http://www.w3.org/2000/svg">
<path d="M4 21C3.45 21 2.97933 20.8043 2.588 20.413C2.19667 20.0217 2.00067 19.5507 2 19V7C2 6.45 2.196 5.97933 2.588 5.588C2.98 5.19667 3.45067 5.00067 4 5H7.15L8.4 3.65C8.58333 3.45 8.80433 3.29167 9.063 3.175C9.32167 3.05833 9.59233 3 9.875 3H14.125C14.4083 3 14.6793 3.05833 14.938 3.175C15.1967 3.29167 15.4173 3.45 15.6 3.65L16.85 5H20C20.55 5 21.021 5.196 21.413 5.588C21.805 5.98 22.0007 6.45067 22 7V19C22 19.55 21.8043 20.021 21.413 20.413C21.0217 20.805 20.5507 21.0007 20 21H13V17.9C14.3 17.7 15.4043 17.1333 16.313 16.2C17.2217 15.2667 17.7673 14.1583 17.95 12.875C17.9833 12.6417 17.904 12.4377 17.712 12.263C17.52 12.0883 17.2827 12.0007 17 12C16.75 12 16.521 12.071 16.313 12.213C16.105 12.355 15.9757 12.5423 15.925 12.775C15.7417 13.6917 15.2833 14.4583 14.55 15.075C13.8167 15.6917 12.9667 16 12 16C11.0333 16 10.1877 15.6957 9.463 15.087C8.73833 14.4783 8.284 13.7247 8.1 12.826C8.05 12.576 7.921 12.376 7.713 12.226C7.505 12.076 7.26733 12.0007 7 12C6.71667 12 6.479 12.0877 6.287 12.263C6.095 12.4383 6.016 12.6423 6.05 12.875C6.23333 14.1583 6.77933 15.2667 7.688 16.2C8.59667 17.1333 9.70067 17.7 11 17.9V21H4ZM12 14C12.55 14 13.021 13.8043 13.413 13.413C13.805 13.0217 14.0007 12.5507 14 12V8C14 7.45 13.8043 6.97933 13.413 6.588C13.0217 6.19667 12.5507 6.00067 12 6C11.4493 5.99933 10.9787 6.19533 10.588 6.588C10.1973 6.98067 10.0013 7.45133 10 8V12C10 12.55 10.196 13.021 10.588 13.413C10.98 13.805 11.4507 14.0007 12 14Z" fill="#AE6F28"/>
</svg>
