<svg width="26" height="26" viewBox="0 0 26 26" fill="none" xmlns="http://www.w3.org/2000/svg">
<rect width="26" height="26" rx="13" fill="#EEEEEE"/>
<path d="M13.6214 5.53397C13.4302 5.51154 13.2359 5.5 13.039 5.5C10.2806 5.5 8.03896 7.74167 8.03896 10.5V12.9083C8.03896 13.4167 7.82229 14.1917 7.56396 14.625L6.60562 16.2167C6.01396 17.2 6.42229 18.2917 7.50562 18.6583C11.0973 19.8583 14.9723 19.8583 18.564 18.6583C19.5723 18.325 20.014 17.1333 19.464 16.2167L18.5056 14.625C18.343 14.3431 18.1945 13.9167 18.1105 13.5131" stroke="#827E7B" stroke-miterlimit="10" stroke-linecap="round"/>
<path d="M17.166 11.334C18.5467 11.334 19.666 10.2147 19.666 8.83398C19.666 7.45327 18.5467 6.33398 17.166 6.33398C15.7853 6.33398 14.666 7.45327 14.666 8.83398C14.666 10.2147 15.7853 11.334 17.166 11.334Z" fill="#FDA901"/>
<path d="M15.5176 18.8828C15.5176 20.2578 14.3926 21.3828 13.0176 21.3828C12.3342 21.3828 11.7009 21.0995 11.2509 20.6495C10.8009 20.1995 10.5176 19.5661 10.5176 18.8828" stroke="#827E7B" stroke-width="1.5" stroke-miterlimit="10"/>
</svg>
