<svg width="24" height="24" viewBox="0 0 24 24" fill="none" xmlns="http://www.w3.org/2000/svg">
<path d="M18.9998 20.9992L20.6948 16.3367C20.7787 16.1061 20.7749 15.8529 20.6841 15.625C20.5934 15.3971 20.4221 15.2105 20.2028 15.1007L12.4468 11.2227C12.308 11.1533 12.155 11.1172 11.9998 11.1172C11.8446 11.1172 11.6916 11.1533 11.5528 11.2227L3.79681 15.1007C3.5774 15.2104 3.40598 15.397 3.31517 15.6249C3.22436 15.8528 3.2205 16.1061 3.30431 16.3367L4.99981 20.9992" stroke="#AE6F28" stroke-width="2" stroke-linejoin="round"/>
<path d="M17.5 7H6.5C6.23478 7 5.98043 7.10536 5.79289 7.29289C5.60536 7.48043 5.5 7.73478 5.5 8V14L11.581 11.1935C11.7124 11.1329 11.8553 11.1015 12 11.1015C12.1447 11.1015 12.2876 11.1329 12.419 11.1935L18.5 14V8C18.5 7.73478 18.3946 7.48043 18.2071 7.29289C18.0196 7.10536 17.7652 7 17.5 7Z" fill="#AE6F28" stroke="#AE6F28" stroke-width="2" stroke-linecap="round" stroke-linejoin="round"/>
<path d="M14.5 7V3C14.5 2.73478 14.3946 2.48043 14.2071 2.29289C14.0196 2.10536 13.7652 2 13.5 2H10.5C10.2348 2 9.98043 2.10536 9.79289 2.29289C9.60536 2.48043 9.5 2.73478 9.5 3V7" stroke="#AE6F28" stroke-width="2" stroke-linecap="round" stroke-linejoin="round"/>
<path d="M12 16V20" stroke="#AE6F28" stroke-width="2" stroke-linecap="round"/>
<path d="M2 22C4 22 4 21 5.5 21C7 21 7 22 8.5 22C10 22 10.25 21 12 21C13.75 21 14 22 15.5 22C17 22 17 21 18.5 21C20 21 20 22 22 22" stroke="#AE6F28" stroke-width="2" stroke-linecap="round" stroke-linejoin="round"/>
</svg>
