<svg width="24" height="24" viewBox="0 0 24 24" fill="none" xmlns="http://www.w3.org/2000/svg">
<g clip-path="url(#clip0_16835_10782)">
<path d="M12.2496 4.77905L15.9196 2.67905C15.9997 2.63552 16.0658 2.57009 16.11 2.4904C16.1543 2.41071 16.175 2.32005 16.1696 2.22905C16.1651 2.13902 16.1368 2.0518 16.0876 1.97627C16.0384 1.90074 15.9701 1.83959 15.8896 1.79905L12.2196 0.0490486C12.1433 0.0116605 12.0587 -0.00566422 11.9739 -0.00129014C11.889 0.00308393 11.8067 0.0290125 11.7346 0.0740478C11.6625 0.119083 11.6032 0.181739 11.562 0.256101C11.5209 0.330463 11.4994 0.414076 11.4996 0.499049V4.34905C11.5001 4.43656 11.5236 4.5224 11.5677 4.59799C11.6118 4.67359 11.675 4.73628 11.7509 4.77981C11.8268 4.82333 11.9128 4.84617 12.0003 4.84604C12.0879 4.84591 12.1738 4.82281 12.2496 4.77905ZM6.2496 10.499H17.7496C17.8006 10.4978 17.8503 10.4821 17.8928 10.4538C17.9352 10.4255 17.9688 10.3857 17.9896 10.339C18.0083 10.2909 18.0116 10.2381 17.9991 10.1879C17.9866 10.1378 17.9588 10.0928 17.9196 10.059L12.3196 5.32905C12.2306 5.25233 12.1171 5.21013 11.9996 5.21013C11.8821 5.21013 11.7686 5.25233 11.6796 5.32905L6.0796 10.059C6.04042 10.0928 6.01265 10.1378 6.00011 10.1879C5.98758 10.2381 5.99089 10.2909 6.0096 10.339C6.03038 10.3857 6.06396 10.4255 6.10644 10.4538C6.14892 10.4821 6.19856 10.4978 6.2496 10.499ZM22.8496 22.479C21.5596 20.359 19.3996 15.979 19.0496 12.229C19.0446 12.1663 19.016 12.1077 18.9697 12.0651C18.9233 12.0224 18.8626 11.9988 18.7996 11.999H5.1996C5.13662 11.9988 5.07588 12.0224 5.02953 12.0651C4.98319 12.1077 4.95464 12.1663 4.9496 12.229C4.5996 15.999 2.4396 20.359 1.1496 22.479C1.06183 22.6311 1.01562 22.8035 1.01562 22.979C1.01563 23.1546 1.06183 23.327 1.1496 23.479C1.23346 23.6325 1.35607 23.7612 1.50522 23.8525C1.65436 23.9437 1.82482 23.9942 1.9996 23.999H7.1996C7.29056 23.9983 7.37961 23.9728 7.45714 23.9252C7.53467 23.8776 7.59776 23.8098 7.6396 23.729L11.5596 16.329C11.6024 16.2497 11.666 16.1834 11.7434 16.1371C11.8209 16.0909 11.9094 16.0665 11.9996 16.0665C12.0898 16.0665 12.1783 16.0909 12.2558 16.1371C12.3332 16.1834 12.3968 16.2497 12.4396 16.329L16.3596 23.729C16.4014 23.8098 16.4645 23.8776 16.5421 23.9252C16.6196 23.9728 16.7086 23.9983 16.7996 23.999H21.9996C22.1768 23.9987 22.3507 23.9514 22.5036 23.8617C22.6565 23.7721 22.7828 23.6435 22.8696 23.489C22.9562 23.3341 23 23.1588 22.9965 22.9813C22.993 22.8038 22.9423 22.6305 22.8496 22.479Z" fill="#AE6F28"/>
</g>
<defs>
<clipPath id="clip0_16835_10782">
<rect width="24" height="24" fill="white"/>
</clipPath>
</defs>
</svg>
