<svg width="23" height="23" viewBox="0 0 23 23" fill="none" xmlns="http://www.w3.org/2000/svg">
<path d="M21.0837 11.4993C21.0837 6.20662 16.793 1.91602 11.5003 1.91602C6.20759 1.91602 1.91699 6.20662 1.91699 11.4993C1.91699 16.792 6.20759 21.0827 11.5003 21.0827C16.793 21.0827 21.0837 16.792 21.0837 11.4993Z" stroke="#766F6A" stroke-width="1.4375"/>
<path d="M11.8844 7.95286L14.6826 7.02011C15.5319 6.73701 15.9566 6.59545 16.1808 6.81962C16.4049 7.04378 16.2634 7.46844 15.9802 8.31775L15.0474 11.116C14.565 12.5633 14.3238 13.2869 13.8049 13.8058C13.2859 14.3248 12.5623 14.566 11.115 15.0484L8.31677 15.9811C7.46746 16.2643 7.0428 16.4059 6.81864 16.1817C6.59448 15.9576 6.73603 15.5328 7.01913 14.6836L7.95189 11.8853C8.43431 10.4381 8.67553 9.71442 9.19447 9.19545C9.71344 8.6765 10.4371 8.43529 11.8844 7.95286Z" stroke="#766F6A" stroke-width="1.4375" stroke-linecap="round" stroke-linejoin="round"/>
<path d="M11.4996 11.5L11.4932 11.5064" stroke="#766F6A" stroke-width="1.91667" stroke-linecap="round" stroke-linejoin="round"/>
</svg>
