<svg width="24" height="24" viewBox="0 0 24 24" fill="none" xmlns="http://www.w3.org/2000/svg">
<path d="M5.5 7.50001L2.5 8.00001C3.315 4.24301 5.682 3.00351 8 3.00001C9.4985 2.99751 10.976 3.51301 12 4.00001C13.024 3.51301 14.5 3.00001 16 3.00001C18.3055 3.00001 20.685 4.24301 21.5 8.00001L18.5 7.50001C18.7795 8.55001 19.394 10.396 18.5 12C17.01 10.6635 13.565 8.64551 12 7.50001C10.435 8.64551 6.99 10.6635 5.5 12C4.606 10.3965 5.2205 8.55001 5.5 7.50001Z" fill="#AE6F28" stroke="#AE6F28" stroke-width="2" stroke-linecap="round" stroke-linejoin="round"/>
<path d="M12.127 6.97723C11.8395 9.02722 10.8917 11.0002 11.8726 15.0083" stroke="#AE6F28" stroke-width="2" stroke-linecap="round" stroke-linejoin="round"/>
<path d="M6 21H18C15.6065 18.7075 14.5 18.0025 12 18C9.5 17.9975 6.946 19.691 6 21Z" fill="#AE6F28" stroke="#AE6F28" stroke-width="2" stroke-linecap="round" stroke-linejoin="round"/>
</svg>
