<svg width="375" height="268" viewBox="0 0 375 268" fill="none" xmlns="http://www.w3.org/2000/svg">
<g clip-path="url(#clip0_16675_12180)">
<circle cx="81.5" cy="168.5" r="128.5" fill="#F2C86C"/>
<circle cx="341.5" cy="139.5" r="128.5" fill="#F2C86C"/>
<ellipse cx="228" cy="170" rx="209" ry="170" fill="#F2C86C"/>
<path d="M206.905 197.018C251.186 236.925 292.215 280.621 295.439 302.982C299.929 333.864 280.892 342.431 272.388 342.494C249.21 342.727 207.103 248.805 192.466 212.948C178.232 178.106 197.18 188.253 206.905 197.018Z" fill="#F9CCB5"/>
<path d="M273.708 260.91L224.48 287.67C224.48 287.67 193.867 231.096 186.818 204.919C179.768 178.743 190.293 179.47 213.461 199.855C236.63 220.239 273.708 260.91 273.708 260.91Z" fill="#C7C7C7"/>
<path d="M273.708 260.91L224.48 287.67C224.48 287.67 193.867 231.096 186.818 204.919C179.768 178.743 190.293 179.47 213.461 199.855C236.63 220.239 273.708 260.91 273.708 260.91Z" fill="#AE6F28"/>
<path opacity="0.1" d="M186.844 204.884C193.894 231.106 224.506 287.653 224.506 287.653L269.334 263.272L186.781 185.676C184.024 187.786 183.908 194.018 186.844 204.884Z" fill="black"/>
<path d="M263.605 253.339C244.622 266.181 226.222 274.523 222.54 276.687C222.36 276.786 222.217 276.49 222.405 276.4C226.123 274.505 246.328 261.933 263.453 253.052C263.65 252.917 263.83 253.214 263.605 253.339Z" fill="#6D3F0B"/>
<path d="M235.606 361.485L91.4141 361.889C91.4141 361.889 103.986 253.41 156.968 189.338C169.226 174.503 188.955 182.567 197.27 190.434C218.355 210.432 235.992 360.955 235.606 361.485Z" fill="#AE6F28"/>
<path d="M186.88 183.799C180.719 188.289 174.802 193.084 168.803 197.727C165.714 200.115 162.697 202.657 159.464 204.839C156.878 206.581 153.905 208.036 150.717 207.856C148.61 207.702 146.603 206.892 144.979 205.539L145.311 205.027C145.979 205.57 146.712 206.025 147.493 206.383C150.681 207.838 154.139 207.12 157.111 205.485C160.389 203.689 163.28 201.13 166.226 198.849C169.447 196.341 172.673 193.835 175.906 191.333C179.238 188.756 182.551 185.945 186.018 183.439C186.314 183.556 186.601 183.682 186.88 183.799ZM165.543 258.081C168.731 253.519 170.285 247.395 168.291 242.043C166.495 237.257 162.212 234.105 157.345 232.937C152.281 231.753 146.963 232.389 142.321 234.733C136.251 237.822 131.841 243.273 126.39 247.224C124.854 248.344 123.197 249.29 121.451 250.044C121.29 250.421 121.137 250.798 120.985 251.167C126.857 248.94 131.222 244.27 135.918 240.274C138.371 238.039 141.159 236.203 144.18 234.832C146.747 233.79 149.491 233.25 152.262 233.243C157.533 233.189 163.164 235.155 166.181 239.717C169.593 244.881 168.588 251.571 165.48 256.617C157.587 269.396 140.13 268.588 127.082 268.83C122.6 268.852 118.128 269.269 113.72 270.078C113.594 270.42 113.468 270.761 113.352 271.102C118.366 270.179 123.456 269.728 128.555 269.755C141.234 269.585 157.363 269.782 165.543 258.081ZM168.731 225.753C180.083 227.041 191.532 224.377 201.149 218.21C203.715 216.576 206.12 214.703 208.333 212.615L208.01 211.717C205.685 213.944 203.136 215.924 200.404 217.626C190.447 223.926 178.536 226.382 166.899 224.532C157.309 222.898 148.715 217.007 139.411 214.403L138.873 215.301C142.905 216.553 146.838 218.108 150.636 219.952C156.465 222.529 162.355 224.99 168.731 225.762V225.753ZM158.036 313.236C161.908 309.383 164.229 304.241 164.555 298.788C164.834 293.795 163.253 288.523 159.284 285.264C154.731 281.555 148.508 281.384 143.12 283.126C136.906 285.138 132.084 289.412 127.854 294.289C123.256 299.578 119.242 305.594 113.648 309.923C109.858 312.859 105.063 315.311 100.178 315.58C100.106 315.859 100.034 316.155 99.9713 316.478C102.466 316.331 104.918 315.757 107.218 314.781C113.352 312.204 117.994 307.597 122.197 302.559C126.624 297.288 130.755 291.37 136.52 287.428C141.558 283.989 148.284 281.735 154.327 283.647C159.949 285.443 163.208 290.634 163.586 296.354C163.752 299.185 163.342 302.019 162.381 304.687C161.419 307.354 159.926 309.798 157.991 311.871C153.501 316.757 147.431 319.792 141.297 322.055C134.157 324.609 126.866 326.723 119.467 328.386C111.6 330.227 102.136 331.834 95.5352 336.863C95.4364 337.348 95.3466 337.815 95.2568 338.291C101.857 332.759 111.978 331.107 120.158 329.185C127.54 327.541 134.81 325.432 141.926 322.872C147.799 320.645 153.591 317.753 158.036 313.245V313.236ZM148.778 337.087C142.438 336.665 137.023 340.679 133.44 345.519C129.713 350.593 127.513 356.565 124.065 361.791H125.106C126.507 359.591 127.72 357.247 128.896 354.993C131.94 349.085 135.29 342.475 141.549 339.422C144.503 337.891 147.919 337.507 151.139 338.344C152.578 338.814 153.897 339.59 155.005 340.62C156.114 341.649 156.986 342.908 157.56 344.307C159.967 349.776 159.051 355.873 159.356 361.666H160.254C159.985 356.933 160.47 352.156 159.437 347.468C158.269 342.071 154.651 337.491 148.778 337.096V337.087ZM214.152 357.894C211.997 352.03 211.979 345.654 212.275 339.503C212.994 324.066 216.029 308.477 213.604 293.058C211.754 281.241 206.672 269.252 196.659 262.104C191.576 258.512 184.599 256.142 178.807 259.59C173.895 262.49 171.326 268.354 171.255 273.904C171.183 281.088 174.523 287.787 178.034 293.849C181.546 299.91 185.488 305.523 188.999 311.494C192.51 317.466 195.483 323.635 196.794 330.352C197.988 336.627 197.782 343.087 196.192 349.273C195.118 353.618 193.398 357.777 191.091 361.612H192.142C192.618 360.812 193.04 359.986 193.48 359.169C196.308 353.66 197.972 347.629 198.369 341.449C198.766 335.27 197.887 329.075 195.788 323.249C191.047 310.192 181.519 299.721 175.637 287.248C172.629 280.881 170.68 273.293 173.841 266.594C175.056 263.816 177.139 261.507 179.777 260.012C181.35 259.252 183.061 258.818 184.806 258.736C186.552 258.654 188.295 258.926 189.933 259.536C196.147 261.565 201.32 266.576 204.885 271.91C208.284 277.174 210.674 283.023 211.934 289.161C215.239 304.149 212.634 319.558 211.566 334.636C211.099 341.146 210.668 347.8 212.087 354.239C212.6 356.795 213.509 359.255 214.781 361.531H215.93C215.207 360.387 214.611 359.167 214.152 357.894ZM198.509 246.695C201.517 252.81 207.624 256.124 213.685 258.611C215.93 259.509 218.175 260.407 220.42 261.305C220.366 260.991 220.294 260.685 220.24 260.407C216.72 258.916 213.128 257.578 209.698 255.854C203.843 252.918 197.799 247.62 197.88 240.498C197.961 233.961 203.978 229.327 209.931 228.142C210.883 227.956 211.846 227.839 212.814 227.792C212.742 227.531 212.67 227.271 212.607 227.01C208.531 227.166 204.625 228.68 201.508 231.312C199.34 233.157 197.863 235.684 197.318 238.479C196.773 241.273 197.193 244.17 198.509 246.695Z" fill="#DEA564"/>
<path d="M146.821 194.179C104.839 226.408 61.0617 281.123 60.4061 312.715C59.7596 343.911 77.2795 340.804 80.234 339.888C111.43 330.172 149.03 243.641 162.94 208.394C176.724 173.408 157.202 186.205 146.821 194.179Z" fill="#F9CCB5"/>
<path d="M79.3721 257.049L128.116 284.69C128.116 284.69 159.734 228.708 167.25 202.63C174.767 176.553 164.224 177.118 140.696 197.09C117.169 217.061 79.3721 257.049 79.3721 257.049Z" fill="#AE6F28"/>
<path d="M89.618 249.694C108.368 262.868 126.616 271.542 130.261 273.734C130.432 273.841 130.585 273.545 130.405 273.455C126.714 271.489 106.734 258.557 89.7706 249.38C89.618 249.236 89.4563 249.559 89.618 249.694Z" fill="#6D3F0B"/>
<path d="M124.981 282.786C125.984 283.167 126.964 283.605 127.918 284.097C132.605 274.785 131.752 276.913 136.521 267.646C138.867 263.102 141.205 258.558 143.534 254.014C145.959 249.29 148.132 244.36 150.808 239.772C150.822 239.743 150.847 239.721 150.877 239.711C150.908 239.701 150.941 239.703 150.969 239.718C150.998 239.732 151.02 239.757 151.03 239.787C151.04 239.818 151.038 239.851 151.023 239.879C149.47 244.369 147.368 248.698 145.375 253.017C145.815 252.344 146.273 251.661 146.713 251.015C147.791 249.569 148.841 248.123 149.802 246.596C149.946 246.354 150.341 246.552 150.188 246.785C149.29 248.24 148.473 249.739 147.674 251.275C146.875 252.811 145.986 254.256 145.079 255.765C144.172 257.274 143.283 258.522 142.268 259.869L141.918 260.363C140.642 263.057 139.403 265.751 138.065 268.445C133.378 277.811 128.546 285.175 128.385 285.13C127.157 284.539 125.978 283.855 124.856 283.082C124.712 282.956 124.847 282.777 124.981 282.786Z" fill="#6D3F0B"/>
<path d="M270.241 341.379C255.792 339.26 247.611 312.409 231.564 269.674C228.753 262.166 266.065 219.224 271.13 226.13C277.515 234.831 294.424 283.09 296.112 296.174C299.435 322.063 287.114 343.839 270.241 341.379Z" fill="#F9CCB5"/>
<path d="M284.484 257.12C282.463 242.446 278.324 221.981 273.079 217.697C267.575 213.207 247.594 198.157 241.82 196.145C236.046 194.134 210.327 184.355 205.604 187.094C201.823 189.276 206.295 199.226 218.544 204.003C229.32 208.188 234.842 212.085 237.914 213.432C240.985 214.779 248.636 224.989 246.579 229.479C245.358 232.128 237.653 235.235 232.858 233.071C228.063 230.907 226.877 221.397 221.399 216.907C215.922 212.417 206.259 212.974 205.702 215.578C205.146 218.182 208.333 219.413 213.272 228.276C216.451 233.978 216.667 247.664 223.878 257.479C227.47 262.409 233.81 275.529 233.81 275.529L284.484 257.12Z" fill="#F9CCB5"/>
<path d="M216.29 212.866C214.519 212.608 212.857 211.854 211.495 210.693C211.068 210.291 210.743 209.793 210.547 209.24C210.352 208.686 210.292 208.095 210.372 207.514C210.383 207.077 210.552 206.658 210.848 206.337C210.938 206.274 210.795 206.149 210.75 206.248C210.616 206.452 210.469 206.647 210.31 206.831C210.194 207.004 210.1 207.191 210.031 207.388C209.882 207.768 209.812 208.174 209.825 208.582C209.855 209.478 210.191 210.337 210.777 211.016C212.142 212.65 214.252 213.081 216.281 213.009C216.291 213.01 216.3 213.009 216.309 213.006C216.318 213.003 216.326 212.998 216.333 212.992C216.341 212.985 216.346 212.978 216.35 212.969C216.355 212.961 216.357 212.952 216.358 212.942C216.358 212.933 216.357 212.923 216.354 212.914C216.351 212.905 216.346 212.897 216.34 212.89C216.334 212.883 216.326 212.877 216.317 212.873C216.309 212.869 216.3 212.866 216.29 212.866Z" fill="#6D3F0B"/>
<path d="M273.114 217.697C268.454 210.369 256.528 197.168 244.711 192.625C236.727 189.553 209.231 202.925 210.03 208.178C210.829 213.431 215.526 213.458 222.476 212.668C225.008 212.372 238.407 207.567 240.687 210.378C243.965 214.419 248.132 228.23 248.132 228.23L273.114 217.697Z" fill="#F9CCB5"/>
<path d="M210.713 206.132C214.116 200.511 221.579 197.511 229.005 195.15C229.122 195.105 229.185 195.284 229.077 195.32C227.182 195.922 215.077 201.49 210.794 206.222C210.749 206.276 210.677 206.186 210.713 206.132Z" fill="#6D3F0B"/>
<path d="M273.115 217.698C268.454 210.37 256.529 197.17 244.711 192.626C236.728 189.555 214.969 206.67 215.769 211.924C216.568 217.177 223.312 217.608 230.774 215.013C233.181 214.178 241.263 208.493 243.544 211.304C246.821 215.345 254.823 225.385 254.823 225.385L273.115 217.698Z" fill="#F9CCB5"/>
<path d="M250.207 219.17C249.461 218.011 249.21 217.607 248.411 216.476C247.611 215.344 246.857 214.204 246.013 213.126C245.349 212.126 244.516 211.248 243.552 210.531C242.553 209.963 241.397 209.733 240.257 209.876C237.671 210.118 235.327 211.752 233.136 213.01C230.684 214.419 225.61 216.691 221.713 216.278C220.645 216.215 219.603 215.931 218.651 215.443C217.922 215.116 217.289 214.61 216.81 213.97C215.122 211.115 217.232 207.846 219.396 205.538C223.41 201.228 228.816 198.103 234.052 195.535C235.345 194.906 236.647 194.313 237.949 193.739C239.407 192.961 241.014 192.502 242.663 192.392C245.357 192.392 249.794 195.086 251.167 195.984C251.275 196.046 251.347 195.876 251.248 195.813C249.587 194.78 245.474 191.404 241.11 191.619C239.52 191.858 237.985 192.375 236.575 193.146C235.054 193.798 233.558 194.499 232.085 195.247C229.187 196.662 226.407 198.304 223.77 200.159C221.282 201.955 218.642 203.994 216.963 206.58C215.508 208.816 215.068 211.968 216.487 214.357C217.672 216.341 220.213 216.817 221.381 216.97C222.522 217.127 223.679 217.127 224.82 216.97C227.362 216.426 229.862 215.699 232.301 214.797C234.662 213.899 236.79 212.264 239.233 211.528C239.807 211.329 240.415 211.248 241.021 211.288C241.627 211.328 242.219 211.489 242.762 211.761C243.753 212.43 244.639 213.241 245.393 214.168C247.017 215.771 248.49 217.521 249.794 219.394C250.162 219.816 250.521 219.646 250.207 219.17Z" fill="#6D3F0B"/>
<path d="M276.572 224.09C274.857 220.606 271.984 206.256 269.218 201.847C266.452 197.438 253.808 182.217 247.899 182.872C240.473 183.689 248.196 197.078 252.084 202.628C255.972 208.178 255.308 217.499 255.308 217.499L276.572 224.09Z" fill="#F9CCB5"/>
<path d="M246.669 193.442C248.028 195.227 249.295 197.079 250.467 198.992C251.709 200.73 252.819 202.558 253.79 204.461C254.603 206.406 255.088 208.472 255.227 210.576C255.325 211.609 255.361 212.633 255.361 213.674C255.361 214.716 255.272 215.946 255.298 217.078C255.298 217.194 255.11 217.212 255.11 217.078C254.974 215.009 254.707 212.952 254.311 210.917C253.939 208.806 253.315 206.747 252.452 204.784C250.719 200.896 248.177 197.429 246.417 193.559C246.345 193.415 246.57 193.317 246.669 193.442Z" fill="#6D3F0B"/>
<path d="M255.209 219.027C255.389 224.344 252.973 229.426 250.387 233.943C248.591 236.969 246.139 239.511 244.334 242.519C241.629 246.999 240.003 252.047 239.584 257.264C239.589 250.132 242.082 243.224 246.633 237.733C248.813 235.029 250.667 232.079 252.156 228.941C253.629 225.816 255.012 222.53 255.191 219.063L255.209 219.027Z" fill="#6D3F0B"/>
<path d="M202.209 198.525C202.001 200.811 201.677 203.086 201.239 205.34C200.898 207.384 200.369 209.393 199.658 211.339C198.275 214.841 195.626 218.074 191.576 219.017C189.68 219.378 187.73 219.357 185.842 218.952C183.955 218.548 182.167 217.77 180.585 216.664C177.208 214.437 174.568 211.276 172.152 208.205C170.653 206.301 169.234 204.353 167.923 202.332C167.258 201.317 166.585 200.294 165.965 199.243C165.346 198.192 164.789 197.124 164.115 196.118C164.061 196.037 163.882 196.118 163.936 196.181C165.247 198.569 169.198 206.122 170.518 207.998C172.925 211.402 175.556 214.886 179.058 217.401C182.405 219.954 186.616 221.101 190.795 220.597C192.804 220.28 194.698 219.453 196.297 218.195C197.896 216.937 199.146 215.291 199.928 213.413C200.851 211.18 201.438 208.823 201.67 206.418C202.002 203.787 202.182 201.129 202.289 198.48C202.262 198.498 202.217 198.498 202.209 198.525Z" fill="#6D3F0B"/>
<path d="M188.254 212.416C179.363 212.165 168.399 195.597 165.471 183.743C165.283 182.935 175.762 155.349 177.271 149.664C177.576 148.497 210.659 167.795 210.659 167.795C210.659 167.795 203.986 178.777 201.418 188.691C201.212 189.526 196.847 212.641 188.254 212.416Z" fill="#F9CCB5"/>
<path d="M210.65 167.787C210.65 167.787 203.987 178.77 201.409 188.693C201.365 188.89 201.086 190.336 200.574 192.42C184.033 186.376 176.005 173.086 172.323 164.106C174.577 157.82 176.661 151.974 177.262 149.675C177.621 148.498 210.65 167.787 210.65 167.787Z" fill="#6D3F0B"/>
<path d="M166.486 135.189C166.486 135.189 164.232 143.604 162.589 146.244C160.945 148.884 153.51 149.836 153.51 149.836C153.51 149.836 160.065 154.766 162.319 154.927C164.573 155.089 169.647 150.779 169.647 150.779C169.647 150.779 163.828 158.403 160.667 157.909C158.718 157.604 165.157 159.705 165.157 159.705C167.333 160.229 169.625 159.931 171.595 158.87C174.541 157.119 166.486 135.189 166.486 135.189Z" fill="#6D3F0B"/>
<path d="M178.762 110.045C171.461 121.603 168.147 159.849 174.909 170.427C184.707 185.765 205.711 192.724 220.007 179.829C233.872 167.338 237.293 117.418 229.283 107.289C217.484 92.4088 189.556 92.9835 178.762 110.045Z" fill="#F9CCB5"/>
<path d="M206.95 135.972C205.816 136.076 204.677 136.118 203.538 136.097C202.227 136.097 201.185 136.304 200.027 135.576C199.725 135.331 199.511 134.994 199.417 134.617C199.324 134.24 199.355 133.842 199.506 133.484C200.26 132.002 201.859 131.562 203.439 131.446C205.036 131.277 206.638 131.713 207.929 132.667C209.249 133.619 208.486 135.765 206.95 135.972Z" fill="#6D3F0B"/>
<path d="M205.038 144.233C205.038 144.134 204.822 144.323 204.813 144.43C204.499 146.999 203.709 149.899 201.221 150.393C201.15 150.393 201.141 150.537 201.221 150.537C204.149 150.573 205.155 146.72 205.038 144.233Z" fill="#6D3F0B"/>
<path d="M203.16 141.206C199.092 140.308 197.503 148.47 201.274 149.35C205.046 150.231 206.573 142.005 203.16 141.206Z" fill="#6D3F0B"/>
<path d="M226.527 140.28C225.465 139.837 224.428 139.336 223.42 138.78C222.235 138.206 221.238 137.882 220.546 136.67C220.394 136.313 220.362 135.916 220.454 135.539C220.546 135.161 220.758 134.824 221.058 134.578C222.423 133.608 224.049 133.958 225.494 134.578C226.98 135.172 228.191 136.299 228.889 137.739C229.039 138.076 229.087 138.451 229.026 138.815C228.966 139.18 228.799 139.519 228.547 139.79C228.296 140.06 227.97 140.251 227.611 140.338C227.252 140.426 226.875 140.405 226.527 140.28Z" fill="#6D3F0B"/>
<path d="M198.671 164.913C199.164 165.622 199.613 166.556 200.52 166.816C201.469 166.978 202.442 166.941 203.376 166.709C203.395 166.705 203.415 166.707 203.433 166.715C203.45 166.723 203.465 166.737 203.474 166.754C203.483 166.772 203.486 166.791 203.483 166.811C203.48 166.83 203.471 166.848 203.457 166.861C202.996 167.29 202.429 167.586 201.814 167.719C201.199 167.852 200.56 167.816 199.964 167.616C199.472 167.378 199.062 167.001 198.784 166.531C198.506 166.062 198.373 165.52 198.401 164.975C198.392 164.823 198.599 164.823 198.671 164.913Z" fill="#6D3F0B"/>
<path d="M202.82 157.819C203.267 158.95 203.946 159.976 204.812 160.831C205.677 161.686 206.712 162.352 207.849 162.785C208.837 163.182 209.877 163.433 210.938 163.53C211.136 163.567 211.338 163.582 211.539 163.575C211.728 163.575 211.908 163.575 212.114 163.575C212.254 163.575 212.39 163.529 212.502 163.445C212.614 163.361 212.695 163.242 212.734 163.108C212.739 163.021 212.739 162.934 212.734 162.848V162.623C213.165 160.675 213.551 157.666 213.551 157.666C214.198 158.16 217.529 160.504 217.673 159.462C218.804 150.895 220.062 141.377 219.388 132.612C219.377 132.557 219.348 132.507 219.304 132.471C219.261 132.436 219.206 132.416 219.15 132.416C219.094 132.416 219.039 132.436 218.996 132.471C218.952 132.507 218.923 132.557 218.912 132.612C217.493 140.793 217.529 149.171 216.218 157.424C215.14 156.75 213.398 155.565 212.375 155.394C212.078 155.394 211.728 161.231 211.477 162.084C211.479 162.114 211.479 162.144 211.477 162.174C208.1 161.959 205.819 160.486 203.053 157.684C202.937 157.451 202.703 157.585 202.82 157.819Z" fill="#6D3F0B"/>
<path d="M219.747 146.71C219.747 146.621 219.917 146.872 219.899 146.971C219.325 149.503 219.091 152.494 221.228 153.778C221.3 153.823 221.228 153.948 221.183 153.921C218.454 152.978 218.795 149.009 219.747 146.71Z" fill="#6D3F0B"/>
<path d="M222.521 144.493C226.67 144.978 225.404 153.239 221.56 152.79C217.717 152.341 219.055 144.089 222.521 144.493Z" fill="#6D3F0B"/>
<path d="M170.653 140.147C177.523 140.47 187.769 120.543 187.769 120.543L185.075 132.487C185.075 132.487 191.208 130.224 195.214 125.806C198.069 122.663 199.308 117.32 199.569 114.581C199.569 114.581 204.059 124.189 211.333 128.949C214.027 130.745 235.731 137.929 236.18 136.573C237.536 132.568 233.819 115.335 229.625 109.785C224.785 103.401 217.214 96.2346 202.586 96.8362C187.958 97.4379 181.761 104.613 177.676 110.423C173.59 116.233 168.13 140.03 170.653 140.147Z" fill="#6D3F0B"/>
<path d="M178.52 143.89C178.52 143.89 173.339 129.909 167.205 131.453C161.072 132.998 162.796 151.748 168.48 155.699C169.175 156.261 169.976 156.676 170.835 156.921C171.695 157.165 172.594 157.234 173.481 157.122C174.367 157.011 175.222 156.722 175.993 156.272C176.765 155.822 177.438 155.221 177.972 154.505L178.52 143.89Z" fill="#F9CCB5"/>
<path d="M167.834 136.814C167.735 136.814 167.681 136.922 167.753 136.976C171.704 139.922 172.961 144.618 173.482 149.288C172.584 147.312 171.039 145.947 168.435 146.935C168.301 146.989 168.363 147.204 168.498 147.204C169.339 147.162 170.173 147.381 170.885 147.831C171.598 148.281 172.153 148.941 172.476 149.719C173.003 151.024 173.391 152.382 173.635 153.769C173.733 154.218 174.533 154.191 174.479 153.697C174.474 153.658 174.474 153.619 174.479 153.58C176.05 147.986 173.733 138.97 167.834 136.814Z" fill="#6D3F0B"/>
<path d="M219.899 100.293C216.185 96.7802 211.977 93.8303 207.408 91.5377C202.271 89.0682 184.904 84.7309 179.705 86.7694C174.505 88.8078 168.12 104.406 167.231 106.705C166.342 109.004 162.688 123.453 166.657 128.562C170.626 133.672 179.112 109.866 189.834 104.658C200.556 99.4491 219.899 100.293 219.899 100.293Z" fill="#AE6F28"/>
<path opacity="0.1" d="M219.9 100.303C219.9 100.303 200.548 99.3509 189.834 104.613C179.121 109.875 170.635 133.672 166.648 128.563C164.906 126.318 164.556 123.723 164.852 119.664C168.256 113.019 174.73 103.096 183.064 97.519C190.876 92.2927 201.473 91.8706 211.925 94.0887C214.753 95.933 217.42 98.0117 219.9 100.303Z" fill="black"/>
<path d="M163.308 143.273C165.894 137.04 178.089 122.107 188.173 114.581C198.258 107.056 220.187 108.008 222.935 109.104C229.598 111.798 231.223 114.59 232.498 114.339C233.774 114.088 228.484 106.652 226.949 104.865C225.413 103.078 221.175 98.6689 218.202 97.7529C215.23 96.8369 196.399 92.5714 187.185 98.1301C177.972 103.689 161.332 122.376 161.197 128.491C161.197 129.964 162.652 131.419 162.589 133.502C162.499 136.241 162.059 139.294 162.23 141.288C162.356 142.877 163.083 143.802 163.308 143.273Z" fill="#AE6F28"/>
<path d="M209.052 218.955L187.41 282.39C186.566 284.231 187.41 285.856 189.26 285.982L222.684 288.748C223.71 288.759 224.719 288.477 225.591 287.935C226.463 287.392 227.161 286.612 227.605 285.686L249.246 222.296C250.091 220.446 249.246 218.829 247.397 218.704L213.973 215.956C212.953 215.939 211.949 216.211 211.078 216.742C210.207 217.273 209.504 218.041 209.052 218.955Z" fill="#37474F"/>
<path d="M213.021 219.242L191.388 282.677C190.49 284.517 191.388 286.143 193.184 286.269L226.608 289.016C227.635 289.028 228.643 288.746 229.515 288.203C230.387 287.661 231.086 286.881 231.529 285.954L253.171 222.52C254.015 220.67 253.171 219.053 251.321 218.928L217.897 216.18C216.88 216.183 215.883 216.472 215.021 217.013C214.159 217.554 213.466 218.327 213.021 219.242Z" fill="#41535C"/>
<path d="M221.947 222.959C221.887 223.519 221.663 224.048 221.303 224.48C220.943 224.912 220.463 225.228 219.923 225.387C219.384 225.547 218.809 225.543 218.272 225.376C217.735 225.209 217.259 224.887 216.905 224.45C216.551 224.013 216.334 223.481 216.282 222.921C216.23 222.361 216.345 221.798 216.612 221.303C216.88 220.809 217.288 220.404 217.785 220.141C218.282 219.878 218.846 219.768 219.405 219.825C219.778 219.863 220.14 219.975 220.47 220.153C220.8 220.331 221.091 220.573 221.327 220.864C221.563 221.155 221.74 221.49 221.846 221.85C221.952 222.21 221.987 222.587 221.947 222.959Z" fill="#37474F"/>
<path d="M72.1964 339.08C85.5317 343.57 104.65 336.243 155.145 312.446C162.131 309.15 152.154 253.6 144.512 256.725C134.886 260.676 98.391 278.07 95.8856 279.687C74.7287 293.237 63.1535 336.009 72.1964 339.08Z" fill="#F9CCB5"/>
<path d="M125.69 269.333C125.69 269.333 141.702 254.067 152.63 248.679C167.214 241.423 182.794 241.172 189.332 241.495C202.972 242.097 235.552 252.981 234.052 262.912C232.696 271.892 199.928 259.087 199.928 259.087C199.928 259.087 235.453 266.639 231.834 277.164C228.215 287.688 191.092 270.59 191.092 270.59C191.092 270.59 227.425 279.166 221.974 289.448C217.852 297.198 183.36 283.665 183.36 283.665C183.36 283.665 214.539 291.262 210.641 299.416C206.34 308.396 173.698 297.934 173.698 297.934C160.308 316.999 146.129 320.6 135.748 321.965C133.18 322.27 125.69 269.333 125.69 269.333Z" fill="#F9CCB5"/>
<path d="M187.814 255.63C192.016 256.367 196.282 257.076 200.386 258.19C204.49 259.303 208.602 260.551 212.607 262.033C222.432 265.679 228.008 269.496 227.64 269.298C218.884 264.61 204.175 260.417 200.044 259.312C195.914 258.208 191.864 256.888 187.751 255.783C187.661 255.756 187.715 255.612 187.814 255.63Z" fill="#6D3F0B"/>
<path d="M195.879 30.2871C194.222 30.2871 192.879 31.6303 192.879 33.2871V72.2769C192.879 73.9338 194.222 75.2769 195.879 75.2769H196.192C197.849 75.2769 199.192 76.6201 199.192 78.2769V78.9497C199.192 81.6231 202.424 82.9613 204.314 81.0702L209.224 76.1565C209.786 75.5933 210.55 75.2769 211.346 75.2769H266.99C268.647 75.2769 269.99 73.9338 269.99 72.2769V33.2871C269.99 31.6303 268.647 30.2871 266.99 30.2871H195.879Z" fill="#DEA565"/>
<path d="M213.377 49.6099C213.542 49.1032 214.259 49.1032 214.423 49.6099L215.012 51.4204C215.085 51.647 215.297 51.8004 215.535 51.8004H217.438C217.971 51.8004 218.193 52.4822 217.762 52.7954L216.222 53.9143C216.029 54.0544 215.948 54.3026 216.022 54.5292L216.61 56.3397C216.775 56.8464 216.195 57.2678 215.764 56.9546L214.224 55.8357C214.031 55.6956 213.77 55.6956 213.577 55.8357L212.037 56.9546C211.606 57.2678 211.026 56.8464 211.191 56.3397L211.779 54.5292C211.853 54.3026 211.772 54.0544 211.579 53.9143L210.039 52.7954C209.608 52.4822 209.83 51.8004 210.362 51.8004H212.266C212.504 51.8004 212.715 51.647 212.789 51.4204L213.377 49.6099Z" fill="#6D3F0B"/>
<path d="M230.477 49.6099C230.642 49.1032 231.358 49.1032 231.523 49.6099L232.111 51.4204C232.185 51.647 232.396 51.8004 232.634 51.8004H234.538C235.071 51.8004 235.292 52.4822 234.861 52.7954L233.321 53.9143C233.129 54.0544 233.048 54.3026 233.121 54.5292L233.71 56.3397C233.874 56.8464 233.294 57.2678 232.863 56.9546L231.323 55.8357C231.131 55.6956 230.869 55.6956 230.677 55.8357L229.137 56.9546C228.706 57.2678 228.126 56.8464 228.29 56.3397L228.879 54.5292C228.952 54.3026 228.871 54.0544 228.679 53.9143L227.139 52.7954C226.708 52.4822 226.929 51.8004 227.462 51.8004H229.366C229.604 51.8004 229.815 51.647 229.889 51.4204L230.477 49.6099Z" fill="#6D3F0B"/>
<path d="M247.577 49.6099C247.741 49.1032 248.458 49.1032 248.623 49.6099L249.211 51.4204C249.285 51.647 249.496 51.8004 249.734 51.8004H251.638C252.17 51.8004 252.392 52.4822 251.961 52.7954L250.421 53.9143C250.228 54.0544 250.147 54.3026 250.221 54.5292L250.809 56.3397C250.974 56.8464 250.394 57.2678 249.963 56.9546L248.423 55.8357C248.23 55.6956 247.969 55.6956 247.776 55.8357L246.236 56.9546C245.805 57.2678 245.225 56.8464 245.39 56.3397L245.978 54.5292C246.052 54.3026 245.971 54.0544 245.778 53.9143L244.238 52.7954C243.807 52.4822 244.029 51.8004 244.562 51.8004H246.465C246.703 51.8004 246.915 51.647 246.988 51.4204L247.577 49.6099Z" fill="#6D3F0B"/>
<path d="M244.09 88.3145C241.328 88.3145 239.09 90.553 239.09 93.3145V133.488C239.09 135.37 240.616 136.896 242.498 136.896C244.38 136.896 245.906 138.435 245.906 140.317C245.906 143.393 249.625 144.964 251.8 142.788L256.223 138.362C257.161 137.424 258.433 136.896 259.76 136.896H346.457C349.218 136.896 351.457 134.658 351.457 131.896V93.3145C351.457 90.553 349.218 88.3145 346.457 88.3145H244.09Z" fill="#DEA565"/>
<path d="M271.468 98.6504H251.773C249.564 98.6504 247.773 100.441 247.773 102.65V122.345C247.773 124.554 249.564 126.345 251.773 126.345H271.468C273.677 126.345 275.468 124.554 275.468 122.345V102.65C275.468 100.441 273.677 98.6504 271.468 98.6504Z" fill="#AE6F28"/>
<path d="M257.652 117.464V107.541L267.845 112.498L257.652 117.464Z" fill="#DEA565"/>
<path d="M333.353 98.6504H285.238C284.603 98.6504 284.089 99.165 284.089 99.7998C284.089 100.435 284.603 100.949 285.238 100.949H333.353C333.988 100.949 334.503 100.435 334.503 99.7998C334.503 99.165 333.988 98.6504 333.353 98.6504Z" fill="#6D3F0B"/>
<path d="M284.089 107.199C302.3 106.598 320.637 106.598 338.867 107.199C320.655 107.801 302.318 107.801 284.089 107.199Z" fill="#AE6F28"/>
<path d="M284.089 113.315C303.27 112.713 322.595 112.713 341.785 113.315C322.595 113.916 303.279 113.916 284.089 113.315Z" fill="#AE6F28"/>
<path d="M284.089 119.432C297.738 118.83 311.496 118.83 325.154 119.432C311.496 120.033 297.738 120.033 284.089 119.432Z" fill="#AE6F28"/>
<path d="M284.089 125.545C297.738 124.943 311.496 124.943 325.154 125.545C311.496 126.156 297.738 126.156 284.089 125.545Z" fill="#AE6F28"/>
<path d="M138.103 105.008C140.865 105.008 143.103 107.246 143.103 110.008V150.186C143.103 152.071 141.575 153.599 139.691 153.599C137.806 153.599 136.278 155.138 136.278 157.022C136.278 160.096 132.561 161.663 130.388 159.489L125.961 155.063C125.023 154.125 123.752 153.599 122.426 153.599H35.7275C32.9661 153.599 30.7275 151.36 30.7275 148.599V110.008C30.7275 107.246 32.9661 105.008 35.7275 105.008H138.103Z" fill="#DEA565"/>
<mask id="mask0_16675_12180" style="mask-type:alpha" maskUnits="userSpaceOnUse" x="40" y="115" width="28" height="28">
<path d="M64 115H44C41.7909 115 40 116.791 40 119V139C40 141.209 41.7909 143 44 143H64C66.2091 143 68 141.209 68 139V119C68 116.791 66.2091 115 64 115Z" fill="#AE6F28"/>
</mask>
<g mask="url(#mask0_16675_12180)">
<path d="M64 115H44C41.7909 115 40 116.791 40 119V139C40 141.209 41.7909 143 44 143H64C66.2091 143 68 141.209 68 139V119C68 116.791 66.2091 115 64 115Z" fill="#AE6F28"/>
</g>
<g clip-path="url(#clip1_16675_12180)">
<path d="M57.5708 127.873C57.9404 127.874 58.3065 127.802 58.648 127.66C58.9894 127.519 59.2994 127.311 59.56 127.049L62.267 124.344C62.4811 124.129 62.5008 123.781 62.2969 123.556C62.2457 123.5 62.1836 123.455 62.1143 123.423C62.045 123.391 61.97 123.374 61.8938 123.372C61.8176 123.37 61.7419 123.384 61.6712 123.412C61.6004 123.44 61.5362 123.483 61.4823 123.537L59.0695 125.948C58.9885 126.029 58.8787 126.074 58.7642 126.074C58.6497 126.074 58.5399 126.029 58.4589 125.948C58.2905 125.78 58.2996 125.496 58.4677 125.328L60.8699 122.925C60.9237 122.872 60.9661 122.807 60.9944 122.737C61.0227 122.666 61.0363 122.59 61.0345 122.514C61.0326 122.438 61.0153 122.363 60.9837 122.294C60.952 122.224 60.9066 122.162 60.8502 122.111C60.7484 122.019 60.6157 121.968 60.4783 121.969C60.4011 121.969 60.3248 121.984 60.2535 122.014C60.1823 122.043 60.1176 122.086 60.0631 122.141L57.6629 124.541C57.5819 124.622 57.4721 124.667 57.3576 124.667C57.2431 124.667 57.1333 124.622 57.0523 124.541C56.8842 124.373 56.893 124.089 57.0611 123.921L59.4633 121.519C59.5171 121.465 59.5595 121.401 59.5878 121.33C59.6161 121.26 59.6297 121.184 59.6279 121.108C59.626 121.032 59.6087 120.957 59.5771 120.887C59.5454 120.818 59.5 120.756 59.4436 120.705C59.3418 120.613 59.2091 120.562 59.0717 120.563C58.9159 120.563 58.7666 120.625 58.6565 120.735L55.9512 123.44C55.6891 123.701 55.4813 124.011 55.3399 124.352C55.1984 124.694 55.1261 125.06 55.1271 125.43V125.719C55.1272 125.793 55.1126 125.866 55.0844 125.934C55.0561 126.003 55.0146 126.065 54.9622 126.117L53.7103 127.369C53.6973 127.383 53.6818 127.393 53.6647 127.4C53.6476 127.407 53.6293 127.411 53.6108 127.411C53.5924 127.411 53.5741 127.407 53.557 127.4C53.5399 127.393 53.5244 127.383 53.5113 127.369L47.4195 121.277C47.3143 121.172 47.1718 121.113 47.023 121.112C46.8742 121.112 46.7313 121.17 46.6256 121.275C46.093 121.803 45.8086 122.548 45.8086 123.429C45.8051 124.885 46.5701 126.558 47.8051 127.791L50.8092 130.795C51.2362 131.222 51.8148 131.461 52.418 131.461C52.6103 131.461 52.8018 131.436 52.9879 131.388C53.0346 131.376 53.0827 131.369 53.1309 131.369C53.2722 131.369 53.4082 131.423 53.5117 131.519L53.9121 131.888C54.0154 131.994 54.0734 132.136 54.0738 132.283V132.478C54.0728 132.921 54.2468 133.346 54.5579 133.661L57.7238 136.88L57.7269 136.884C58.0783 137.235 58.5549 137.432 59.0517 137.432C59.5486 137.432 60.0251 137.235 60.3765 136.884C60.7278 136.532 60.9252 136.056 60.9251 135.559C60.9251 135.062 60.7277 134.585 60.3763 134.234L55.6309 129.489C55.6178 129.476 55.6075 129.46 55.6004 129.443C55.5933 129.426 55.5897 129.408 55.5897 129.389C55.5897 129.371 55.5933 129.352 55.6004 129.335C55.6075 129.318 55.6178 129.303 55.6309 129.29L56.8828 128.038C56.9351 127.985 56.9971 127.944 57.0654 127.916C57.1337 127.887 57.2069 127.873 57.2808 127.873H57.5708Z" fill="#DEA564"/>
<path d="M52.4175 132.584C51.5169 132.582 50.6533 132.225 50.0142 131.591L49.5269 131.104C49.4742 131.051 49.4028 131.021 49.3283 131.021C49.2538 131.021 49.1824 131.051 49.1296 131.104L46.1414 134.076C45.6087 134.609 45.4186 135.393 45.6822 136.161C45.697 136.204 45.7145 136.246 45.7346 136.287C46.0893 137.014 46.7777 137.436 47.5307 137.436C47.7897 137.436 48.0462 137.385 48.2855 137.286C48.5247 137.187 48.7418 137.041 48.9243 136.858L52.9096 132.853C52.9264 132.836 52.9393 132.816 52.9473 132.793C52.9553 132.77 52.9583 132.746 52.9561 132.723V132.713C52.9545 132.692 52.9485 132.67 52.9385 132.651C52.9284 132.631 52.9145 132.614 52.8976 132.6C52.8807 132.586 52.8611 132.575 52.84 132.569C52.8189 132.563 52.7968 132.561 52.775 132.563C52.6563 132.576 52.5369 132.583 52.4175 132.584Z" fill="#DEA564"/>
</g>
<path d="M125.978 115.354H77.8633C77.2285 115.354 76.7139 115.868 76.7139 116.503C76.7139 117.138 77.2285 117.652 77.8633 117.652H125.978C126.613 117.652 127.128 117.138 127.128 116.503C127.128 115.868 126.613 115.354 125.978 115.354Z" fill="#6D3F0B"/>
<path d="M76.7139 123.901C94.9253 123.291 113.262 123.291 131.492 123.901C113.271 124.503 94.9343 124.503 76.7139 123.901Z" fill="#AE6F28"/>
<path d="M76.7139 130.018C95.9041 129.416 115.22 129.416 134.41 130.018C115.22 130.619 95.9041 130.619 76.7139 130.018Z" fill="#AE6F28"/>
<path d="M76.7139 136.133C90.3635 135.531 104.121 135.531 117.779 136.133C104.121 136.735 90.3635 136.735 76.7139 136.133Z" fill="#AE6F28"/>
<path d="M76.7139 142.248C90.3635 141.646 104.121 141.646 117.779 142.248C104.121 142.85 90.3635 142.85 76.7139 142.248Z" fill="#AE6F28"/>
<path d="M276 153C274.343 153 273 154.343 273 156V198.582C273 200.239 274.343 201.582 276 201.582H276.825C278.482 201.582 279.825 202.925 279.825 204.582V206.126C279.825 208.799 283.057 210.138 284.947 208.247L290.728 202.461C291.29 201.898 292.054 201.582 292.85 201.582H315.996C317.652 201.582 318.996 200.239 318.996 198.582V156C318.996 154.343 317.652 153 315.996 153H276Z" fill="#DEA565"/>
<path d="M306 163H286C283.791 163 282 164.791 282 167V187C282 189.209 283.791 191 286 191H306C308.209 191 310 189.209 310 187V167C310 164.791 308.209 163 306 163Z" fill="#AE6F28"/>
<g clip-path="url(#clip2_16675_12180)">
<path d="M292 169.5C292 169.367 291.947 169.24 291.854 169.146C291.76 169.053 291.633 169 291.5 169C291.367 169 291.24 169.053 291.146 169.146C291.053 169.24 291 169.367 291 169.5V170H290C289.47 170 288.961 170.211 288.586 170.586C288.211 170.961 288 171.47 288 172V173H304V172C304 171.47 303.789 170.961 303.414 170.586C303.039 170.211 302.53 170 302 170H301V169.5C301 169.367 300.947 169.24 300.854 169.146C300.76 169.053 300.633 169 300.5 169C300.367 169 300.24 169.053 300.146 169.146C300.053 169.24 300 169.367 300 169.5V170H292V169.5ZM304 183V174H288V183C288 183.53 288.211 184.039 288.586 184.414C288.961 184.789 289.47 185 290 185H302C302.53 185 303.039 184.789 303.414 184.414C303.789 184.039 304 183.53 304 183ZM300.5 176H301.5C301.633 176 301.76 176.053 301.854 176.146C301.947 176.24 302 176.367 302 176.5V177.5C302 177.633 301.947 177.76 301.854 177.854C301.76 177.947 301.633 178 301.5 178H300.5C300.367 178 300.24 177.947 300.146 177.854C300.053 177.76 300 177.633 300 177.5V176.5C300 176.367 300.053 176.24 300.146 176.146C300.24 176.053 300.367 176 300.5 176Z" fill="#DEA564"/>
</g>
<path d="M154.794 37.9199C156.451 37.9199 157.794 39.2631 157.794 40.9199V83.5017C157.794 85.1586 156.451 86.5017 154.794 86.5017H153.97C152.313 86.5017 150.97 87.8449 150.97 89.5017V91.0459C150.97 93.7192 147.737 95.0574 145.847 93.1664L140.067 87.3812C139.504 86.8181 138.741 86.5017 137.945 86.5017H114.799C113.142 86.5017 111.799 85.1586 111.799 83.5017V40.9199C111.799 39.2631 113.142 37.9199 114.799 37.9199H154.794Z" fill="#DEA565"/>
<path d="M125.416 75.9492H145.11C147.319 75.9492 149.11 74.1584 149.11 71.9492V52.2549C149.11 50.0458 147.319 48.2549 145.11 48.2549H125.416C123.207 48.2549 121.416 50.0458 121.416 52.2549V71.9492C121.416 74.1584 123.207 75.9492 125.416 75.9492Z" fill="#AE6F28"/>
<path d="M141.055 58.8612C140.768 55.9607 138.765 53.0781 135.254 53.0781C131.743 53.0781 129.749 55.9607 129.462 58.8612C129.022 63.3512 132.03 67.4012 135.254 71.101C138.487 67.4192 141.504 63.3512 141.055 58.8612ZM135.254 62.0851C134.626 62.0833 134.012 61.8953 133.49 61.545C132.969 61.1946 132.563 60.6975 132.324 60.1165C132.084 59.5354 132.023 58.8965 132.146 58.2805C132.27 57.6644 132.573 57.0988 133.018 56.6552C133.463 56.2115 134.03 55.9096 134.646 55.7877C135.263 55.6657 135.901 55.7292 136.482 55.9701C137.062 56.2109 137.558 56.6184 137.907 57.141C138.256 57.6635 138.442 58.2778 138.442 58.9061C138.446 59.3262 138.366 59.7428 138.207 60.1317C138.048 60.5206 137.813 60.874 137.517 61.1715C137.22 61.4689 136.867 61.7045 136.479 61.8644C136.09 62.0243 135.674 62.1054 135.254 62.103V62.0851Z" fill="#DEA565"/>
<path d="M140.706 187C143.039 187 144.93 188.891 144.93 191.224V225.165C144.93 226.757 143.639 228.047 142.047 228.047C140.455 228.047 139.165 229.347 139.165 230.939C139.165 233.536 136.025 234.86 134.188 233.024L130.449 229.284C129.657 228.492 128.583 228.047 127.462 228.047H54.2238C51.8911 228.047 50 226.156 50 223.824V191.224C50 188.891 51.891 187 54.2238 187H140.706Z" fill="#DEA565"/>
<mask id="mask1_16675_12180" style="mask-type:alpha" maskUnits="userSpaceOnUse" x="58" y="196" width="24" height="24">
<path d="M78.621 196H61.379C59.5128 196 58 197.513 58 199.379V216.621C58 218.487 59.5128 220 61.379 220H78.621C80.4872 220 82 218.487 82 216.621V199.379C82 197.513 80.4872 196 78.621 196Z" fill="#AE6F28"/>
</mask>
<g mask="url(#mask1_16675_12180)">
<path d="M78.621 196H61.379C59.5128 196 58 197.513 58 199.379V216.621C58 218.487 59.5128 220 61.379 220H78.621C80.4872 220 82 218.487 82 216.621V199.379C82 197.513 80.4872 196 78.621 196Z" fill="#AE6F28"/>
</g>
<path d="M75.334 201.957C75.334 201.612 75.0542 201.332 74.709 201.332H65.2923C64.9471 201.332 64.6673 201.612 64.6673 201.957V202.332C64.6673 202.516 64.8166 202.665 65.0007 202.665C65.1847 202.665 65.334 202.815 65.334 202.999V204.707C65.334 205.052 65.0542 205.332 64.709 205.332H63.959C63.6138 205.332 63.334 205.612 63.334 205.957V214.04C63.334 214.386 63.6138 214.665 63.959 214.665H67.6673V210.624C67.6673 210.279 67.9471 209.999 68.2923 209.999H71.709C72.0542 209.999 72.334 210.279 72.334 210.624V214.665H76.0423C76.3875 214.665 76.6673 214.386 76.6673 214.04V205.957C76.6673 205.612 76.3875 205.332 76.0423 205.332H75.2923C74.9471 205.332 74.6673 205.052 74.6673 204.707V202.999C74.6673 202.815 74.8166 202.665 75.0007 202.665C75.1847 202.665 75.334 202.516 75.334 202.332V201.957ZM70.6673 204.665H71.6882C71.8607 204.665 72.0007 204.805 72.0007 204.978V205.686C72.0007 205.859 71.8607 205.999 71.6882 205.999H70.6673V207.02C70.6673 207.192 70.5274 207.332 70.3548 207.332H69.6465C69.4739 207.332 69.334 207.192 69.334 207.02V205.999H68.3132C68.1406 205.999 68.0007 205.859 68.0007 205.686V204.978C68.0007 204.805 68.1406 204.665 68.3132 204.665H69.334V203.645C69.334 203.472 69.4739 203.332 69.6465 203.332H70.3548C70.5274 203.332 70.6673 203.472 70.6673 203.645V204.665Z" fill="#DEA564"/>
<path d="M69 214.665V211.332H71V214.665H69Z" fill="#DEA564"/>
<path d="M130.464 195.74H89.8187C89.2824 195.74 88.8477 196.175 88.8477 196.711C88.8477 197.247 89.2824 197.682 89.8186 197.682H130.464C131 197.682 131.435 197.247 131.435 196.711C131.435 196.175 131 195.74 130.464 195.74Z" fill="#6D3F0B"/>
<path d="M88.8477 202.961C104.232 202.445 119.722 202.445 135.122 202.961C119.73 203.469 104.239 203.469 88.8477 202.961Z" fill="#AE6F28"/>
<path d="M88.8477 208.127C105.059 207.619 121.376 207.619 137.587 208.127C121.376 208.636 105.059 208.636 88.8477 208.127Z" fill="#AE6F28"/>
<path d="M88.8477 213.293C100.378 212.785 112 212.785 123.538 213.293C112 213.802 100.378 213.802 88.8477 213.293Z" fill="#AE6F28"/>
<path d="M88.8477 218.459C100.378 217.951 112 217.951 123.538 218.459C112 218.968 100.378 218.968 88.8477 218.459Z" fill="#AE6F28"/>
</g>
<defs>
<clipPath id="clip0_16675_12180">
<rect width="375" height="268" fill="white"/>
</clipPath>
<clipPath id="clip1_16675_12180">
<rect width="18" height="18" fill="white" transform="translate(45 120)"/>
</clipPath>
<clipPath id="clip2_16675_12180">
<rect width="16" height="16" fill="white" transform="translate(288 169)"/>
</clipPath>
</defs>
</svg>
