<svg width="24" height="24" viewBox="0 0 24 24" fill="none" xmlns="http://www.w3.org/2000/svg">
<path d="M11.1427 17.572C11.1427 19.3703 11.8816 20.9963 13.0713 22.1637C12.4559 22.2448 11.813 22.2857 11.1427 22.2863C6.17986 22.2863 2.57129 20.086 2.57129 16.8991V16.2863C2.57129 15.6043 2.84221 14.9502 3.32444 14.468C3.80668 13.9858 4.46073 13.7148 5.14272 13.7148H12.4284C11.5922 14.8267 11.1409 16.1807 11.1427 17.572ZM11.1427 1.71484C11.8181 1.71484 12.4868 1.84787 13.1108 2.10632C13.7348 2.36477 14.3017 2.74359 14.7793 3.22115C15.2568 3.69871 15.6356 4.26565 15.8941 4.88961C16.1526 5.51357 16.2856 6.18233 16.2856 6.8577C16.2856 7.53307 16.1526 8.20183 15.8941 8.82579C15.6356 9.44975 15.2568 10.0167 14.7793 10.4943C14.3017 10.9718 13.7348 11.3506 13.1108 11.6091C12.4868 11.8675 11.8181 12.0006 11.1427 12.0006C9.77875 12.0006 8.47064 11.4587 7.50617 10.4943C6.5417 9.52978 5.99986 8.22167 5.99986 6.8577C5.99986 5.49373 6.5417 4.18562 7.50617 3.22115C8.47064 2.25668 9.77875 1.71484 11.1427 1.71484ZM23.1427 17.572C23.1427 19.0496 22.5557 20.4667 21.5109 21.5116C20.466 22.5564 19.0489 23.1434 17.5713 23.1434C16.0937 23.1434 14.6765 22.5564 13.6317 21.5116C12.5868 20.4667 11.9999 19.0496 11.9999 17.572C11.9999 16.0944 12.5868 14.6772 13.6317 13.6324C14.6765 12.5875 16.0937 12.0006 17.5713 12.0006C19.0489 12.0006 20.466 12.5875 21.5109 13.6324C22.5557 14.6772 23.1427 16.0944 23.1427 17.572ZM18.1833 14.1777C18.1456 14.0444 18.0654 13.9271 17.955 13.8435C17.8445 13.76 17.7098 13.7148 17.5713 13.7148C17.4328 13.7148 17.2981 13.76 17.1876 13.8435C17.0771 13.9271 16.997 14.0444 16.9593 14.1777L16.3456 16.1474H14.3587C13.7356 16.1474 13.4759 16.9788 13.9807 17.3611L15.5879 18.5783L14.9741 20.548C14.7813 21.166 15.4601 21.6794 15.9641 21.298L17.5713 20.0808L19.1784 21.298C19.6824 21.6803 20.3613 21.166 20.1684 20.548L19.5547 18.5783L21.1619 17.3611C21.6659 16.9797 21.407 16.1474 20.7839 16.1474H18.797L18.1833 14.1777Z" fill="#AE6F28"/>
</svg>
