<svg width="16" height="16" viewBox="0 0 16 16" fill="none" xmlns="http://www.w3.org/2000/svg">
<path d="M14.6673 7.50065H13.3073C13.0673 4.96065 11.0407 2.92732 8.50065 2.69398V1.33398C8.50065 1.06065 8.27398 0.833984 8.00065 0.833984C7.72732 0.833984 7.50065 1.06065 7.50065 1.33398V2.69398C4.96065 2.93398 2.92732 4.96065 2.69398 7.50065H1.33398C1.06065 7.50065 0.833984 7.72732 0.833984 8.00065C0.833984 8.27398 1.06065 8.50065 1.33398 8.50065H2.69398C2.93398 11.0407 4.96065 13.074 7.50065 13.3073V14.6673C7.50065 14.9406 7.72732 15.1673 8.00065 15.1673C8.27398 15.1673 8.50065 14.9406 8.50065 14.6673V13.3073C11.0407 13.0673 13.074 11.0407 13.3073 8.50065H14.6673C14.9406 8.50065 15.1673 8.27398 15.1673 8.00065C15.1673 7.72732 14.9406 7.50065 14.6673 7.50065ZM8.00065 10.0807C6.85398 10.0807 5.92065 9.14732 5.92065 8.00065C5.92065 6.85398 6.85398 5.92065 8.00065 5.92065C9.14732 5.92065 10.0807 6.85398 10.0807 8.00065C10.0807 9.14732 9.14732 10.0807 8.00065 10.0807Z" fill="#AE6F28"/>
</svg>
