<svg width="18" height="18" viewBox="0 0 18 18" fill="none" xmlns="http://www.w3.org/2000/svg">
<path d="M1.55205 3.45016C2.15205 0.855156 6.05955 0.855156 6.65205 3.45016C7.00455 4.97266 6.03705 6.26266 5.19705 7.06516C4.58205 7.65016 3.61455 7.64266 2.99955 7.06516C2.16705 6.26266 1.19955 4.97266 1.55205 3.45016Z" stroke="#766F6A" stroke-width="1.2"/>
<path d="M11.303 12.4502C11.903 9.85516 15.833 9.85516 16.433 12.4502C16.7855 13.9727 15.818 15.2627 14.9705 16.0652C14.3555 16.6502 13.3805 16.6427 12.7655 16.0652C11.918 15.2627 10.9505 13.9727 11.303 12.4502Z" stroke="#766F6A" stroke-width="1.2"/>
<path d="M9.00026 3.75H11.0103C12.3978 3.75 13.0428 5.4675 12.0003 6.3825L6.00776 11.625C4.96526 12.5325 5.61026 14.25 6.99026 14.25H9.00026" stroke="#766F6A" stroke-width="1.2" stroke-linecap="round" stroke-linejoin="round"/>
<path d="M4.11478 4.125H4.12345" stroke="#766F6A" stroke-width="1.5" stroke-linecap="round" stroke-linejoin="round"/>
<path d="M13.8648 13.125H13.8734" stroke="#766F6A" stroke-width="1.5" stroke-linecap="round" stroke-linejoin="round"/>
</svg>
