<svg width="24" height="24" viewBox="0 0 24 24" fill="none" xmlns="http://www.w3.org/2000/svg">
<path d="M8.65005 13.4595H4.87978C4.38025 13.4623 3.90215 13.6627 3.54992 14.0169C3.1977 14.3712 2.99999 14.8504 3 15.3499V19.1202C2.99975 19.3671 3.04819 19.6117 3.14257 19.8399C3.23695 20.0681 3.3754 20.2754 3.55001 20.45C3.72461 20.6246 3.93194 20.7631 4.16012 20.8574C4.3883 20.9518 4.63286 21.0003 4.87978 21H8.65005C9.14966 21.0005 9.62909 20.8029 9.98328 20.4506C10.3375 20.0982 10.5375 19.6198 10.5396 19.1202V15.3499C10.5398 15.1017 10.4911 14.8559 10.3963 14.6266C10.3014 14.3972 10.1622 14.1888 9.98671 14.0133C9.8112 13.8378 9.6028 13.6986 9.37344 13.6037C9.14408 13.5089 8.89826 13.4602 8.65005 13.4604M8.65005 3H4.87978C4.63286 2.99975 4.3883 3.04819 4.16012 3.14257C3.93194 3.23695 3.72461 3.3754 3.55001 3.55001C3.3754 3.72461 3.23695 3.93194 3.14257 4.16012C3.04819 4.3883 2.99975 4.63286 3 4.87978V8.65005C2.99948 9.14966 3.19705 9.62909 3.54941 9.98328C3.90178 10.3375 4.38018 10.5375 4.87978 10.5396H8.65005C8.89826 10.5398 9.14408 10.4911 9.37344 10.3963C9.6028 10.3014 9.8112 10.1622 9.98671 9.98671C10.1622 9.8112 10.3014 9.6028 10.3963 9.37344C10.4911 9.14408 10.5398 8.89826 10.5396 8.65005V4.87978C10.5375 4.38018 10.3375 3.90178 9.98328 3.54941C9.62909 3.19705 9.14966 2.99948 8.65005 3ZM19.1202 3H15.3499C14.8503 2.99948 14.3709 3.19705 14.0167 3.54941C13.6625 3.90178 13.4625 4.38018 13.4604 4.87978V8.65005C13.4607 9.15111 13.6598 9.63156 14.0141 9.98586C14.3684 10.3402 14.8489 10.5393 15.3499 10.5396H19.1202C19.6198 10.5375 20.0982 10.3375 20.4506 9.98328C20.8029 9.62909 21.0005 9.14966 21 8.65005V4.87978C21.0003 4.63286 20.9518 4.3883 20.8574 4.16012C20.7631 3.93194 20.6246 3.72461 20.45 3.55001C20.2754 3.3754 20.0681 3.23695 19.8399 3.14257C19.6117 3.04819 19.3671 2.99975 19.1202 3ZM17.2297 13.4595C16.2298 13.4595 15.2708 13.8567 14.5637 14.5637C13.8567 15.2708 13.4595 16.2298 13.4595 17.2297C13.4595 18.2297 13.8567 19.1886 14.5637 19.8957C15.2708 20.6028 16.2298 21 17.2297 21C18.2297 21 19.1886 20.6028 19.8957 19.8957C20.6028 19.1886 21 18.2297 21 17.2297C21 16.2298 20.6028 15.2708 19.8957 14.5637C19.1886 13.8567 18.2297 13.4595 17.2297 13.4595Z" stroke="#766F6A" stroke-width="1.2" stroke-linecap="round" stroke-linejoin="round"/>
</svg>
