<svg width="19" height="21" viewBox="0 0 19 21" fill="none" xmlns="http://www.w3.org/2000/svg">
<path d="M17.168 4.60547L7.97148 7.59348C7.8636 7.66314 7.73964 7.70395 7.61148 7.71198L4.45248 8.73647H17.591C17.7899 8.73647 17.9807 8.81549 18.1213 8.95615C18.262 9.0968 18.341 9.28756 18.341 9.48647V16.9865C18.341 17.981 17.9459 18.9349 17.2426 19.6381C16.5394 20.3414 15.5855 20.7365 14.591 20.7365H4.09098C3.09641 20.7365 2.14259 20.3414 1.43932 19.6381C0.736063 18.9349 0.340975 17.981 0.340975 16.9865V9.48647C0.340975 9.32748 0.390475 9.17898 0.475975 9.05597L0.183475 8.15298C-0.123783 7.20715 -0.0427582 6.178 0.408727 5.29191C0.860213 4.40581 1.64518 3.73534 2.59098 3.42798L12.5765 0.183475C13.5223 -0.123783 14.5514 -0.0427583 15.4375 0.408727C16.3236 0.860213 16.9941 1.64518 17.3015 2.59098L17.6495 3.66048C17.7109 3.84964 17.6947 4.05547 17.6044 4.23269C17.5141 4.40991 17.3571 4.544 17.168 4.60547ZM11.552 4.85297L13.4795 1.51398C13.3301 1.53121 13.1829 1.56337 13.04 1.60998L11.1725 2.21598L9.21048 5.61348L11.552 4.85297ZM14.9945 1.88448L14.9645 1.93998L13.6835 4.15998L15.9905 3.40998L15.875 3.05447C15.7201 2.57721 15.4102 2.16539 14.9945 1.88448ZM9.03947 2.90898L6.69948 3.66948L4.73598 7.06698L7.07597 6.30648L9.03947 2.90898ZM1.72548 8.04648L2.60598 7.76148L4.56647 4.36248L3.05448 4.85448C2.487 5.0389 2.01602 5.44118 1.74513 5.97283C1.47424 6.50449 1.42562 7.12198 1.60998 7.68948L1.72548 8.04648Z" fill="#AE6F28"/>
</svg>
