<svg width="20" height="20" viewBox="0 0 20 20" fill="none" xmlns="http://www.w3.org/2000/svg">
<path d="M10.6214 2.53397C10.4302 2.51154 10.2359 2.5 10.039 2.5C7.28062 2.5 5.03896 4.74167 5.03896 7.5V9.90833C5.03896 10.4167 4.82229 11.1917 4.56396 11.625L3.60562 13.2167C3.01396 14.2 3.42229 15.2917 4.50562 15.6583C8.09729 16.8583 11.9723 16.8583 15.564 15.6583C16.5723 15.325 17.014 14.1333 16.464 13.2167L15.5056 11.625C15.343 11.3431 15.1945 10.9167 15.1105 10.5131" stroke="#827E7B" stroke-miterlimit="10" stroke-linecap="round"/>
<path d="M14.166 8.33398C15.5467 8.33398 16.666 7.2147 16.666 5.83398C16.666 4.45327 15.5467 3.33398 14.166 3.33398C12.7853 3.33398 11.666 4.45327 11.666 5.83398C11.666 7.2147 12.7853 8.33398 14.166 8.33398Z" fill="#FDA901"/>
<path d="M12.5176 15.8828C12.5176 17.2578 11.3926 18.3828 10.0176 18.3828C9.33424 18.3828 8.70091 18.0995 8.25091 17.6495C7.80091 17.1995 7.51758 16.5661 7.51758 15.8828" stroke="#827E7B" stroke-width="1.5" stroke-miterlimit="10"/>
</svg>
