<svg width="375" height="342" viewBox="0 0 375 342" fill="none" xmlns="http://www.w3.org/2000/svg">
<g clip-path="url(#clip0_16852_2899)">
<g clip-path="url(#clip1_16852_2899)">
<circle cx="81.5" cy="242.5" r="128.5" fill="#F2C86C"/>
<circle cx="341.5" cy="213.5" r="128.5" fill="#F2C86C"/>
<ellipse cx="228" cy="244" rx="209" ry="170" fill="#F2C86C"/>
</g>
<g clip-path="url(#clip2_16852_2899)">
<path d="M206.359 26.6523H50.8147C48.7293 26.6716 46.668 27.1026 44.7487 27.9207C42.8294 28.7388 41.0896 29.9279 39.6286 31.4202C38.1677 32.9125 37.0142 34.6788 36.234 36.6181C35.4539 38.5574 35.0623 40.6318 35.0817 42.7228V363.763C35.045 367.986 36.6813 372.05 39.6314 375.063C42.5814 378.077 46.6037 379.793 50.8147 379.834H206.359C210.572 379.793 214.596 378.077 217.549 375.065C220.502 372.052 222.142 367.988 222.111 363.763V42.7228C222.145 38.498 220.505 34.4324 217.552 31.4191C214.598 28.4058 210.573 26.6913 206.359 26.6523ZM212.266 353.855C212.266 362.306 205.954 369.142 198.171 369.142H59.0216C51.2195 369.142 44.9079 362.306 44.9079 353.855V54.891C44.9079 37.6766 51.2195 36.8371 59.0216 36.8371H86.8993C88.5186 36.8371 89.8434 38.6821 89.8434 40.97V41.9571C89.8434 47.317 92.7692 47.3355 96.3574 47.3355H160.817C164.442 47.3355 167.349 47.3355 167.349 41.9571V40.97C167.349 38.6821 168.655 36.8371 170.302 36.8371H198.171C205.954 36.8371 212.266 39.125 212.266 54.891V353.855Z" fill="#263238"/>
<path d="M212.267 54.8899V353.854C212.267 362.305 205.956 369.141 198.172 369.141H59.0228C51.2208 369.141 44.9092 362.305 44.9092 353.854V54.8899C44.9092 37.6754 51.2208 36.8359 59.0228 36.8359H86.9005C88.5198 36.8359 89.8447 38.681 89.8447 40.9689V41.956C89.8447 47.3159 92.7705 47.3343 96.3587 47.3343H160.818C164.443 47.3343 167.35 47.3343 167.35 41.956V40.9689C167.35 38.681 168.657 36.8359 170.304 36.8359H198.172C205.956 36.8359 212.267 39.1238 212.267 54.8899Z" fill="#FFFBF0"/>
<path d="M82.0879 43.5537L81.8211 43.8212L81.6647 43.978C80.9751 43.2908 80.0424 42.905 79.0701 42.905C78.0978 42.905 77.1651 43.2908 76.4755 43.978L76.3283 43.8304C76.244 43.7367 76.155 43.6474 76.0615 43.5629C76.1811 43.4614 76.2915 43.3507 76.4111 43.2585C76.6508 43.0588 76.9133 42.8884 77.1932 42.7511C77.5256 42.5877 77.8784 42.4698 78.2421 42.4005L78.7573 42.3359H79.2173H79.5761C79.891 42.3752 80.1999 42.4526 80.4962 42.5666C80.7185 42.651 80.9338 42.7528 81.1402 42.871C81.3605 42.9932 81.5671 43.1385 81.7567 43.3046L82.0419 43.5537H82.0879Z" fill="#DBDBDB"/>
<path d="M77.3314 44.8096C77.1842 44.6712 77.0462 44.5236 76.9082 44.3852C77.3633 43.8893 77.9735 43.5639 78.6379 43.4627C79.1093 43.3951 79.5898 43.4382 80.0417 43.5887C80.4935 43.7392 80.9043 43.9929 81.2417 44.3299L80.8092 44.7634C80.5817 44.5331 80.3108 44.3502 80.0124 44.2254C79.7139 44.1005 79.3937 44.0363 79.0703 44.0363C78.747 44.0363 78.4268 44.1005 78.1283 44.2254C77.8298 44.3502 77.559 44.5331 77.3314 44.7634V44.8096Z" fill="#DBDBDB"/>
<path d="M80.3853 45.2524L79.962 45.6768C79.7244 45.4413 79.4037 45.3092 79.0696 45.3092C78.7355 45.3092 78.4148 45.4413 78.1771 45.6768L77.7539 45.2524C77.9253 45.0767 78.1299 44.937 78.3559 44.8417C78.5818 44.7464 78.8245 44.6973 79.0696 44.6973C79.3147 44.6973 79.5574 44.7464 79.7833 44.8417C80.0092 44.937 80.2139 45.0767 80.3853 45.2524Z" fill="#DBDBDB"/>
<path d="M79.4589 46.0632C79.459 46.1137 79.4489 46.1636 79.4294 46.2101C79.4098 46.2566 79.3811 46.2988 79.3451 46.334C79.309 46.3693 79.2663 46.3969 79.2194 46.4154C79.1726 46.4338 79.1225 46.4427 79.0721 46.4415C78.9719 46.4415 78.8759 46.4016 78.8051 46.3307C78.7342 46.2598 78.6944 46.1636 78.6944 46.0632C78.6932 46.0128 78.7021 45.9626 78.7205 45.9157C78.7389 45.8687 78.7666 45.8259 78.8017 45.7898C78.8369 45.7537 78.879 45.725 78.9254 45.7054C78.9718 45.6858 79.0217 45.6758 79.0721 45.6758C79.1229 45.6758 79.1732 45.6858 79.2201 45.7053C79.2671 45.7247 79.3097 45.7533 79.3456 45.7893C79.3816 45.8252 79.41 45.868 79.4295 45.915C79.4489 45.962 79.4589 46.0124 79.4589 46.0632Z" fill="#DBDBDB"/>
<path d="M55.8301 44.3754C55.8283 44.1539 55.8923 43.9368 56.0139 43.7518C56.1355 43.5669 56.3093 43.4224 56.5131 43.3367C56.7169 43.2511 56.9415 43.2282 57.1583 43.271C57.3751 43.3138 57.5743 43.4203 57.7305 43.5769C57.8868 43.7336 57.993 43.9334 58.0357 44.1507C58.0783 44.3681 58.0555 44.5933 57.9701 44.7977C57.8847 45.002 57.7406 45.1763 57.5561 45.2982C57.3716 45.4202 57.1551 45.4843 56.9342 45.4825C56.6421 45.4801 56.3627 45.3627 56.1561 45.1556C55.9496 44.9485 55.8325 44.6683 55.8301 44.3754Z" fill="#DBDBDB"/>
<path d="M59.3164 44.3755C59.3146 44.1543 59.3784 43.9376 59.4996 43.7528C59.6208 43.5681 59.794 43.4235 59.9973 43.3376C60.2005 43.2517 60.4247 43.2283 60.6412 43.2703C60.8578 43.3124 61.057 43.4179 61.2136 43.5737C61.3702 43.7294 61.4772 43.9283 61.5209 44.1451C61.5646 44.3619 61.5431 44.5868 61.4591 44.7913C61.3751 44.9958 61.2324 45.1707 61.0492 45.2937C60.8659 45.4168 60.6503 45.4825 60.4297 45.4825C60.136 45.4825 59.8543 45.3662 59.6457 45.1588C59.4372 44.9515 59.3189 44.6699 59.3164 44.3755Z" fill="#DBDBDB"/>
<path d="M62.8116 44.3755C62.8097 44.1543 62.8735 43.9376 62.9947 43.7528C63.1159 43.5681 63.2891 43.4235 63.4924 43.3376C63.6956 43.2517 63.9198 43.2283 64.1363 43.2703C64.3529 43.3124 64.5521 43.4179 64.7087 43.5737C64.8653 43.7294 64.9723 43.9283 65.016 44.1451C65.0597 44.3619 65.0382 44.5868 64.9542 44.7913C64.8702 44.9958 64.7275 45.1707 64.5443 45.2937C64.361 45.4168 64.1454 45.4825 63.9248 45.4825C63.6312 45.4825 63.3494 45.3662 63.1409 45.1588C62.9324 44.9515 62.814 44.6699 62.8116 44.3755Z" fill="#DBDBDB"/>
<path d="M66.3086 44.3754C66.3068 44.1539 66.3708 43.9368 66.4924 43.7518C66.614 43.5669 66.7878 43.4224 66.9916 43.3367C67.1954 43.2511 67.42 43.2282 67.6368 43.271C67.8536 43.3138 68.0528 43.4203 68.2091 43.5769C68.3653 43.7336 68.4715 43.9334 68.5142 44.1507C68.5569 44.3681 68.534 44.5933 68.4486 44.7977C68.3632 45.002 68.2191 45.1763 68.0346 45.2982C67.8502 45.4202 67.6337 45.4843 67.4127 45.4825C67.1206 45.4801 66.8412 45.3627 66.6347 45.1556C66.4281 44.9485 66.311 44.6683 66.3086 44.3754Z" fill="#DBDBDB"/>
<path d="M69.8028 44.3754C69.801 44.1539 69.8649 43.9368 69.9866 43.7518C70.1082 43.5669 70.2819 43.4224 70.4857 43.3367C70.6895 43.2511 70.9141 43.2282 71.1309 43.271C71.3477 43.3138 71.547 43.4203 71.7032 43.5769C71.8595 43.7336 71.9657 43.9334 72.0083 44.1507C72.051 44.3681 72.0282 44.5933 71.9428 44.7977C71.8574 45.002 71.7133 45.1763 71.5288 45.2982C71.3443 45.4202 71.1278 45.4843 70.9068 45.4825C70.6148 45.4801 70.3353 45.3627 70.1288 45.1556C69.9223 44.9485 69.8052 44.6683 69.8028 44.3754Z" fill="#DBDBDB"/>
<path d="M199.715 46.801H190.689V42.6035H199.715V46.801ZM191.149 46.3398H199.274V43.0648H191.168L191.149 46.3398Z" fill="#DBDBDB"/>
<path d="M197.259 43.3145H191.436V46.082H197.259V43.3145Z" fill="#DBDBDB"/>
<path d="M200.528 43.5801H199.727V45.8218H200.528V43.5801Z" fill="#DBDBDB"/>
<path d="M137.383 40.6479H119.801C119.513 40.6479 119.236 40.5332 119.033 40.3291C118.829 40.1249 118.715 39.848 118.715 39.5593C118.715 39.2706 118.829 38.9937 119.033 38.7896C119.236 38.5854 119.513 38.4707 119.801 38.4707H137.383C137.526 38.4695 137.667 38.4968 137.8 38.5511C137.932 38.6054 138.052 38.6855 138.153 38.7868C138.254 38.8882 138.334 39.0087 138.388 39.1413C138.442 39.2739 138.47 39.416 138.468 39.5593C138.468 39.848 138.354 40.1249 138.15 40.3291C137.947 40.5332 137.671 40.6479 137.383 40.6479Z" fill="white"/>
<path d="M128.96 234H127.781V233.203C128.578 233.203 129.374 233.203 130.171 233.203V234H128.96ZM125.375 233.888C124.578 233.841 123.782 233.769 122.985 233.689L123.073 232.892C123.869 232.98 124.666 233.043 125.463 233.099L125.375 233.888ZM132.601 233.888L132.553 233.091C133.35 233.043 134.147 232.972 134.943 232.892L135.023 233.689C134.21 233.769 133.406 233.833 132.601 233.888ZM120.587 233.378C119.79 233.259 118.993 233.123 118.197 232.972L118.348 232.175C119.129 232.329 119.91 232.464 120.69 232.581L120.587 233.378ZM137.389 233.378L137.27 232.581C138.061 232.464 138.842 232.329 139.612 232.175L139.763 232.972C138.983 233.115 138.186 233.251 137.389 233.37V233.378ZM115.878 232.469C115.082 232.278 114.285 232.079 113.544 231.856L113.767 231.059C114.524 231.274 115.289 231.481 116.062 231.664L115.878 232.469ZM142.169 232.469L141.978 231.672C142.775 231.489 143.516 231.282 144.273 231.066L144.496 231.864C143.675 232.055 142.902 232.262 142.122 232.446L142.169 232.469ZM111.226 231.17C110.429 230.915 109.704 230.644 108.955 230.373L109.242 229.632C109.983 229.919 110.724 230.182 111.481 230.429L111.226 231.17ZM146.75 231.17L146.496 230.421C147.244 230.166 147.993 229.895 148.734 229.624L149.013 230.365C148.264 230.588 147.515 230.859 146.75 231.114V231.17ZM106.716 229.464C105.975 229.145 105.25 228.811 104.525 228.46L104.876 227.742C105.585 228.085 106.302 228.42 107.035 228.731L106.716 229.464ZM151.244 229.464L150.925 228.739C151.65 228.42 152.367 228.093 153.076 227.742L153.427 228.46C152.726 228.779 151.977 229.074 151.244 229.392V229.464ZM102.374 227.368C101.673 226.985 100.972 226.571 100.279 226.18L100.685 225.494C101.37 225.901 102.056 226.292 102.757 226.666L102.374 227.368ZM155.562 227.368L155.188 226.666C155.883 226.289 156.568 225.898 157.243 225.494L157.657 226.18C156.964 226.507 156.271 226.905 155.562 227.288V227.368ZM98.2394 224.793C97.5622 224.346 96.901 223.892 96.2477 223.422L96.7177 222.776C97.3551 223.238 98.0084 223.693 98.6776 224.123L98.2394 224.793ZM159.697 224.793L159.259 224.123C159.92 223.685 160.565 223.238 161.211 222.776L161.673 223.422C161.027 223.924 160.366 224.378 159.697 224.793ZM163.601 221.971L163.107 221.349C163.728 220.855 164.334 220.353 164.939 219.835L165.457 220.44C164.851 220.998 164.23 221.509 163.601 222.003V221.971ZM94.2878 221.971C93.6584 221.477 93.037 220.959 92.4235 220.44L92.9414 219.835C93.5469 220.366 94.1603 220.868 94.7818 221.341L94.2878 221.971ZM167.21 218.83L166.66 218.248C167.242 217.706 167.807 217.156 168.357 216.59L168.931 217.148C168.405 217.754 167.863 218.312 167.25 218.862L167.21 218.83ZM90.631 218.83C90.0494 218.28 89.4757 217.714 88.9101 217.14L89.4837 216.582C90.0334 217.148 90.5991 217.706 91.1807 218.248L90.631 218.83ZM170.58 215.386L169.99 214.852C170.516 214.262 171.034 213.665 171.536 213.051L172.149 213.561C171.679 214.215 171.153 214.82 170.62 215.418L170.58 215.386ZM87.2609 215.386C86.7271 214.789 86.2013 214.175 85.6675 213.561L86.281 213.051C86.7829 213.665 87.3008 214.262 87.8345 214.852L87.2609 215.386ZM173.647 211.664L173.01 211.185C173.488 210.556 173.95 209.91 174.404 209.256L175.057 209.711C174.635 210.444 174.173 211.058 173.687 211.696L173.647 211.664ZM84.2016 211.664C83.7156 211.026 83.2456 210.372 82.7914 209.711L83.4447 209.264C83.8988 209.91 84.3609 210.556 84.839 211.185L84.2016 211.664ZM81.4689 207.678C81.0387 207 80.6324 206.307 80.234 205.613L80.9272 205.215C81.3176 205.908 81.7239 206.586 82.1381 207.256L81.4689 207.678ZM176.38 207.678L175.71 207.256C176.133 206.586 176.507 205.9 176.929 205.215L177.623 205.605C177.264 206.355 176.85 207.048 176.42 207.726L176.38 207.678ZM79.0868 203.501C78.7203 202.791 78.3698 202.074 78.0351 201.341L78.7601 201.006C79.0868 201.723 79.4373 202.441 79.7959 203.142L79.0868 203.501ZM178.77 203.501L178.061 203.134C178.419 202.433 178.77 201.715 179.104 200.998L179.821 201.325C179.513 202.09 179.176 202.826 178.81 203.533L178.77 203.501ZM77.1189 199.188C76.8082 198.439 76.5214 197.69 76.2505 196.932L76.9994 196.661C77.2703 197.411 77.5571 198.152 77.8519 198.885L77.1189 199.188ZM180.825 199.141L180.092 198.846C180.387 198.112 180.674 197.371 180.937 196.622L181.694 196.885C181.407 197.69 181.128 198.399 180.825 199.141ZM75.4857 194.653C75.2467 193.887 75.0236 193.114 74.8165 192.333L75.6132 192.126C75.8124 192.923 76.0354 193.656 76.2665 194.413L75.4857 194.653ZM182.459 194.597L181.662 194.358C181.893 193.608 182.116 192.843 182.315 192.078L183.112 192.277C182.913 193.058 182.69 193.831 182.459 194.597ZM74.2508 189.989C74.0835 189.192 73.9321 188.395 73.7887 187.598L74.5854 187.462C74.7209 188.259 74.8723 189.057 75.0396 189.798L74.2508 189.989ZM183.677 189.933L182.881 189.766C183.048 188.969 183.199 188.212 183.335 187.43L184.132 187.566C184.004 188.363 183.853 189.152 183.677 189.933ZM73.4302 185.238C73.3267 184.441 73.239 183.644 73.1753 182.847L73.972 182.775C74.0437 183.572 74.1234 184.369 74.2269 185.166L73.4302 185.238ZM184.498 185.182L183.701 185.079C183.805 184.282 183.885 183.484 183.956 182.687L184.753 182.751C184.689 183.588 184.594 184.393 184.498 185.182ZM73.0558 180.439C73.0558 179.642 73.008 178.845 73 178.048H73.7967C73.7967 178.845 73.7967 179.642 73.8525 180.439H73.0558ZM184.952 180.383H184.156C184.156 179.586 184.203 178.789 184.203 177.992V177.88H185V177.992C184.96 178.781 184.944 179.586 184.912 180.383H184.952ZM73.8445 175.648H73.0478C73.0478 174.851 73.1275 174.054 73.1912 173.257L73.9879 173.329C73.8923 174.07 73.8525 174.859 73.8047 175.648H73.8445ZM184.148 175.489C184.148 174.692 184.06 173.895 183.996 173.098L184.793 173.026C184.865 173.823 184.92 174.62 184.952 175.417L184.148 175.489ZM74.2429 170.921L73.4462 170.818C73.5497 170.02 73.6692 169.223 73.8047 168.426L74.6014 168.562C74.4261 169.343 74.3066 170.132 74.203 170.921H74.2429ZM183.741 170.754C183.64 169.962 183.521 169.181 183.383 168.41L184.179 168.267C184.315 169.064 184.442 169.861 184.546 170.658L183.741 170.754ZM75.0475 166.234L74.2508 166.067C74.4261 165.269 74.6093 164.472 74.8165 163.723L75.6132 163.922C75.3582 164.688 75.175 165.461 75.0077 166.234H75.0475ZM182.921 166.075C182.753 165.277 182.562 164.528 182.363 163.763L183.16 163.564C183.367 164.334 183.558 165.115 183.733 165.907L182.921 166.075ZM76.2426 161.642L75.4459 161.403C75.6849 160.627 75.9504 159.862 76.2426 159.107L76.9915 159.379C76.6967 160.128 76.4497 160.877 76.2426 161.642ZM181.694 161.483C181.455 160.686 181.208 159.976 180.937 159.227L181.686 158.964C181.957 159.713 182.22 160.479 182.482 161.244L181.694 161.483ZM77.836 157.154L77.095 156.852C77.3978 156.102 77.7165 155.369 78.0511 154.635L78.7761 154.97C78.4335 155.688 78.1148 156.413 77.836 157.154ZM180.052 157.035C179.75 156.301 179.439 155.584 179.104 154.867L179.829 154.532C180.164 155.255 180.483 155.988 180.785 156.732L180.052 157.035ZM79.7959 152.85L79.0948 152.483C79.4612 151.766 79.8436 151.064 80.234 150.363L80.9272 150.753C80.5368 151.455 80.1623 152.116 79.7959 152.826V152.85ZM178.061 152.73C177.702 152.029 177.328 151.335 176.929 150.65L177.623 150.251C178.021 150.953 178.419 151.654 178.77 152.372L178.061 152.73ZM82.1461 148.744L81.4769 148.322C81.8991 147.636 82.3453 146.967 82.7994 146.305L83.4527 146.76C83.0066 147.349 82.5684 148.019 82.1461 148.689V148.744ZM175.71 148.649C175.288 147.979 174.858 147.318 174.404 146.664L175.065 146.21C175.519 146.871 175.965 147.549 176.388 148.218L175.71 148.649ZM84.8868 144.83L84.2096 144.28C84.6876 143.643 85.1895 143.013 85.6994 142.391L86.3128 142.893C85.803 143.483 85.317 144.137 84.8469 144.775L84.8868 144.83ZM173.057 144.743C172.579 144.105 172.086 143.491 171.584 142.877L172.197 142.367C172.707 142.989 173.209 143.619 173.695 144.257L173.057 144.743ZM87.8584 141.092L87.2689 140.558C87.8027 139.96 88.3524 139.378 88.9181 138.804L89.4837 139.354C88.934 139.928 88.3922 140.51 87.8584 141.092ZM169.99 141.012C169.464 140.43 168.923 139.848 168.397 139.282L168.97 138.724C169.528 139.298 170.078 139.888 170.62 140.486L169.99 141.012ZM91.1807 137.696L90.6389 137.114C91.2205 136.564 91.818 136.022 92.4235 135.52L92.9494 136.118C92.3439 136.628 91.7623 137.162 91.1807 137.704V137.696ZM166.668 137.624C166.086 137.082 165.497 136.556 164.899 136.03L165.417 135.424C166.031 135.95 166.628 136.484 167.21 137.018L166.668 137.624ZM94.7818 134.595L94.2878 133.965C94.9172 133.471 95.5546 132.985 96.2079 132.514L96.6699 133.16C96.0326 133.63 95.3634 134.109 94.7818 134.603V134.595ZM163.067 134.531C162.437 134.037 161.808 133.559 161.163 133.096L161.633 132.451C162.286 132.921 162.923 133.407 163.553 133.901L163.067 134.531ZM98.6219 131.813L98.1837 131.151C98.8529 130.705 99.5301 130.282 100.223 129.868L100.63 130.553C99.9523 130.968 99.2831 131.382 98.6219 131.821V131.813ZM159.171 131.749C158.51 131.319 157.841 130.896 157.155 130.49L157.57 129.804C158.255 130.219 158.94 130.641 159.609 131.088L159.171 131.749ZM102.661 129.358L102.279 128.656C102.988 128.274 103.697 127.907 104.422 127.556L104.772 128.274C104.127 128.648 103.386 129.007 102.693 129.382L102.661 129.358ZM155.092 129.302C154.391 128.919 153.69 128.561 152.973 128.218L153.315 127.5C154.038 127.851 154.755 128.218 155.466 128.6L155.092 129.302ZM106.923 127.285L106.605 126.552C107.338 126.233 108.079 125.93 108.828 125.635L109.114 126.384C108.405 126.687 107.672 126.99 106.955 127.309L106.923 127.285ZM150.806 127.221C150.081 126.91 149.348 126.608 148.607 126.329L148.886 125.579C149.642 125.866 150.383 126.169 151.124 126.488L150.806 127.221ZM111.345 125.579L111.09 124.822C111.887 124.567 112.62 124.328 113.393 124.104L113.616 124.902C112.891 125.149 112.094 125.348 111.377 125.603L111.345 125.579ZM146.4 125.523C145.651 125.276 144.894 125.045 144.129 124.822L144.352 124.025C145.149 124.248 145.89 124.487 146.655 124.734L146.4 125.523ZM115.95 124.264L115.759 123.467C116.556 123.283 117.352 123.108 118.149 122.957L118.3 123.754C117.48 123.929 116.707 124.097 115.942 124.288L115.95 124.264ZM141.835 124.264C141.038 124.081 140.289 123.913 139.516 123.762L139.668 122.965C140.465 123.116 141.261 123.283 142.058 123.475L141.835 124.264ZM120.611 123.387L120.491 122.59C121.288 122.47 122.085 122.367 122.881 122.279L122.969 123.076C122.164 123.148 121.376 123.252 120.603 123.371L120.611 123.387ZM137.174 123.387C136.377 123.267 135.581 123.172 134.784 123.084L134.872 122.287C135.668 122.367 136.465 122.47 137.262 122.59L137.174 123.387ZM125.327 122.901L125.279 122.104C126.076 122.048 126.873 122.016 127.67 122V122.797C126.897 122.757 126.108 122.805 125.319 122.861L125.327 122.901ZM132.45 122.901C131.653 122.853 130.856 122.821 130.06 122.805V122.008C130.856 122.008 131.653 122.056 132.45 122.112V122.901Z" fill="#AE6F28"/>
<path fill-rule="evenodd" clip-rule="evenodd" d="M145.44 166.685C146.44 167.7 147.001 169.069 147.001 170.495C147.001 171.92 146.44 173.289 145.44 174.305L138.388 181.34C138.388 181.361 138.388 181.361 138.367 181.382L131.857 187.874C131.102 188.626 130.083 189.051 129.018 189.059C127.953 189.067 126.927 188.656 126.161 187.916L133.193 194.952C134.208 195.952 135.575 196.513 137 196.513C138.425 196.513 139.793 195.952 140.808 194.952L156.999 178.751V169.399C156.999 164.889 154.766 161.048 150.885 158.793L135.112 149.691C131.211 147.436 126.767 147.436 122.886 149.691L122.427 149.962C123.564 149.284 124.896 149.008 126.209 149.178C127.522 149.349 128.74 149.956 129.667 150.902L145.44 166.685Z" fill="url(#paint0_linear_16852_2899)"/>
<path fill-rule="evenodd" clip-rule="evenodd" d="M122.428 149.94L107.113 158.791C103.232 161.046 101 164.887 101 169.376V178.248L117.191 162.048C118.206 161.047 119.573 160.486 120.998 160.486C122.423 160.486 123.791 161.047 124.806 162.048L131.879 169.125L138.368 175.618C139.122 176.377 139.548 177.403 139.551 178.474C139.555 179.544 139.138 180.573 138.389 181.338L145.441 174.303C146.442 173.284 147.003 171.911 147.003 170.482C147.003 169.053 146.442 167.681 145.441 166.662L129.667 150.9C128.739 149.957 127.523 149.351 126.212 149.177C124.901 149.003 123.569 149.271 122.428 149.94Z" fill="url(#paint1_linear_16852_2899)"/>
<path fill-rule="evenodd" clip-rule="evenodd" d="M117.191 162.046L101 178.246V187.599C101 192.109 103.232 195.95 107.113 198.205L122.887 207.307C124.734 208.414 126.846 208.999 129 208.999C131.153 208.999 133.266 208.414 135.113 207.307L135.551 207.056C134.413 207.723 133.084 207.991 131.777 207.817C130.469 207.643 129.257 207.037 128.332 206.096L112.559 190.313C111.559 189.298 110.998 187.929 110.998 186.503C110.998 185.077 111.559 183.709 112.559 182.693L119.59 175.637H119.632L126.12 169.123C126.889 168.369 127.923 167.946 129 167.946C130.077 167.946 131.11 168.369 131.879 169.123L124.806 162.046C123.791 161.045 122.423 160.484 120.998 160.484C119.573 160.484 118.206 161.045 117.191 162.046Z" fill="url(#paint2_linear_16852_2899)"/>
<path fill-rule="evenodd" clip-rule="evenodd" d="M112.559 182.698C111.559 183.713 110.998 185.082 110.998 186.508C110.998 187.933 111.559 189.302 112.559 190.317L128.332 206.1C129.257 207.041 130.469 207.647 131.777 207.821C133.085 207.995 134.413 207.727 135.551 207.061L150.886 198.209C154.767 195.954 157 192.113 157 187.604V178.752L140.809 194.952C139.794 195.953 138.426 196.514 137.001 196.514C135.576 196.514 134.209 195.953 133.194 194.952L126.162 187.917L126.121 187.875L119.632 181.382C118.875 180.626 118.446 179.601 118.438 178.531C118.43 177.46 118.844 176.429 119.59 175.662L112.559 182.698Z" fill="url(#paint3_linear_16852_2899)"/>
<path d="M70.6439 111.48H70.0166V118.565H70.6439V111.48Z" fill="#C7C7C7"/>
<path d="M62 62.3926H34C24.0589 62.3926 16 70.4515 16 80.3926V108.393C16 118.334 24.0589 126.393 34 126.393H62C71.9411 126.393 80 118.334 80 108.393V80.3926C80 70.4515 71.9411 62.3926 62 62.3926Z" fill="#A36117"/>
<g clip-path="url(#clip3_16852_2899)">
<path d="M55.209 81C56.3861 81 57.4902 81.2188 58.5215 81.6562C59.5527 82.0938 60.4486 82.6979 61.209 83.4688C61.9694 84.2396 62.5736 85.1406 63.0215 86.1719C63.4694 87.2031 63.6934 88.3073 63.6934 89.4844C63.6934 90.0885 63.6309 90.6875 63.5059 91.2812C63.3809 91.875 63.1934 92.4479 62.9434 93H56.2773C55.9142 93 55.5669 92.8519 55.3154 92.59L53.6514 90.8567C53.1341 90.3178 52.275 90.309 51.7467 90.8372L48.6518 93.9322C48.1311 94.4529 47.2869 94.4529 46.7662 93.9322L41.6635 88.8295C41.1383 88.3043 40.285 88.3095 39.7663 88.8412L36.1014 92.5978C35.8505 92.855 35.5064 93 35.147 93H32.4746C32.2246 92.4479 32.0371 91.875 31.9121 91.2812C31.7871 90.6875 31.7246 90.0885 31.7246 89.4844C31.7246 88.3073 31.9434 87.2031 32.3809 86.1719C32.8184 85.1406 33.4225 84.2448 34.1934 83.4844C34.9642 82.724 35.8652 82.1198 36.8965 81.6719C37.9277 81.224 39.0319 81 40.209 81C41.3444 81 42.4277 81.2135 43.459 81.6406C44.4902 82.0677 45.4121 82.6823 46.2246 83.4844L47.709 84.9844L49.1934 83.4844C49.9954 82.6823 50.9121 82.0677 51.9434 81.6406C52.9746 81.2135 54.0632 81 55.209 81ZM53.709 95H61.6777L61.459 95.25C61.3861 95.3333 61.3079 95.4219 61.2246 95.5156L48.6512 108.074C48.1307 108.594 47.2873 108.594 46.7667 108.074L34.1934 95.5156C34.11 95.4323 34.0319 95.349 33.959 95.2656C33.8861 95.1823 33.8132 95.0938 33.7402 95H37.1732C37.517 95 37.8476 94.8672 38.0958 94.6293L39.7666 93.0281C40.2903 92.5263 41.1191 92.5351 41.6319 93.048L46.7662 98.1822C47.2869 98.7029 48.1311 98.7029 48.6518 98.1822L51.8269 95.007C52.3233 94.5107 53.1195 94.4842 53.6478 94.9464L53.709 95Z" fill="#FFF6DF"/>
</g>
<path d="M211 8H183C173.059 8 165 16.0589 165 26V54C165 63.9411 173.059 72 183 72H211C220.941 72 229 63.9411 229 54V26C229 16.0589 220.941 8 211 8Z" fill="#A36117"/>
<path d="M183.667 28C182.959 28 182.281 28.281 181.781 28.781C181.281 29.2811 181 29.9594 181 30.6667V48C181 48.7072 181.281 49.3855 181.781 49.8856C182.281 50.3857 182.959 50.6667 183.667 50.6667H184.448C184.08 51.0349 184.08 51.6318 184.448 52L184.724 52.276C185.245 52.7966 186.089 52.7966 186.609 52.276L188.219 50.6667H190.261C191.037 50.6667 191.667 50.0374 191.667 49.2612V41.4055C191.667 40.6293 191.037 40 190.261 40H185.072C184.296 40 183.667 39.3707 183.667 38.5945V32.0722C183.667 31.2959 184.296 30.6667 185.072 30.6667H198.333V32C198.333 32.7364 198.93 33.3333 199.667 33.3333C200.403 33.3333 201 32.7364 201 32V30.6667C201 29.9594 200.719 29.2811 200.219 28.781C199.719 28.281 199.041 28 198.333 28H183.667ZM185 44H187.672V46.672H185V44Z" fill="#FFF6DF"/>
<path d="M210.61 36.433C210.183 35.3658 209.149 34.666 208 34.666H198C196.851 34.666 195.817 35.3658 195.39 36.433L193.201 41.906C193.068 42.2381 193 42.5924 193 42.9501V51.3327C193 52.0691 193.597 52.666 194.333 52.666H194.667C195.219 52.666 195.667 52.2183 195.667 51.666C195.667 51.1137 196.114 50.666 196.667 50.666H209.333C209.886 50.666 210.333 51.1137 210.333 51.666C210.333 52.2183 210.781 52.666 211.333 52.666H211.667C212.403 52.666 213 52.0691 213 51.3327V42.9501C213 42.5924 212.932 42.2381 212.799 41.906L210.61 36.433ZM209.164 39.9993H196.836L197.903 37.3327H208.097L209.164 39.9993ZM197 43.9993H199.672V46.6713H197V43.9993ZM209.005 43.9993V46.6713H206.333V43.9993H209.005Z" fill="#FFF6DF"/>
<path d="M218.29 250.393H190.29C180.349 250.393 172.29 258.451 172.29 268.393V296.393C172.29 306.334 180.349 314.393 190.29 314.393H218.29C228.231 314.393 236.29 306.334 236.29 296.393V268.393C236.29 258.451 228.231 250.393 218.29 250.393Z" fill="#A36117"/>
<path d="M216.375 288.573V280.132L204.857 286.391C204.428 286.63 203.975 286.749 203.498 286.749C203.021 286.749 202.568 286.63 202.139 286.391L190.049 279.81C189.787 279.667 189.602 279.488 189.494 279.273C189.386 279.059 189.333 278.82 189.334 278.558C189.335 278.296 189.389 278.057 189.496 277.843C189.602 277.628 189.787 277.449 190.049 277.306L202.139 270.725C202.354 270.606 202.574 270.516 202.801 270.456C203.028 270.396 203.261 270.366 203.498 270.367C203.736 270.368 203.968 270.398 204.196 270.457C204.424 270.516 204.645 270.606 204.857 270.725L218.485 278.165C218.723 278.284 218.908 278.457 219.04 278.684C219.172 278.911 219.237 279.155 219.236 279.417V288.573C219.236 288.979 219.099 289.319 218.824 289.593C218.549 289.868 218.21 290.005 217.805 290.004C217.401 290.003 217.061 289.866 216.787 289.592C216.512 289.318 216.375 288.979 216.375 288.573ZM202.139 294.976L194.985 291.113C194.508 290.85 194.139 290.493 193.877 290.04C193.614 289.587 193.483 289.098 193.483 288.573V283.136L202.139 287.822C202.568 288.06 203.021 288.18 203.498 288.18C203.975 288.18 204.428 288.06 204.857 287.822L213.513 283.136V288.573C213.513 289.098 213.382 289.587 213.12 290.04C212.857 290.493 212.488 290.85 212.011 291.113L204.857 294.976C204.643 295.095 204.422 295.185 204.196 295.245C203.97 295.305 203.738 295.334 203.498 295.333C203.259 295.332 203.026 295.303 202.8 295.245C202.574 295.186 202.354 295.097 202.139 294.976Z" fill="#FFF6DF"/>
<path d="M62 269H34C24.0589 269 16 277.059 16 287V315C16 324.941 24.0589 333 34 333H62C71.9411 333 80 324.941 80 315V287C80 277.059 71.9411 269 62 269Z" fill="#A36117"/>
<path d="M34.9111 289.409C34.9111 288.984 35.0797 288.577 35.3798 288.277C35.6798 287.977 36.0868 287.809 36.5111 287.809C36.9355 287.809 37.3424 287.977 37.6425 288.277C37.9426 288.577 38.1111 288.984 38.1111 289.409H58.9111C59.3355 289.409 59.7424 289.577 60.0425 289.877C60.3426 290.177 60.5111 290.584 60.5111 291.009C60.5111 291.433 60.3426 291.84 60.0425 292.14C59.7424 292.44 59.3355 292.609 58.9111 292.609H38.1111V312.609C38.1111 312.821 38.0268 313.024 37.8768 313.174C37.7268 313.324 37.5233 313.409 37.3111 313.409H35.7111C35.499 313.409 35.2955 313.324 35.1454 313.174C34.9954 313.024 34.9111 312.821 34.9111 312.609V289.409ZM39.7111 295.009C39.7111 294.796 39.7954 294.593 39.9454 294.443C40.0955 294.293 40.299 294.209 40.5111 294.209H58.1111C58.3233 294.209 58.5268 294.293 58.6768 294.443C58.8268 294.593 58.9111 294.796 58.9111 295.009V306.209C58.9111 307.269 58.4897 308.287 57.7396 309.037C56.9894 309.787 55.972 310.209 54.9111 310.209H43.7111C42.6503 310.209 41.6329 309.787 40.8827 309.037C40.1326 308.287 39.7111 307.269 39.7111 306.209V295.009ZM44.5111 306.209C44.5111 306.421 44.5954 306.624 44.7454 306.774C44.8955 306.924 45.099 307.009 45.3111 307.009H46.9111C47.1233 307.009 47.3268 306.924 47.4768 306.774C47.6268 306.624 47.7111 306.421 47.7111 306.209V304.609C47.7111 304.396 47.7954 304.193 47.9454 304.043C48.0955 303.893 48.299 303.809 48.5111 303.809H50.1111C50.3233 303.809 50.5268 303.893 50.6768 304.043C50.8268 304.193 50.9111 304.396 50.9111 304.609V306.209C50.9111 306.421 50.9954 306.624 51.1454 306.774C51.2955 306.924 51.499 307.009 51.7111 307.009H53.3111C53.5233 307.009 53.7268 306.924 53.8768 306.774C54.0268 306.624 54.1111 306.421 54.1111 306.209V302.129C54.1112 301.902 54.0633 301.679 53.9706 301.473C53.878 301.266 53.7426 301.082 53.5735 300.932L49.8423 297.617C49.6959 297.487 49.5069 297.415 49.3111 297.415C49.1153 297.415 48.9263 297.487 48.7799 297.617L45.0487 300.929C44.8792 301.079 44.7436 301.264 44.651 301.471C44.5583 301.678 44.5106 301.902 44.5111 302.129V306.209Z" fill="#FFF6DF"/>
<path d="M332.751 171.916H258.095V187.419H332.751V171.916Z" fill="#C7C7C7"/>
<path d="M278.13 187.291L276.034 207.104L250.23 392.572H242.845L263.211 207.104L264.871 187.291H278.13Z" fill="#C7C7C7"/>
<path d="M348.011 392.572H340.615L314.811 207.104L312.715 187.291H325.973L327.633 207.104L348.011 392.572Z" fill="#C7C7C7"/>
<path d="M335.539 327.326H253.189V331.978H335.539V327.326Z" fill="#C7C7C7"/>
<path d="M263.214 206.4H276.036L278.132 187.291H264.874L263.214 206.4Z" fill="#A6A6A6"/>
<path d="M327.633 206.4H314.811L312.715 187.291H325.973L327.633 206.4Z" fill="#A6A6A6"/>
<path d="M219.203 350.926C221.82 350.595 286.432 319.707 288.156 316.965C288.815 315.898 284.878 306.232 279.781 294.645C278.717 292.148 277.536 289.566 276.355 286.962C268.693 270.009 260.17 252.201 260.17 252.201L216.894 272.74L234.26 306.936L238.069 314.404C238.069 314.404 218.607 337.323 217.043 340.534C215.478 343.746 216.585 351.246 219.203 350.926Z" fill="#EB9481"/>
<path d="M288.153 316.965C286.43 319.707 221.818 350.595 219.2 350.926C216.583 351.257 215.487 343.777 217.072 340.577C217.966 338.731 224.755 330.409 230.373 323.644H230.522C221.659 335.06 216.689 346.05 283.014 302.07C286.398 310.126 288.664 316.165 288.153 316.965Z" fill="#263238"/>
<path d="M247.858 213.793C248.283 226.138 280.004 291.947 280.004 291.947L234.301 312.369C234.301 312.369 196.803 239.421 199.921 212.076C202.581 188.901 260.722 146.042 270.065 133.964C271.448 132.172 270.97 124.959 270.97 124.959H308.734V133.964C294.316 164.65 251.188 201.459 247.985 212.257C247.87 212.753 247.827 213.263 247.858 213.772V213.793Z" fill="#37474F"/>
<path d="M234.674 303.384C242.122 299.799 239.994 300.727 247.496 297.227C251.188 295.51 269.704 286.846 273.407 285.811C273.424 285.809 273.442 285.813 273.458 285.823C273.473 285.832 273.486 285.846 273.493 285.862C273.5 285.879 273.501 285.897 273.497 285.915C273.493 285.933 273.484 285.948 273.47 285.96C270.278 288.094 251.561 296.342 247.847 297.985C240.25 301.356 242.399 300.311 234.759 303.597C234.744 303.607 234.728 303.613 234.711 303.615C234.693 303.618 234.676 303.616 234.659 303.611C234.643 303.606 234.627 303.597 234.615 303.585C234.602 303.574 234.592 303.559 234.586 303.543C234.579 303.527 234.576 303.509 234.577 303.492C234.578 303.474 234.583 303.457 234.592 303.442C234.6 303.427 234.612 303.414 234.626 303.404C234.64 303.394 234.657 303.387 234.674 303.384Z" fill="#263238"/>
<path d="M299.201 140.429C287.807 157.849 275.062 174.341 261.085 189.754C257.67 193.51 254.148 197.148 250.625 200.797C247.635 203.881 244.603 207.306 243.858 211.691C243.038 216.577 244.922 221.443 246.454 225.988C248.125 231.003 249.795 236.017 251.572 241C253.498 246.335 255.52 251.669 257.797 256.919C258.968 259.597 266.055 272.72 267.374 275.334C268.023 276.636 268.694 277.938 269.375 279.229C269.715 279.869 272.131 284.307 272.471 284.948C272.588 285.161 272.897 285.428 272.609 284.884C271.95 283.667 269.258 278.642 268.64 277.415C266.214 272.55 258.212 257.068 256.191 252.022C254.169 246.975 252.285 241.725 250.498 236.519C248.71 231.312 246.89 226.223 245.379 220.995C244.497 218.329 244.136 215.518 244.315 212.715C244.659 210.019 245.734 207.469 247.422 205.342C250.476 201.245 254.467 197.767 257.946 194.033C265.118 186.287 271.975 178.242 278.515 169.898C285.952 160.469 292.899 150.661 299.329 140.514C299.371 140.429 299.254 140.354 299.201 140.429Z" fill="#263238"/>
<path d="M274.705 390.843L329.356 390.16C329.356 390.16 315.14 185.306 320.301 179.149C332.612 164.393 330.644 144.719 322.365 124.959H280.068C280.068 124.959 282.089 154.962 281.898 155.826C268.937 212.705 274.705 390.843 274.705 390.843Z" fill="#37474F"/>
<path d="M279.089 136.61C279.515 141.944 279.302 151.152 282.398 151.291C285.495 151.429 284.952 140.216 285.037 137.644C285.112 135.308 285.92 135.628 286.006 138.381C286.24 145.849 286.006 152.454 282.09 152.144C278.174 151.835 278.163 140.248 278.259 137.602C278.302 136.247 278.961 134.924 279.089 136.61Z" fill="#263238"/>
<path d="M282.196 151.642C282.383 153.525 282.344 155.424 282.079 157.297C282.026 157.457 281.43 157.297 281.366 157.212C280.994 156.433 281.292 152.763 281.185 151.77C281.178 151.641 281.22 151.514 281.303 151.414C281.386 151.315 281.503 151.251 281.631 151.235C281.759 151.218 281.889 151.251 281.994 151.327C282.098 151.403 282.171 151.515 282.196 151.642Z" fill="#263238"/>
<path d="M280.886 158.26C279.567 162.955 278.215 171.938 278.524 174.264C278.524 174.478 278.875 174.542 278.918 174.318C279.343 171.8 281.216 159.7 281.397 158.42C281.578 157.14 281.248 156.948 280.886 158.26Z" fill="#263238"/>
<path d="M289.017 161.928C288.408 161.316 287.749 160.756 287.048 160.253C286.356 159.709 285.654 159.186 284.92 158.663C283.451 157.596 281.93 156.679 280.387 155.761C278.844 154.844 277.333 154.033 275.769 153.243C274.205 152.454 272.385 151.781 270.736 150.949C270.651 150.949 270.565 151.045 270.65 151.099C272.215 151.963 273.651 153.04 275.173 153.99C276.695 154.94 278.195 155.911 279.717 156.86C281.238 157.81 282.664 158.749 284.164 159.666C284.941 160.146 285.729 160.605 286.527 161.075C287.244 161.538 287.991 161.955 288.761 162.323C289.006 162.451 289.155 162.12 289.017 161.928Z" fill="#263238"/>
<path d="M319.896 342.83C319.187 335.233 318.556 327.637 318.002 320.04C316.853 304.839 315.934 289.621 315.246 274.385C314.558 259.149 314.101 243.913 313.874 228.677C313.767 221.052 313.714 213.427 313.714 205.801C313.714 198.237 313.661 188.143 314.054 180.589C314.257 176.748 321.003 173.782 322.376 162.601C323.615 154.659 322.505 146.528 319.183 139.213C319.183 139.106 319.002 139.213 319.045 139.288C321.746 145.57 322.868 152.421 322.312 159.24C322.111 162.675 321.394 166.06 320.184 169.28C318.364 173.782 313.905 177.453 313.671 179.842C313.331 183.427 313.278 186.522 313.224 190.107C313.182 193.848 313.15 197.586 313.129 201.32C313.086 208.938 313.107 216.56 313.193 224.185C313.356 239.357 313.753 254.522 314.384 269.68C315.016 284.838 315.885 299.985 316.991 315.121C318.055 330.251 319.439 357.597 321.024 372.737C321.205 374.465 321.407 376.183 321.663 377.911C321.663 378.093 322.003 378.05 321.993 377.858C321.546 370.229 320.588 350.405 319.896 342.83Z" fill="#263238"/>
<path d="M264.256 82.503C264.248 82.6217 264.284 82.7391 264.357 82.8333C264.429 82.9275 264.533 82.9921 264.65 83.0152L266.629 83.1539C268.416 78.502 270.332 74.8103 269.821 76.2507C269.056 78.5146 268.636 80.8815 268.576 83.2712L272.492 83.4633C274.045 75.2904 276.025 69.2195 275.897 71.0973C275.397 78.6407 275.844 81.0733 276.365 83.666C285.836 84.1141 298.253 84.5622 307.224 84.7329C308.288 80.2091 309.171 75.3118 309.352 75.6639C310.576 78.2139 310.916 81.9269 310.937 84.7756C313.8 84.7756 316.088 84.7756 317.471 84.6689C317.471 84.6689 318.141 80.8706 318.237 79.6223C318.495 76.4123 318.16 73.1821 317.247 70.0944C316.169 67.0116 314.778 64.0478 313.097 61.2494V61.1853C312.073 59.3189 311.269 57.3387 310.703 55.2851C310.325 53.7985 310.079 52.281 309.969 50.7506C309.554 45.1704 306.415 40.3371 301.18 38.8541C291.294 29.5076 281.388 33.4233 278.398 40.5825C278.11 41.2867 277.834 42.0869 277.557 42.9511C276.546 46.152 275.642 50.4198 274.801 53.6207C274.492 54.8931 274.101 56.144 273.63 57.3657C271.066 63.1485 265.309 66.4561 264.256 82.503Z" fill="#263238"/>
<path d="M303.381 40.2978C305.046 41.0679 306.483 42.2602 307.549 43.7571C308.614 45.254 309.272 47.0037 309.457 48.8334C309.613 51.195 310.074 53.5263 310.829 55.7686C311.832 57.996 313.167 60.0574 314.788 61.8822C317.214 64.9017 318.906 67.8998 319.278 71.9009C319.767 76.1554 319.365 80.4652 318.097 84.5549C319.144 80.2326 319.3 75.7415 318.555 71.3568C317.799 66.9396 315.309 64.1548 312.755 60.7833C310.716 58.1684 309.418 55.0499 308.999 51.7569C308.744 49.7403 308.776 47.6491 307.935 45.7499C306.977 43.4773 305.051 42.0369 303.147 40.7566C303.086 40.7255 303.04 40.6715 303.019 40.6064C302.998 40.5414 303.004 40.4707 303.035 40.4098C303.066 40.349 303.12 40.303 303.185 40.282C303.25 40.261 303.32 40.2667 303.381 40.2978Z" fill="#263238"/>
<path d="M267.767 63.5639C270.182 60.3631 272.715 57.7064 274.152 53.78C275.45 50.2057 276.195 46.418 277.514 42.8438H277.599C275.567 49.2455 275.173 55.6472 271.076 60.9819C268.852 63.884 266.628 66.5727 265.171 70.051C263.677 73.6947 262.893 77.5918 262.862 81.5314C262.862 81.6701 262.681 81.6594 262.67 81.5314C262.052 75.1124 263.872 68.6959 267.767 63.5639Z" fill="#263238"/>
<path d="M301.114 38.2254C299.731 37.7026 298.412 29.9459 303.498 26.2436C308.584 22.5412 315.107 26.777 312.373 33.1361C310.649 37.1478 304.051 39.3137 301.114 38.2254Z" fill="#263238"/>
<path d="M310.618 25.7949C312.129 27.0476 313.162 28.785 313.544 30.7136C313.751 31.6083 313.717 32.5421 313.446 33.4194C313.175 34.2968 312.676 35.0862 312.001 35.7069C310.574 36.9822 308.826 37.8419 306.946 38.1929C305.994 38.3961 305.025 38.5139 304.052 38.545C303.062 38.6202 302.066 38.5117 301.115 38.2249C302.013 38.7211 303.008 39.0159 304.031 39.0891C305.051 39.194 306.08 39.1761 307.095 39.0358C309.203 38.8087 311.187 37.9243 312.767 36.5071C313.569 35.7493 314.151 34.7865 314.448 33.7224C314.708 32.6683 314.686 31.5643 314.384 30.5215C314.11 29.5182 313.635 28.5816 312.987 27.769C312.339 26.9563 311.533 26.2846 310.618 25.7949Z" fill="#263238"/>
<path d="M290.816 89.9297C280.75 110.767 267.97 133.323 255.999 136.876C244.624 140.247 222.555 112.218 215.627 104.867C213.127 102.21 233.366 86.9529 236.505 89.2682C242.411 93.632 253.051 105.518 254.839 105.102C256.627 104.686 271.503 90.4418 284.9 78.5027C293.104 71.2367 297.786 75.5045 290.816 89.9297Z" fill="#EB9481"/>
<path d="M198.07 91.6591C195.303 90.4962 173.989 89.8133 174 85.1827C174.011 80.5522 201.113 81.8432 201.113 81.8432L198.07 91.6591Z" fill="#EB9481"/>
<path d="M238.931 92.1944C235.207 87.5638 231.93 82.5919 228.695 81.6423C226.449 81.0021 202.327 82.0477 198.56 81.813C194.793 81.5783 181.343 81.941 181.034 85.2486C180.598 89.9325 196.506 89.8898 198.209 92.2798C204.072 100.549 226.364 112.765 226.364 112.765L238.931 92.1944Z" fill="#EB9481"/>
<path d="M180.682 85.3128C180.921 84.4515 181.471 83.71 182.225 83.2322C183.874 82.0693 186.034 81.9732 187.982 81.8132C190.919 81.5464 193.873 81.525 196.813 81.7492V81.8452C194.611 81.8452 192.408 81.9092 190.206 82.0906C188.188 82.1754 186.186 82.4831 184.236 83.0082C183.352 83.2456 182.553 83.726 181.927 84.3952C181.71 84.6311 181.555 84.9178 181.477 85.229C181.399 85.5403 181.4 85.8662 181.48 86.177C182.118 88.2149 186.13 88.823 187.982 89.2392C190.408 89.7833 192.919 90.2528 195.356 90.7542C195.462 90.7542 195.356 90.9356 195.302 90.9143C192.77 90.4128 190.11 90.2208 187.577 89.762C185.524 89.3885 183.321 88.9724 181.661 87.6281C181.295 87.3759 181.008 87.0239 180.834 86.6137C180.661 86.2035 180.608 85.7521 180.682 85.3128Z" fill="#263238"/>
<path d="M241.612 90.5712L219.862 115.239C219.862 115.239 244.507 141.209 255.584 138.051C266.661 134.892 286.793 103.908 292.944 84.4362C297.2 70.9713 289.879 73.3506 282.303 80.1684C274.727 86.9863 254.988 103.812 254.094 103.641C253.2 103.471 241.612 90.5712 241.612 90.5712Z" fill="#AE6F28"/>
<path opacity="0.1" d="M292.945 84.4463C286.805 103.897 266.662 134.881 255.584 138.05C250.69 139.448 243.145 135.148 236.239 129.92C247.242 117.778 276.611 88.3086 289.912 75.0464C293.657 73.7021 295.658 75.8573 292.945 84.4463Z" fill="black"/>
<path d="M227.299 118.982C230.491 115.579 242.856 101.164 245.325 97.8673C245.495 97.6326 245.388 97.4725 245.186 97.6859C235.482 107.673 230.087 115.355 227.171 118.854C227.097 118.94 227.214 119.068 227.299 118.982Z" fill="#263238"/>
<path d="M328.442 131.379L269.045 132.349L273.695 114.521C272.15 112.28 271.114 109.726 270.66 107.041C270.206 104.355 270.345 101.601 271.067 98.9752C272.482 93.7258 279.25 85.8517 283.389 80.837C293.487 68.6738 302.255 74.1793 305.054 77.3054C315.695 89.2766 328.442 131.379 328.442 131.379Z" fill="#EBEBEB"/>
<path d="M300.423 73.9062C300.423 73.9062 294.602 89.377 292.346 92.962C290.091 96.547 283.365 102.853 283.365 102.853C283.365 102.853 282.599 93.6982 283.365 88.4701C284.132 83.2421 288.579 75.7948 288.579 75.7948C287.389 76.4134 286.325 77.2493 285.44 78.2594C280.407 83.4021 271.66 93.5061 270.352 100.42C269.858 102.815 269.842 105.284 270.306 107.685C270.77 110.086 271.704 112.371 273.054 114.408L266.361 135.832L275.736 138.745L280.354 133.261L285.121 139.353L332.633 132.706L324.737 117.769C324.737 117.769 313.405 88.3101 308.925 81.9084C303.785 74.5037 300.423 73.9062 300.423 73.9062Z" fill="#AE6F28"/>
<path d="M295.359 116.816C293.341 116.223 291.291 115.745 289.219 115.386C288.155 115.216 287.144 115.098 286.091 115.013L284.591 114.906C284.037 114.906 283.526 114.906 282.92 114.906V115.002C283.441 115.002 283.984 115.184 284.463 115.269L286.027 115.504C287.091 115.674 288.091 115.845 289.134 115.995C291.209 116.304 293.273 116.635 295.348 117.008C295.444 117.008 295.465 116.848 295.359 116.816Z" fill="#263238"/>
<path d="M299.189 76.5722C298.944 77.6392 293.868 84.5317 289.037 84.297C287.452 84.2116 287.505 75.5586 287.505 75.5586L287.356 74.9185L285.377 65.9774L295.869 59.2449L297.39 58.3594C297.39 58.3594 297.774 60.8347 298.21 63.9395L298.274 64.377C298.274 64.5584 298.338 64.7184 298.359 64.8784C298.433 65.3479 298.497 65.8174 298.561 66.2868C298.625 66.7563 298.657 66.991 298.699 67.3538L298.827 68.4847C299.137 71.1687 299.257 73.8712 299.189 76.5722Z" fill="#EB9481"/>
<path d="M298.21 63.9825C297.306 66.4937 295.866 68.7769 293.991 70.673C292.117 72.5692 289.853 74.0326 287.356 74.9614L285.377 66.0204L295.869 59.2879L297.39 58.4023C297.39 58.4023 297.774 60.8777 298.21 63.9825Z" fill="#263238"/>
<path d="M273.099 49.2898C267.778 64.4725 276.291 69.3805 279.483 70.5221C282.441 71.5891 292.678 74.7259 299.52 60.1727C306.362 45.6195 301.01 38.3429 294.359 35.6328C287.708 32.9227 278.408 34.1071 273.099 49.2898Z" fill="#EB9481"/>
<path d="M275.917 48.8314C276.27 48.8728 276.626 48.8942 276.981 48.8954C277.37 48.9758 277.775 48.9232 278.13 48.7461C278.23 48.6691 278.301 48.5618 278.334 48.4405C278.366 48.3191 278.358 48.1904 278.311 48.0739C278.182 47.8574 277.997 47.6792 277.777 47.5574C277.556 47.4356 277.307 47.3745 277.056 47.3804C276.541 47.3227 276.022 47.4555 275.598 47.7538C275.505 47.8295 275.436 47.9313 275.4 48.0463C275.365 48.1613 275.364 48.2843 275.398 48.3997C275.432 48.515 275.5 48.6177 275.592 48.6945C275.685 48.7714 275.798 48.819 275.917 48.8314Z" fill="#263238"/>
<path d="M286.357 51.2657C286.02 51.1164 285.693 50.9453 285.378 50.7536C284.995 50.5508 284.675 50.4335 284.473 50.0494C284.423 49.9316 284.414 49.8005 284.447 49.6769C284.48 49.5532 284.553 49.444 284.654 49.3665C284.872 49.239 285.12 49.1719 285.372 49.1719C285.625 49.1719 285.873 49.239 286.091 49.3665C286.563 49.5804 286.941 49.9597 287.155 50.4335C287.207 50.5467 287.225 50.6733 287.204 50.7965C287.184 50.9197 287.127 51.0339 287.04 51.1239C286.954 51.214 286.842 51.2757 286.72 51.301C286.598 51.3263 286.472 51.314 286.357 51.2657Z" fill="#263238"/>
<path d="M283.26 53.6211C283.26 53.6211 283.335 53.6958 283.314 53.7385C282.973 54.8054 282.749 56.0217 283.591 56.6619C282.462 56.2031 282.77 54.5493 283.26 53.6211Z" fill="#263238"/>
<path d="M284.527 52.801C286.251 53.1852 285.368 56.6101 283.772 56.258C282.176 55.9059 283.08 52.4916 284.527 52.801Z" fill="#263238"/>
<path d="M285.154 53.1642C285.399 53.4309 285.601 53.847 285.952 53.975C286.303 54.1031 286.761 53.847 287.123 53.5696C287.123 53.5696 287.187 53.5696 287.176 53.5696C287.016 54.2311 286.591 54.8393 285.867 54.7539C285.143 54.6686 284.888 53.9857 284.899 53.2815C284.899 53.2068 285.048 53.1001 285.154 53.1642Z" fill="#263238"/>
<path d="M277.514 51.5938C277.514 51.5938 277.418 51.5938 277.407 51.6684C277.173 52.7354 276.737 53.9304 275.684 54.0477C276.897 54.2291 277.45 52.65 277.514 51.5938Z" fill="#263238"/>
<path d="M276.844 50.2505C275.174 49.6957 274.184 53.0886 275.78 53.6114C277.376 54.1342 278.249 50.72 276.844 50.2505Z" fill="#263238"/>
<path d="M276.066 50.2718C275.747 50.3678 275.396 50.6239 275.066 50.5492C274.736 50.4745 274.523 50.0157 274.385 49.5996C274.385 49.5996 274.332 49.5996 274.321 49.5996C274.119 50.2398 274.129 50.976 274.715 51.2854C275.3 51.5948 275.832 51.1253 276.172 50.5279C276.236 50.4425 276.204 50.2291 276.066 50.2718Z" fill="#263238"/>
<path d="M277.621 57.5778C277.621 57.5778 276.972 59.0929 276.77 59.8398C276.77 59.9038 276.929 59.9892 277.174 60.0745C277.781 60.3612 278.455 60.476 279.123 60.4064C279.791 60.3369 280.427 60.0856 280.962 59.6797C280.974 59.666 280.981 59.6489 280.983 59.6308C280.984 59.6126 280.98 59.5945 280.97 59.5791C280.961 59.5636 280.947 59.5516 280.93 59.5447C280.913 59.5379 280.895 59.5366 280.877 59.541C279.748 59.9201 278.527 59.9201 277.398 59.541C277.398 59.3276 278.589 56.9804 278.462 56.9377C277.872 56.8304 277.27 56.8053 276.674 56.863C277.919 53.6621 279.664 50.6747 280.866 47.4632C280.875 47.4396 280.876 47.4136 280.867 47.3898C280.859 47.366 280.843 47.3459 280.821 47.3331C280.799 47.3203 280.774 47.3156 280.749 47.3199C280.724 47.3242 280.702 47.3371 280.686 47.3565C278.712 50.4952 277.055 53.8226 275.738 57.2898C275.599 57.7699 277.28 57.6205 277.621 57.5778Z" fill="#263238"/>
<path d="M277.324 59.8199C277.575 60.538 278.003 61.1804 278.569 61.6871C278.885 61.9589 279.281 62.12 279.697 62.1459C280.591 62.2099 280.868 61.4523 280.942 60.7482C280.986 60.3724 280.986 59.9929 280.942 59.6172C279.79 60.0765 278.52 60.1477 277.324 59.8199Z" fill="#263238"/>
<path d="M278.567 61.6883C278.884 61.9601 279.28 62.1212 279.695 62.147C280.589 62.2111 280.866 61.4535 280.94 60.7493C280.497 60.6278 280.026 60.6535 279.598 60.8228C279.17 60.9921 278.809 61.2957 278.567 61.6883Z" fill="#FF9ABB"/>
<path d="M299.349 61.0274C298.427 60.3374 297.699 59.4192 297.236 58.3626C296.774 57.3059 296.593 56.147 296.711 54.9991C294.18 53.2583 292.16 50.8714 290.858 48.0853C290.858 48.4267 291.209 50.9341 291.411 52.2037C281.739 48.3947 280.111 40.1045 280.111 40.1045C277.854 41.5058 275.941 43.3984 274.514 45.642C274.514 45.642 275.578 39.4643 279.579 35.9327C280.88 34.694 282.486 33.8248 284.232 33.4141C285.979 33.0035 287.803 33.0663 289.517 33.5961C292.11 33.4696 294.688 34.0471 296.981 35.2677C299.273 36.4884 301.194 38.3069 302.542 40.5313C307.692 48.8962 299.349 61.0274 299.349 61.0274Z" fill="#263238"/>
<path d="M284.112 49.0767C285.555 50.267 287.165 51.2376 288.89 51.9575C286.217 50.6425 283.962 48.6068 282.378 46.0786C281.707 45.0014 281.174 43.8434 280.792 42.6323C280.326 41.3232 280.123 39.9342 280.197 38.5459C280.19 38.5296 280.18 38.5155 280.165 38.5055C280.151 38.4956 280.134 38.4902 280.117 38.4902C280.099 38.4902 280.082 38.4956 280.068 38.5055C280.054 38.5155 280.043 38.5296 280.037 38.5459C279.803 39.9087 279.803 41.3015 280.037 42.6643C280.359 43.9953 280.925 45.2545 281.708 46.3773C282.39 47.3869 283.21 48.2955 284.144 49.0767" fill="#263238"/>
<path d="M296.773 59.0417C296.773 59.0417 301.402 55.0513 303.296 56.8331C305.19 58.6149 300.838 65.006 297.975 65.3047C297.613 65.3732 297.241 65.3669 296.881 65.2862C296.521 65.2055 296.181 65.0522 295.883 64.8355C295.584 64.6189 295.332 64.3434 295.143 64.026C294.954 63.7086 294.832 63.3559 294.783 62.9894L296.773 59.0417Z" fill="#EB9481"/>
<path d="M302.008 58.6374C302.008 58.6374 302.008 58.7014 302.008 58.7121C300.008 58.9788 298.624 60.4192 297.507 61.9983C297.659 61.8431 297.843 61.7227 298.046 61.6456C298.249 61.5685 298.466 61.5365 298.682 61.5517C298.899 61.5669 299.109 61.629 299.3 61.7337C299.49 61.8385 299.655 61.9834 299.784 62.1584C299.784 62.1584 299.784 62.2651 299.71 62.2437C299.417 62.0597 299.075 61.9711 298.73 61.9902C298.385 62.0093 298.054 62.1351 297.784 62.3504C297.337 62.7147 296.927 63.1221 296.56 63.5667C296.432 63.7161 296.166 63.5667 296.273 63.3747C296.837 61.006 299.465 58.232 302.008 58.6374Z" fill="#263238"/>
<path d="M308.554 80.8403C322.078 104.313 342.36 157.991 345.967 165.674C348.457 170.891 321.259 184.633 320.099 180.846C318.62 175.98 299.743 113.404 298.519 85.4815C297.945 72.5394 304.223 73.3716 308.554 80.8403Z" fill="#EB9481"/>
<path d="M331.155 192.785C329.73 191.537 329.027 192.284 329.687 195.613C330.347 198.942 335.593 211.617 331.038 213.057C326.484 214.498 319.333 196.584 318.674 190.961C318.014 185.338 319.025 176.023 319.025 176.023C321.132 179.246 326.963 186.544 331.155 192.785Z" fill="#EB9481"/>
<path d="M350.051 184.761L318.129 198.333C317.15 198.653 316.639 199.496 316.979 200.211L323.13 213.142C323.385 213.521 323.761 213.801 324.197 213.935C324.633 214.069 325.101 214.049 325.524 213.878L357.447 200.307C358.426 199.986 358.936 199.144 358.596 198.418L352.467 185.508C352.214 185.121 351.835 184.834 351.393 184.697C350.952 184.561 350.478 184.584 350.051 184.761Z" fill="#AE6F28"/>
<path opacity="0.8" d="M350.051 184.761L318.129 198.333C317.15 198.653 316.639 199.496 316.979 200.211L323.13 213.142C323.385 213.521 323.761 213.801 324.197 213.935C324.633 214.069 325.101 214.049 325.524 213.878L357.447 200.307C358.426 199.986 358.936 199.144 358.596 198.418L352.467 185.508C352.214 185.121 351.835 184.834 351.393 184.697C350.952 184.561 350.478 184.584 350.051 184.761Z" fill="white"/>
<path d="M350.797 186.287L318.875 199.859C317.896 200.168 317.385 201.011 317.726 201.737L323.855 214.658C324.111 215.035 324.488 215.313 324.924 215.445C325.36 215.577 325.827 215.555 326.249 215.383L358.172 201.811C359.15 201.502 359.661 200.659 359.321 199.934L353.181 187.024C352.931 186.642 352.556 186.36 352.121 186.226C351.686 186.091 351.218 186.113 350.797 186.287Z" fill="#AE6F28"/>
<path d="M351.16 190.736C350.447 191.206 349.66 191.078 349.383 190.459C349.281 190.09 349.302 189.698 349.445 189.343C349.587 188.988 349.842 188.691 350.17 188.496C350.883 188.037 351.671 188.154 351.947 188.773C352.05 189.142 352.028 189.534 351.886 189.889C351.743 190.244 351.488 190.541 351.16 190.736Z" fill="#263238"/>
<path d="M344.156 163.219C351.105 172.608 357.255 183.662 357.393 195.878C357.446 197.231 357.041 198.562 356.244 199.655C356.404 205.129 353.882 206.846 353.882 206.846C352.477 211.989 349.625 213.397 349.625 213.397C349.625 213.397 349.21 217.793 346.125 217.74C343.039 217.687 341.326 210.453 338.623 205.171C332.419 193.083 321.14 179.34 319.001 176.033L344.156 163.219Z" fill="#EB9481"/>
<path d="M341.934 189.668C343.79 193.185 345.405 196.824 346.765 200.562C348 204.756 348.925 209.035 349.531 213.365C349.526 213.381 349.525 213.398 349.527 213.415C349.53 213.432 349.536 213.448 349.546 213.461C349.556 213.475 349.569 213.486 349.584 213.494C349.599 213.501 349.616 213.505 349.632 213.505C349.649 213.505 349.666 213.501 349.681 213.494C349.696 213.486 349.709 213.475 349.719 213.461C349.728 213.448 349.735 213.432 349.737 213.415C349.74 213.398 349.739 213.381 349.733 213.365C349.406 204.903 346.763 196.693 342.093 189.636C341.987 189.391 341.849 189.455 341.934 189.668Z" fill="#263238"/>
<path d="M348.669 184.824C350.191 188.408 352.808 194.746 353.745 206.856C353.745 206.856 353.819 206.909 353.819 206.856C354.243 199.162 352.519 191.503 348.839 184.738C348.743 184.535 348.573 184.578 348.669 184.824Z" fill="#263238"/>
<path d="M352.342 182.308C354.683 188.518 355.374 192.721 356.215 199.635H356.29C356.162 191.676 355.225 188.806 352.544 182.191C352.459 181.967 352.257 182.063 352.342 182.308Z" fill="#263238"/>
<path d="M347.563 164.447L317.768 179.064C317.768 179.064 300.413 111.782 298.477 90.0482C296.54 68.3144 304.861 73.3184 310.628 83.5292C318.492 97.4742 347.563 164.447 347.563 164.447Z" fill="#AE6F28"/>
<path d="M318.461 171.468C322.526 169.814 338.891 162.452 342.318 160.617C342.563 160.489 342.531 160.308 342.318 160.404C330.028 165.067 322.345 169.484 318.45 171.308C318.301 171.351 318.355 171.532 318.461 171.468Z" fill="#263238"/>
<path d="M307.341 136.234C306.894 133.033 306.34 129.832 305.766 126.685C305.191 123.537 304.574 120.347 303.936 117.178C303.297 114.009 302.605 110.873 301.861 107.725L300.743 103.02C300.328 101.462 299.956 99.8937 299.52 98.3359C299.732 99.9364 300.009 101.537 300.243 103.127L301.084 107.885C301.648 111.086 302.286 114.287 302.925 117.392C303.563 120.497 304.255 123.697 305 126.845C305.744 129.992 306.479 133.119 307.341 136.234Z" fill="#263238"/>
<path d="M301.212 106.564C300.745 104.912 299.94 103.375 298.85 102.051C299.083 102.876 299.404 103.674 299.807 104.43C300.199 105.189 300.67 105.904 301.212 106.564Z" fill="#263238"/>
<path d="M300.678 74.2676C301.274 78.3967 301.955 82.5151 302.646 86.6335L302.859 86.2815C300.444 86.9216 298.039 87.6151 295.623 88.2767L295.219 88.394L295.389 88.7888C296.113 90.3785 296.815 91.9896 297.517 93.5474L297.613 93.1099C295.07 95.3399 292.474 97.5271 289.952 99.7997C287.43 102.072 284.897 104.313 282.418 106.628C285.089 104.494 287.738 102.36 290.324 100.227C292.91 98.0926 295.506 95.852 298.103 93.6754L298.315 93.494L298.198 93.238C297.496 91.6375 296.741 90.0371 296.006 88.4794L295.783 88.9808C298.177 88.2767 300.593 87.5938 302.976 86.8469L303.242 86.7616V86.4948C302.423 82.4298 301.593 78.3433 300.678 74.2676Z" fill="#263238"/>
<path d="M287.303 76.7109C285.952 78.1086 285.015 79.1009 283.717 80.5413C282.419 81.9817 281.089 83.39 279.823 84.8091L279.578 85.1078L279.918 85.3212L282.43 86.8896L282.355 86.3242C281.291 87.3911 280.28 88.3834 279.269 89.4397L279.142 89.589V89.7704C279.663 92.5765 280.131 95.3932 280.706 98.1886C281.28 100.984 281.77 103.801 282.451 106.586C282.1 103.747 281.685 100.92 281.249 98.05C280.812 95.1799 280.333 92.4165 279.876 89.5997L279.769 89.9198C280.833 88.8528 281.823 87.7859 282.845 86.783L283.164 86.4522L282.77 86.2175L280.238 84.7024L280.323 85.2145C281.589 83.7528 282.802 82.2377 284.036 80.744C285.271 79.2503 286.101 78.2367 287.303 76.7109Z" fill="#263238"/>
<path d="M282.462 106.627C282.1 107.993 281.738 109.348 281.398 110.724C281.057 112.1 280.759 113.466 280.461 114.842C280.366 117.905 280.344 120.967 280.291 124.029C280.238 127.091 280.291 130.153 280.291 133.215C280.472 130.153 280.6 127.102 280.696 124.04C280.791 120.977 280.876 117.915 280.908 114.853C281.196 113.477 281.472 112.09 281.717 110.703C281.962 109.316 282.228 108.014 282.462 106.627Z" fill="#263238"/>
<path d="M284.069 109.284C284.214 109.256 284.364 109.26 284.507 109.297C284.65 109.334 284.783 109.402 284.897 109.497C285.01 109.592 285.1 109.712 285.162 109.847C285.223 109.982 285.253 110.129 285.25 110.277C285.248 110.43 285.212 110.581 285.146 110.719C285.08 110.857 284.985 110.979 284.867 111.077C284.72 111.192 284.543 111.262 284.358 111.28C284.172 111.299 283.985 111.264 283.818 111.18C283.651 111.097 283.511 110.968 283.415 110.808C283.318 110.648 283.268 110.464 283.271 110.277C283.267 110.044 283.344 109.816 283.49 109.635C283.636 109.454 283.841 109.329 284.069 109.284ZM283.537 110.81C283.615 110.861 283.703 110.893 283.795 110.906C283.887 110.919 283.98 110.912 284.069 110.885C284.189 110.836 284.291 110.753 284.363 110.645C284.435 110.538 284.474 110.411 284.474 110.282C284.474 110.153 284.435 110.026 284.363 109.919C284.291 109.811 284.189 109.728 284.069 109.679C283.98 109.652 283.887 109.645 283.795 109.658C283.703 109.671 283.615 109.703 283.537 109.754C283.454 109.815 283.386 109.896 283.339 109.988C283.292 110.081 283.268 110.183 283.268 110.287C283.268 110.391 283.292 110.494 283.339 110.586C283.386 110.679 283.454 110.759 283.537 110.821V110.81Z" fill="#263238"/>
<path d="M282.876 118.182C283.015 118.159 283.157 118.164 283.294 118.197C283.431 118.23 283.561 118.29 283.674 118.374C283.792 118.472 283.887 118.594 283.953 118.732C284.019 118.87 284.054 119.021 284.057 119.174C284.054 119.327 284.019 119.478 283.953 119.616C283.887 119.754 283.792 119.876 283.674 119.974C283.561 120.058 283.431 120.117 283.294 120.15C283.157 120.183 283.015 120.189 282.876 120.166C282.678 120.088 282.507 119.951 282.387 119.774C282.267 119.597 282.203 119.388 282.203 119.174C282.203 118.96 282.267 118.751 282.387 118.574C282.507 118.397 282.678 118.26 282.876 118.182ZM282.344 119.707C282.423 119.755 282.511 119.787 282.603 119.8C282.694 119.812 282.787 119.806 282.876 119.782C282.995 119.731 283.096 119.646 283.167 119.538C283.238 119.43 283.276 119.303 283.276 119.174C283.276 119.044 283.238 118.918 283.167 118.81C283.096 118.702 282.995 118.617 282.876 118.566C282.787 118.541 282.693 118.536 282.601 118.55C282.509 118.565 282.422 118.6 282.344 118.651C282.261 118.711 282.194 118.789 282.148 118.88C282.102 118.971 282.078 119.072 282.078 119.174C282.083 119.272 282.11 119.368 282.156 119.454C282.202 119.541 282.266 119.616 282.344 119.675V119.707Z" fill="#263238"/>
<path d="M282.462 126.26C282.601 126.237 282.743 126.243 282.88 126.276C283.017 126.309 283.146 126.368 283.26 126.452C283.379 126.551 283.474 126.675 283.541 126.815C283.607 126.955 283.642 127.108 283.643 127.263C283.64 127.416 283.604 127.567 283.538 127.705C283.472 127.843 283.377 127.965 283.26 128.063C283.146 128.146 283.017 128.206 282.88 128.239C282.743 128.272 282.601 128.278 282.462 128.255C282.234 128.21 282.029 128.086 281.883 127.904C281.737 127.723 281.659 127.496 281.664 127.263C281.659 127.028 281.736 126.8 281.882 126.617C282.028 126.433 282.233 126.307 282.462 126.26ZM281.93 127.786C282.007 127.837 282.095 127.871 282.187 127.886C282.278 127.901 282.372 127.896 282.462 127.871C282.585 127.825 282.691 127.742 282.765 127.633C282.84 127.524 282.879 127.395 282.877 127.263C282.882 127.13 282.844 126.999 282.769 126.89C282.695 126.78 282.587 126.698 282.462 126.655C282.373 126.627 282.279 126.62 282.188 126.633C282.096 126.646 282.008 126.679 281.93 126.729C281.846 126.791 281.778 126.871 281.731 126.964C281.685 127.056 281.66 127.159 281.66 127.263C281.66 127.367 281.685 127.469 281.731 127.562C281.778 127.654 281.846 127.735 281.93 127.796V127.786Z" fill="#263238"/>
</g>
</g>
<defs>
<linearGradient id="paint0_linear_16852_2899" x1="151.978" y1="151.642" x2="121.438" y2="182.164" gradientUnits="userSpaceOnUse">
<stop stop-color="#EFC96D"/>
<stop offset="0.55" stop-color="#AE6F28"/>
<stop offset="1" stop-color="#5A2F0E"/>
</linearGradient>
<linearGradient id="paint1_linear_16852_2899" x1="107.855" y1="156.201" x2="135.405" y2="183.734" gradientUnits="userSpaceOnUse">
<stop stop-color="#EFC96D"/>
<stop offset="0.55" stop-color="#AE6F28"/>
<stop offset="1" stop-color="#5A2F0E"/>
</linearGradient>
<linearGradient id="paint2_linear_16852_2899" x1="107.486" y1="202.934" x2="136.971" y2="173.469" gradientUnits="userSpaceOnUse">
<stop stop-color="#EFC96D"/>
<stop offset="0.55" stop-color="#AE6F28"/>
<stop offset="1" stop-color="#5A2F0E"/>
</linearGradient>
<linearGradient id="paint3_linear_16852_2899" x1="150.512" y1="199.389" x2="123.011" y2="171.905" gradientUnits="userSpaceOnUse">
<stop stop-color="#EFC96D"/>
<stop offset="0.55" stop-color="#AE6F28"/>
<stop offset="1" stop-color="#5A2F0E"/>
</linearGradient>
<clipPath id="clip0_16852_2899">
<rect width="375" height="342" fill="white"/>
</clipPath>
<clipPath id="clip1_16852_2899">
<rect width="375" height="268" fill="white" transform="translate(0 74)"/>
</clipPath>
<clipPath id="clip2_16852_2899">
<rect width="343" height="376" fill="white" transform="translate(16)"/>
</clipPath>
<clipPath id="clip3_16852_2899">
<rect width="32" height="32" fill="white" transform="translate(31.71 79)"/>
</clipPath>
</defs>
</svg>
