<svg width="23" height="23" viewBox="0 0 23 23" fill="none" xmlns="http://www.w3.org/2000/svg">
<path d="M15.683 9.7472C16.1758 9.74855 16.6639 9.65214 17.1192 9.46354C17.5744 9.27493 17.9877 8.99789 18.3352 8.64845L21.9445 5.04142C22.23 4.75595 22.2563 4.29142 21.9844 3.99189C21.9161 3.91663 21.8333 3.85603 21.7409 3.81376C21.6485 3.77148 21.5485 3.74842 21.447 3.74596C21.3454 3.74351 21.2444 3.76171 21.1501 3.79948C21.0558 3.83724 20.9701 3.89377 20.8983 3.96564L17.6813 7.18032C17.5732 7.28821 17.4268 7.34881 17.2742 7.34881C17.1215 7.34881 16.9751 7.28821 16.867 7.18032C16.6425 6.95626 16.6547 6.57751 16.8788 6.35345L20.0817 3.15048C20.1535 3.07868 20.21 2.99305 20.2477 2.89877C20.2854 2.8045 20.3036 2.70355 20.3012 2.60204C20.2987 2.50054 20.2757 2.40058 20.2334 2.30824C20.1912 2.21591 20.1307 2.1331 20.0555 2.06485C19.9198 1.94174 19.7428 1.874 19.5595 1.87501C19.4567 1.87506 19.3549 1.89536 19.2599 1.93478C19.1649 1.97419 19.0786 2.03193 19.006 2.1047L15.8058 5.30439C15.6978 5.41227 15.5514 5.47287 15.3987 5.47287C15.246 5.47287 15.0996 5.41227 14.9916 5.30439C14.7675 5.08032 14.7792 4.70157 15.0033 4.47751L18.2063 1.27548C18.2781 1.20368 18.3345 1.11805 18.3722 1.02377C18.41 0.929502 18.4281 0.828552 18.4257 0.727044C18.4232 0.625536 18.4002 0.525584 18.358 0.433244C18.3157 0.340905 18.2552 0.258102 18.18 0.189855C18.0443 0.0667431 17.8673 -0.000997294 17.6841 1.10984e-05C17.4764 0.000256927 17.2773 0.0828591 17.1305 0.229699L13.5235 3.83673C13.174 4.18426 12.8969 4.59766 12.7083 5.05299C12.5197 5.50832 12.4233 5.99654 12.4247 6.48939V6.87517C12.4248 6.9738 12.4054 7.07148 12.3677 7.16261C12.33 7.25374 12.2746 7.33654 12.2049 7.40626L10.5356 9.07595C10.5182 9.09338 10.4975 9.10721 10.4748 9.11665C10.452 9.12608 10.4276 9.13094 10.403 9.13094C10.3783 9.13094 10.3539 9.12608 10.3312 9.11665C10.3084 9.10721 10.2877 9.09338 10.2703 9.07595L2.14783 0.95298C2.00764 0.812632 1.81756 0.733539 1.61919 0.733012C1.42082 0.732485 1.23032 0.810567 1.08939 0.950167C0.379235 1.65376 1.60872e-05 2.64704 1.60872e-05 3.8222C-0.00467141 5.76282 1.01533 7.99407 2.66205 9.63845L6.66752 13.6439C7.23684 14.212 8.00824 14.5311 8.81252 14.5313C9.06892 14.5314 9.32429 14.4986 9.57236 14.4338C9.63464 14.4174 9.69875 14.4091 9.76314 14.4089C9.95142 14.4089 10.1327 14.4801 10.2708 14.6081L10.8047 15.1013C10.9424 15.2419 11.0198 15.4308 11.0203 15.6277V15.8874C11.019 16.4777 11.251 17.0447 11.6658 17.4647L15.8869 21.757L15.8911 21.7617C16.3596 22.2302 16.995 22.4933 17.6575 22.4933C18.32 22.4932 18.9554 22.23 19.4238 21.7615C19.8923 21.293 20.1554 20.6576 20.1554 19.9951C20.1553 19.3326 19.8921 18.6972 19.4236 18.2288L13.0964 11.9016C13.079 11.8842 13.0652 11.8635 13.0557 11.8407C13.0463 11.818 13.0414 11.7936 13.0414 11.7689C13.0414 11.7443 13.0463 11.7199 13.0557 11.6971C13.0652 11.6744 13.079 11.6537 13.0964 11.6363L14.7656 9.96704C14.8353 9.89733 14.918 9.84204 15.0091 9.80431C15.1001 9.76659 15.1977 9.74718 15.2963 9.7472H15.683Z" fill="#AE6F28"/>
</svg>
