<svg width="24" height="24" viewBox="0 0 24 24" fill="none" xmlns="http://www.w3.org/2000/svg">
<path d="M8.99963 19.5H14.9996C18.0146 19.5 18.5546 18.2925 18.7121 16.8225L19.2746 10.8225C19.4771 8.9925 18.9521 7.5 15.7496 7.5H8.24963C5.04713 7.5 4.52213 8.9925 4.72463 10.8225L5.28713 16.8225C5.44463 18.2925 5.98463 19.5 8.99963 19.5Z" fill="#AE6F28" stroke="#AE6F28" stroke-width="1.2" stroke-miterlimit="10" stroke-linecap="round" stroke-linejoin="round"/>
<path d="M9 7.5V6.9C9 5.5725 9 4.5 11.4 4.5H12.6C15 4.5 15 5.5725 15 6.9V7.5" stroke="#AE6F28" stroke-width="1.2" stroke-miterlimit="10" stroke-linecap="round" stroke-linejoin="round"/>
<path d="M13.5 12.75V13.5C13.5 13.5075 13.5 13.5075 13.5 13.515C13.5 14.3325 13.4925 15 12 15C10.515 15 10.5 14.34 10.5 13.5225V12.75C10.5 12 10.5 12 11.25 12H12.75C13.5 12 13.5 12 13.5 12.75Z" stroke="#FFF6DF" stroke-width="1.2" stroke-miterlimit="10" stroke-linecap="round" stroke-linejoin="round"/>
<path d="M19.2375 11.25C17.505 12.51 15.525 13.26 13.5 13.515" stroke="#FFF6DF" stroke-width="1.2" stroke-miterlimit="10" stroke-linecap="round" stroke-linejoin="round"/>
<path d="M4.96484 11.4531C6.65234 12.6081 8.55734 13.3056 10.4998 13.5231" stroke="#FFF6DF" stroke-width="1.2" stroke-miterlimit="10" stroke-linecap="round" stroke-linejoin="round"/>
</svg>
