<svg width="24" height="24" viewBox="0 0 24 24" fill="none" xmlns="http://www.w3.org/2000/svg">
<path d="M3.60117 7.2C3.60117 4.87875 5.47992 3 7.80117 3C10.1224 3 12.0012 4.87875 12.0012 7.2C12.0012 9.52125 10.1224 11.4 7.80117 11.4C5.47992 11.4 3.60117 9.52125 3.60117 7.2ZM1.20117 19.8C1.20117 16.155 4.15617 13.2 7.80117 13.2C11.4462 13.2 14.4012 16.155 14.4012 19.8V20.025C14.4012 20.895 13.6962 21.6 12.8262 21.6H2.77617C1.90617 21.6 1.20117 20.895 1.20117 20.025V19.8ZM17.4012 13.8C20.3824 13.8 22.8012 16.2188 22.8012 19.2V20.04C22.8012 20.9025 22.1037 21.6 21.2412 21.6H17.4499C16.7059 21.6 16.2012 20.7689 16.2012 20.025V19.8C16.2012 18.2574 15.7849 16.8129 15.0612 15.5716C14.7673 15.0675 14.8751 14.3923 15.4177 14.1775C16.0324 13.9342 16.702 13.8 17.4012 13.8Z" fill="#AE6F28"/>
<path d="M17.3994 4.79883C18.354 4.79891 19.2693 5.17855 19.9443 5.85352C20.6195 6.52866 20.999 7.44461 20.999 8.39941C20.9989 9.3541 20.6194 10.2693 19.9443 10.9443C19.2693 11.6194 18.3541 11.9989 17.3994 11.999C16.4446 11.999 15.5287 11.6195 14.8535 10.9443C14.1785 10.2693 13.7989 9.35402 13.7988 8.39941C13.7988 7.44461 14.1784 6.52866 14.8535 5.85352C15.5287 5.17837 16.4446 4.79883 17.3994 4.79883ZM17.4004 5.90723C17.3109 5.90723 17.2237 5.93722 17.1523 5.99121C17.081 6.0452 17.0292 6.12095 17.0049 6.20703L16.6084 7.47949H15.3242C14.9217 7.47957 14.754 8.01664 15.0801 8.26367L16.1182 9.05078L15.7217 10.3232C15.5973 10.7224 16.0357 11.0538 16.3613 10.8076L17.4004 10.0215L18.4385 10.8076C18.7641 11.0546 19.2027 10.7226 19.0781 10.3232L18.6816 9.05078L19.7207 8.26367C20.0459 8.01708 19.8781 7.47949 19.4756 7.47949H18.1924L17.7959 6.20703C17.7716 6.12106 17.7196 6.04518 17.6484 5.99121C17.5771 5.93726 17.4898 5.90727 17.4004 5.90723Z" fill="#AE6F28"/>
</svg>
