<svg width="24" height="24" viewBox="0 0 24 24" fill="none" xmlns="http://www.w3.org/2000/svg">
<path d="M6.65 8.15C6.75 8.25 6.86667 8.3 7 8.3C7.13333 8.3 7.25 8.25 7.35 8.15L8.65 6.85C8.75 6.75 8.8 6.63333 8.8 6.5C8.8 6.36667 8.75 6.25 8.65 6.15L7.35 4.85C7.25 4.75 7.13333 4.7 7 4.7C6.86667 4.7 6.75 4.75 6.65 4.85L5.35 6.15C5.25 6.25 5.2 6.36667 5.2 6.5C5.2 6.63333 5.25 6.75 5.35 6.85L6.65 8.15ZM16.5 7C16.9167 7 17.271 6.85433 17.563 6.563C17.855 6.27167 18.0007 5.91733 18 5.5C17.9993 5.08267 17.8537 4.72867 17.563 4.438C17.2723 4.14733 16.918 4.00133 16.5 4C16.082 3.99867 15.728 4.14467 15.438 4.438C15.148 4.73133 15.002 5.08533 15 5.5C14.998 5.91467 15.144 6.269 15.438 6.563C15.732 6.857 16.086 7.00267 16.5 7ZM6 23C5.71667 23 5.47933 22.904 5.288 22.712C5.09667 22.52 5.00067 22.2827 5 22V20.9C5 20.3167 5.16267 19.775 5.488 19.275C5.81333 18.775 6.24233 18.4 6.775 18.15C7.59167 17.7667 8.44167 17.4793 9.325 17.288C10.2083 17.0967 11.1 17.0007 12 17C12.9 16.9993 13.7917 17.0953 14.675 17.288C15.5583 17.4807 16.4083 17.768 17.225 18.15C17.7583 18.4 18.1877 18.775 18.513 19.275C18.8383 19.775 19.0007 20.3167 19 20.9V22C19 22.2833 18.9043 22.521 18.713 22.713C18.5217 22.905 18.284 23.0007 18 23H6ZM12 16C11.0333 16 10.2083 15.6583 9.525 14.975C8.84167 14.2917 8.5 13.4667 8.5 12.5C8.5 11.5333 8.84167 10.7083 9.525 10.025C10.2083 9.34167 11.0333 9 12 9C12.9667 9 13.7917 9.34167 14.475 10.025C15.1583 10.7083 15.5 11.5333 15.5 12.5C15.5 13.4667 15.1583 14.2917 14.475 14.975C13.7917 15.6583 12.9667 16 12 16ZM2 3C2 2.45 2.196 1.97933 2.588 1.588C2.98 1.19667 3.45067 1.00067 4 1H20C20.55 1 21.021 1.196 21.413 1.588C21.805 1.98 22.0007 2.45067 22 3V12C22 12.55 21.8043 13.021 21.413 13.413C21.0217 13.805 20.5507 14.0007 20 14H17.875C17.5917 14 17.3627 13.8917 17.188 13.675C17.0133 13.4583 16.9423 13.2083 16.975 12.925C16.9917 12.775 17 12.621 17 12.463C17 12.305 16.9917 12.1507 16.975 12C16.8417 10.7333 16.3043 9.66667 15.363 8.8C14.4217 7.93333 13.3007 7.5 12 7.5C10.6993 7.5 9.57833 7.93333 8.637 8.8C7.69567 9.66667 7.15833 10.7333 7.025 12C7.00833 12.15 7 12.3043 7 12.463C7 12.6217 7.00833 12.7757 7.025 12.925C7.05833 13.2083 6.98733 13.4583 6.812 13.675C6.63667 13.8917 6.408 14 6.126 14H4C3.45 14 2.97933 13.8043 2.588 13.413C2.19667 13.0217 2.00067 12.5507 2 12V3Z" fill="#AE6F28"/>
</svg>
