<svg width="24" height="24" viewBox="0 0 24 24" fill="none" xmlns="http://www.w3.org/2000/svg">
<path d="M21.8004 6.42465C21.4897 5.71976 21.0817 5.06187 20.5884 4.47015L17.9739 7.08465C18.586 7.44688 19.307 7.57939 20.0079 7.45845C20.7087 7.33752 21.3436 6.97105 21.7989 6.42465M16.9119 6.02415L19.5264 3.40965C18.9352 2.9165 18.2778 2.50854 17.5734 2.19765C17.0267 2.65301 16.6599 3.28821 16.539 3.9894C16.418 4.6906 16.5508 5.41194 16.9134 6.02415M14.9994 4.50015C14.9994 5.47215 15.3084 6.37215 15.8319 7.10715L14.6244 8.31465L9.39242 3.08115C10.3326 2.39813 11.406 1.92066 12.5429 1.6798C13.6797 1.43894 14.8545 1.44008 15.9909 1.68315C15.3494 2.48191 14.9996 3.47566 14.9994 4.50015ZM15.6849 9.37515L16.8924 8.16765C17.6274 8.69265 18.5274 9.00015 19.4994 9.00015C20.5237 9.00038 21.5175 8.65114 22.3164 8.01015C22.4374 8.57215 22.4984 9.15215 22.4994 9.75015C22.4994 11.5652 21.9129 13.2452 20.9184 14.6087L15.6849 9.37515ZM19.9254 15.7367L14.6244 10.4357L13.7169 11.3432C15.2769 13.1214 16.2341 15.3477 16.4514 17.7032C17.7714 17.3387 18.9594 16.6517 19.9254 15.7367ZM6.29492 7.54815C6.65942 6.22815 7.34492 5.04015 8.25992 4.07415L13.5639 9.37515L12.6564 10.2827C10.8782 8.72267 8.65042 7.76547 6.29492 7.54815Z" fill="#AE6F28"/>
<path d="M5.25 9C7.83586 9 10.3161 10.027 12.1445 11.8555C13.973 13.6839 15 16.1641 15 18.75V20.25C15 20.8467 14.7628 21.4189 14.3408 21.8408C13.9189 22.2628 13.3467 22.5 12.75 22.5H11.25C8.66414 22.5 6.18395 21.473 4.35547 19.6445C2.52699 17.8161 1.5 15.3359 1.5 12.75V11.25C1.5 10.6533 1.73722 10.0811 2.15918 9.65918C2.58114 9.23722 3.15326 9 3.75 9H5.25ZM7.125 13.874C7.02645 13.874 6.92893 13.8939 6.83789 13.9316C6.74677 13.9695 6.66342 14.0249 6.59375 14.0947C6.52402 14.1643 6.46843 14.2469 6.43066 14.3379C6.39291 14.4289 6.37407 14.5265 6.37402 14.625C6.37402 14.7237 6.39285 14.822 6.43066 14.9131C6.46845 15.0041 6.52401 15.0867 6.59375 15.1562L8.84375 17.4062C8.91348 17.476 8.99678 17.5316 9.08789 17.5693C9.17889 17.607 9.27653 17.626 9.375 17.626C9.47351 17.626 9.57109 17.607 9.66211 17.5693C9.75322 17.5316 9.83652 17.476 9.90625 17.4062C9.97576 17.3367 10.0307 17.2539 10.0684 17.1631C10.1061 17.072 10.126 16.9736 10.126 16.875C10.1259 16.7765 10.1061 16.6789 10.0684 16.5879C10.0307 16.497 9.97576 16.4143 9.90625 16.3447L7.65625 14.0947C7.58658 14.0249 7.50323 13.9695 7.41211 13.9316C7.32105 13.8939 7.22359 13.874 7.125 13.874Z" fill="#AE6F28"/>
</svg>
