<svg width="24" height="24" viewBox="0 0 24 24" fill="none" xmlns="http://www.w3.org/2000/svg">
<path d="M12 1.9248C12.993 1.9248 13.9583 2.25364 14.7451 2.85938L19.9951 6.89941C20.5412 7.31983 20.9839 7.86017 21.2881 8.47852C21.5922 9.09681 21.7502 9.77677 21.75 10.4658V17.249C21.75 18.4425 21.2755 19.5868 20.4316 20.4307C19.5877 21.2746 18.4435 21.749 17.25 21.749H6.75C5.55654 21.749 4.41227 21.2746 3.56836 20.4307C2.72445 19.5868 2.25001 18.4425 2.25 17.249V10.4658C2.24984 9.77677 2.40778 9.09681 2.71191 8.47852C3.01615 7.86017 3.45884 7.31983 4.00488 6.89941L9.25488 2.85938C10.0417 2.25364 11.007 1.92481 12 1.9248ZM10.833 15.499C10.2143 15.4991 9.6211 15.7404 9.18359 16.1689C8.74609 16.5976 8.5 17.179 8.5 17.7852V18.3564C8.50008 18.6594 8.62311 18.9498 8.8418 19.1641C9.06059 19.3784 9.35757 19.499 9.66699 19.499H14.333C14.6424 19.499 14.9394 19.3784 15.1582 19.1641C15.3769 18.9498 15.4999 18.6594 15.5 18.3564V17.7852C15.5 17.179 15.2539 16.5976 14.8164 16.1689C14.3789 15.7404 13.7857 15.4991 13.167 15.499H10.833ZM12 10.999C11.4696 10.999 10.961 11.2099 10.5859 11.585C10.2109 11.96 10 12.4686 10 12.999C10 13.5295 10.2109 14.038 10.5859 14.4131C10.961 14.7882 11.4696 14.999 12 14.999C12.5304 14.999 13.039 14.7882 13.4141 14.4131C13.7891 14.038 14 13.5295 14 12.999C14 12.4686 13.7891 11.96 13.4141 11.585C13.039 11.2099 12.5304 10.999 12 10.999Z" fill="#AE6F28"/>
</svg>
