<svg width="24" height="24" viewBox="0 0 24 24" fill="none" xmlns="http://www.w3.org/2000/svg">
<path d="M19 8.99953H17.44C17.77 8.44953 17.97 7.81953 17.99 7.13953C18.03 6.10953 17.56 5.14953 16.83 4.42953C15.29 2.88953 14.09 2.86953 13.01 3.13953C12.1729 2.41825 11.105 2.02089 10 2.01953C8.11 2.01953 6.49 3.12953 5.73 4.72953C4.15 5.25953 3 6.73953 3 8.49953C3 10.3595 4.28 11.9095 6 12.3595V18.9995C6 20.0995 6.9 20.9995 8 20.9995H15C16.1 20.9995 17 20.0995 17 18.9995H19C20.1 18.9995 21 18.0995 21 16.9995V10.9995C21 9.89953 20.1 8.99953 19 8.99953ZM7 10.4995C5.9 10.4995 5 9.59953 5 8.49953C5 7.64953 5.55 6.89953 6.37 6.61953L7.17 6.34953L7.53 5.58953C8 4.61953 8.94 4.01953 10 4.01953C10.79 4.01953 11.39 4.36953 11.74 4.66953L12.52 5.31953C12.52 5.31953 13.16 4.99953 13.99 4.99953C15.09 4.99953 15.99 5.89953 15.99 6.99953H12.99C9.67 6.99953 9.15 10.4995 7 10.4995ZM19 16.9995H17V10.9995H19V16.9995Z" fill="#AE6F28"/>
</svg>
