<svg width="24" height="24" viewBox="0 0 24 24" fill="none" xmlns="http://www.w3.org/2000/svg">
<path d="M2.588 19.4782C2.97933 19.8261 3.45 20 4 20H11H13H20C20.5507 20.0006 21.0217 19.8267 21.413 19.4782C21.8043 19.1298 22 18.7111 22 18.2222V7.55556C22.0007 7.06726 21.805 6.64889 21.413 6.30044C21.021 5.952 20.55 5.77778 20 5.77778H16.85L15.6 4.57778C15.4173 4.4 15.1967 4.25926 14.938 4.15556C14.6793 4.05185 14.4083 4 14.125 4H9.875C9.59233 4 9.32167 4.05185 9.063 4.15556C8.80433 4.25926 8.58333 4.4 8.4 4.57778L7.15 5.77778H4C3.45067 5.77837 2.98 5.95259 2.588 6.30044C2.196 6.6483 2 7.06667 2 7.55556V18.2222C2.00067 18.7117 2.19667 19.1304 2.588 19.4782Z" fill="#AE6F28"/>
<circle cx="12" cy="13" r="4" fill="#FFF6DF"/>
<rect x="18" y="7" width="3" height="1" rx="0.5" fill="#FFF6DF"/>
</svg>
