<svg width="24" height="24" viewBox="0 0 24 24" fill="none" xmlns="http://www.w3.org/2000/svg">
<g clip-path="url(#clip0_16843_11090)">
<path d="M7.2 4.80039C7.2 3.47664 8.27625 2.40039 9.6 2.40039H21.6C22.9238 2.40039 24 3.47664 24 4.80039V13.2004C24 14.5241 22.9238 15.6004 21.6 15.6004H9.6C8.27625 15.6004 7.2 14.5241 7.2 13.2004V4.80039ZM12 6.00039C12 5.33664 11.4638 4.80039 10.8 4.80039C10.1363 4.80039 9.6 5.33664 9.6 6.00039C9.6 6.66414 10.1363 7.20039 10.8 7.20039C11.4638 7.20039 12 6.66414 12 6.00039ZM17.865 6.42789C17.7 6.16164 17.415 6.00039 17.1 6.00039C16.785 6.00039 16.4963 6.16539 16.3313 6.43164L14.3063 9.74289L13.635 8.78289C13.4663 8.54289 13.1925 8.40039 12.8963 8.40039C12.6 8.40039 12.3263 8.54289 12.1575 8.78289L10.0575 11.7829C9.86625 12.0566 9.84 12.4166 9.9975 12.7129C10.155 13.0091 10.4663 13.2004 10.8 13.2004H20.4C20.7263 13.2004 21.0263 13.0241 21.1838 12.7391C21.3413 12.4541 21.3375 12.1091 21.165 11.8279L17.865 6.42789ZM5.4 7.20039V13.2004C5.4 15.5216 7.27875 17.4004 9.6 17.4004H16.8V18.0004C16.8 19.3241 15.7238 20.4004 14.4 20.4004H2.4C1.07625 20.4004 0 19.3241 0 18.0004V9.60039C0 8.27664 1.07625 7.20039 2.4 7.20039H5.4ZM1.95 9.75039V10.6504C1.95 10.9804 2.22 11.2504 2.55 11.2504H3.45C3.78 11.2504 4.05 10.9804 4.05 10.6504V9.75039C4.05 9.42039 3.78 9.15039 3.45 9.15039H2.55C2.22 9.15039 1.95 9.42039 1.95 9.75039ZM2.55 12.7504C2.22 12.7504 1.95 13.0204 1.95 13.3504V14.2504C1.95 14.5804 2.22 14.8504 2.55 14.8504H3.45C3.78 14.8504 4.05 14.5804 4.05 14.2504V13.3504C4.05 13.0204 3.78 12.7504 3.45 12.7504H2.55ZM2.55 16.3504C2.22 16.3504 1.95 16.6204 1.95 16.9504V17.8504C1.95 18.1804 2.22 18.4504 2.55 18.4504H3.45C3.78 18.4504 4.05 18.1804 4.05 17.8504V16.9504C4.05 16.6204 3.78 16.3504 3.45 16.3504H2.55Z" fill="#AE6F28"/>
</g>
<defs>
<clipPath id="clip0_16843_11090">
<rect width="24" height="24" fill="white"/>
</clipPath>
</defs>
</svg>
