<svg width="24" height="24" viewBox="0 0 24 24" fill="none" xmlns="http://www.w3.org/2000/svg">
<path d="M11.076 3.7454C11.2749 3.4013 11.6023 3.15021 11.9862 3.04727C12.3701 2.94434 12.7791 2.99798 13.1235 3.1964L16.5 5.1464C16.8445 5.34532 17.0959 5.67295 17.1988 6.05721C17.3018 6.44146 17.2479 6.85089 17.049 7.1954L15.1425 10.4999H16.5C16.6989 10.4999 16.8897 10.5789 17.0303 10.7196C17.171 10.8602 17.25 11.051 17.25 11.2499C17.25 11.4488 17.171 11.6396 17.0303 11.7802C16.8897 11.9209 16.6989 11.9999 16.5 11.9999H7.5C7.30109 11.9999 7.11032 11.9209 6.96967 11.7802C6.82902 11.6396 6.75 11.4488 6.75 11.2499C6.75 11.051 6.82902 10.8602 6.96967 10.7196C7.11032 10.5789 7.30109 10.4999 7.5 10.4999H8.5125C8.26601 10.2682 8.10506 9.96008 8.05578 9.62542C8.00649 9.29077 8.07176 8.94929 8.241 8.6564L11.076 3.7454ZM11.4315 10.4999H13.41L15.75 6.4454L12.375 4.4954L9.54 9.4064L11.4315 10.4999ZM7.176 7.4999H6.771C6.41303 7.50002 6.06025 7.58555 5.74197 7.74939C5.4237 7.91322 5.1491 8.15063 4.941 8.4419L1.9185 12.6719C1.6461 13.0536 1.49978 13.5109 1.5 13.9799V18.7499C1.5 19.3466 1.73705 19.9189 2.15901 20.3409C2.58097 20.7628 3.15326 20.9999 3.75 20.9999H20.25C20.8467 20.9999 21.419 20.7628 21.841 20.3409C22.2629 19.9189 22.5 19.3466 22.5 18.7499V13.9799C22.4995 13.5113 22.3526 13.0545 22.08 12.6734L19.059 8.4434C18.8852 8.19917 18.6644 7.99211 18.4095 7.8344L18.3495 7.9454L17.6595 9.1379C17.7289 9.18586 17.7898 9.24519 17.8395 9.3134L20.826 13.4999H3.174L6.1635 9.3149C6.26119 9.17761 6.40228 9.07722 6.564 9.0299C6.612 8.6444 6.7365 8.2649 6.942 7.9064L7.176 7.4999Z" fill="#AE6F28"/>
</svg>
