<svg width="80" height="80" viewBox="0 0 80 80" fill="none" xmlns="http://www.w3.org/2000/svg">
<path d="M26.5004 61.62C26.4525 61.62 26.4002 61.6113 26.3479 61.5982C21.0995 59.9984 15.4153 54.2619 14.1817 49.323C14.1119 49.0441 14.2819 48.7651 14.5565 48.6953C14.8355 48.6256 15.1145 48.7956 15.1843 49.0702C16.322 53.6254 21.7883 59.1222 26.6486 60.6087C26.9233 60.6915 27.0758 60.9792 26.993 61.2538C26.9276 61.4761 26.7227 61.62 26.5004 61.62Z" fill="#975500"/>
<path d="M29.003 68.1287C28.9638 68.1287 28.9246 68.1244 28.8853 68.1156C24.5437 67.1043 19.4959 63.8612 15.0409 59.2144C10.8736 54.8728 8.17534 50.2521 8.00098 47.1572C7.98354 46.8738 8.20149 46.6254 8.48919 46.6123C8.77253 46.5949 9.021 46.8128 9.03408 47.1005C9.19101 49.9165 11.8413 54.3889 15.7863 58.4995C20.1061 63.0068 24.9665 66.141 29.1207 67.1087C29.3997 67.1741 29.5741 67.4531 29.5087 67.732C29.452 67.9674 29.2384 68.1287 29.003 68.1287Z" fill="#975500"/>
<path d="M51.2562 22.8321C51.0252 22.8321 50.8159 22.6796 50.7549 22.4485C50.0269 19.6849 46.7184 15.7181 43.7063 14.9422C43.4317 14.8724 43.2616 14.5891 43.3358 14.3101C43.4099 14.0311 43.6888 13.8655 43.9678 13.9396C47.3592 14.8158 50.9423 19.092 51.7575 22.187C51.8316 22.4616 51.666 22.7449 51.387 22.819C51.3434 22.8278 51.2998 22.8321 51.2562 22.8321Z" fill="#975500"/>
<path d="M57.7814 23.7526C57.5504 23.7526 57.3411 23.5957 57.2801 23.3646C55.3403 15.7275 48.0868 9.76869 43.9457 9.02765C43.6623 8.97534 43.4792 8.70944 43.5272 8.4261C43.5795 8.14275 43.8454 7.95967 44.1287 8.00762C48.6404 8.81841 56.2078 14.9603 58.2827 23.1074C58.3524 23.3864 58.1868 23.6654 57.9078 23.7352C57.8642 23.7482 57.825 23.7526 57.7814 23.7526Z" fill="#975500"/>
<path d="M44.9005 37.3237C45.7331 38.2434 46.4829 39.4509 46.1646 39.7691C45.8464 40.0873 44.87 39.5119 44.1246 38.7621C43.3792 38.0167 41.5963 45.9503 41.422 46.3513C41.2912 46.6521 39.2163 49.0321 38.1309 51.2945C37.7691 52.0486 37.8214 54.3241 37.6862 54.4592C37.1414 55.0041 36.4483 54.9474 34.9531 53.6266C33.4579 52.3058 32.682 60.1739 34.4649 61.4163C37.5119 63.5435 43.6059 71.9958 51.6571 71.9958C60.9724 71.9958 69.5991 62.2794 69.5991 55.1479C69.5991 48.0165 67.5067 45.3138 67.6462 39.3375C67.7595 34.2767 71.4429 31.8617 71.4429 29.3335C71.4429 27.2062 68.2826 26.6875 67.2452 26.6875C65.4056 26.6875 60.6891 29.0458 60.6891 35.2531C60.6891 37.668 60.0004 39.8519 57.5288 39.8519C55.0572 39.8519 52.2979 36.4606 50.6283 33.8146" fill="url(#paint0_linear_17418_3561)"/>
<path d="M71.439 29.334C71.439 28.1789 70.5018 27.4988 69.4817 27.1152C70.7066 31.1735 64.495 31.3479 64.495 45.1749C64.495 59.0019 56.4437 63.0253 53.109 63.7184C49.7743 64.4072 43.8983 64.6077 39.4259 59.1196C38.0528 57.4326 36.1915 55.6018 34.1209 53.8713C33.2447 55.3316 33.0573 60.4361 34.4653 61.4168C37.5123 63.5441 43.6062 71.9963 51.6575 71.9963C60.9728 71.9963 69.5994 62.2799 69.5994 55.1485C69.5994 48.017 67.5071 45.3144 67.6466 39.3381C67.7599 34.2772 71.439 31.8623 71.439 29.334Z" fill="url(#paint1_linear_17418_3561)"/>
<path d="M34.9533 53.6267C33.4582 52.3059 29.9229 48.5396 27.6214 46.6957C25.3198 44.8562 23.3102 44.878 21.9284 46.9093C20.5466 48.9407 24.5744 52.5064 25.4941 53.4261C26.9021 54.8341 32.6822 60.174 34.4651 61.4207" fill="url(#paint2_linear_17418_3561)"/>
<path d="M41.4213 46.352C41.2469 46.7531 40.0743 47.032 37.7422 44.4951C35.9594 42.5553 31.1862 36.98 28.3702 34.4517C25.5542 31.9235 23.366 30.886 21.5264 32.2112C19.6869 33.5363 20.7331 36.2913 22.7906 38.5929C25.3363 41.4393 28.2656 44.3425 31.0685 47.1323C33.2611 49.3118 38.2261 53.9194 37.6812 54.4643" fill="url(#paint3_linear_17418_3561)"/>
<path d="M31.0737 47.1276C33.1443 49.1851 37.6778 53.4003 37.7257 54.3288C38.3796 53.3088 37.1852 50.2749 35.921 49.2113C28.6152 43.0606 21.5579 33.1437 20.6599 33.4401C20.2763 34.883 21.2484 36.862 22.7915 38.5925C25.3372 41.4347 28.2665 44.3422 31.0737 47.1276Z" fill="url(#paint4_linear_17418_3561)"/>
<path d="M50.6245 33.8185C48.955 31.1725 42.1112 22.6636 40.446 20.2487C38.7765 17.8337 36.5359 17.8337 34.9841 18.9279C33.4323 20.022 32.9702 22.2059 36.4662 26.8483C38.6719 29.7776 40.5027 32.4715 44.9054 37.3275L50.0229 36.9701L50.6245 33.8185Z" fill="url(#paint5_linear_17418_3561)"/>
<path d="M44.1254 38.7613C43.38 38.0159 36.7673 30.1783 35.2721 28.4957C32.4693 25.3484 28.9166 18.6049 24.6796 21.6083C22.4521 23.1863 23.6596 25.4748 24.2916 26.3946C24.9237 27.3144 33.1449 36.8041 33.9513 37.6062C34.7578 38.4126 41.5972 45.9451 41.4272 46.3461" fill="url(#paint6_linear_17418_3561)"/>
<path d="M44.901 37.3223C45.7031 38.2072 46.4223 39.3536 46.1957 39.7242C48.8634 37.5795 43.2228 31.2763 40.0276 27.4926C37.556 24.5633 36.8803 20.8363 35.1105 18.8398C35.0669 18.866 35.0277 18.8965 34.9841 18.9226C33.4323 20.0168 32.9702 22.2007 36.4662 26.8431C38.6675 29.7724 40.5027 32.4707 44.901 37.3223Z" fill="url(#paint7_linear_17418_3561)"/>
<path d="M33.9467 37.6108C34.7531 38.4172 41.5925 45.9497 41.4225 46.3507C43.5366 43.5043 35.3416 35.1392 31.3748 30.9109C27.9355 27.2449 27.347 24.0366 23.9905 22.2363C22.7438 23.7446 23.7333 25.5928 24.2869 26.3992C24.919 27.319 33.1446 36.8087 33.9467 37.6108Z" fill="url(#paint8_linear_17418_3561)"/>
<path d="M41.2685 46.5212C41.0288 46.6694 40.5362 46.6824 39.7734 46.2422C40.3401 46.6999 40.8631 46.8742 41.2685 46.5212Z" fill="url(#paint9_linear_17418_3561)"/>
<path d="M67.7288 27.5506C69.4855 27.2367 69.795 27.4373 69.4811 27.1147C68.6267 26.7965 67.7113 26.6875 67.2406 26.6875C65.401 26.6875 60.6845 29.0458 60.6845 35.2531C60.6845 37.668 59.9958 39.8519 57.5198 39.8519C56.5434 39.8519 55.5277 39.3245 54.5469 38.5224C58.8886 43.3305 62.293 38.8014 62.8117 35.6977C63.3305 32.5941 62.5763 28.4747 67.7288 27.5506Z" fill="url(#paint10_radial_17418_3561)"/>
<path d="M34.4516 19.3945C33.3793 20.6107 33.4142 22.7903 36.4612 26.8442C38.6669 29.7735 40.4977 32.4674 44.9004 37.3234C45.7329 38.2432 46.4827 39.4507 46.1645 39.7689C46.9012 34.7385 39.7392 29.7909 37.4115 25.9985C35.5676 22.9908 35.2014 21.2166 34.4516 19.3945Z" fill="url(#paint11_linear_17418_3561)"/>
<path d="M33.9457 37.6103C34.7521 38.4167 41.5915 45.9492 41.4215 46.3502C42.9297 45.2735 41.901 43.5953 39.5689 41.2632C34.787 36.4813 28.1307 30.056 25.4542 24.7641C25.2014 24.2628 24.7306 23.8923 24.177 23.8225C22.7341 23.6351 23.8065 25.6969 24.2903 26.3987C24.918 27.3185 33.1436 36.8082 33.9457 37.6103Z" fill="url(#paint12_linear_17418_3561)"/>
<path d="M22.7923 38.5915C25.338 41.438 28.2673 44.3411 31.0702 47.131C33.2628 49.3105 38.2278 53.918 37.6829 54.4629C40.7604 51.8736 26.467 42.5147 20.6564 33.4434C20.2771 34.8776 21.2492 36.861 22.7923 38.5915Z" fill="url(#paint13_linear_17418_3561)"/>
<path d="M37.0541 54.9774C37.3461 54.8641 37.4987 54.729 37.5466 54.5808C37.0192 54.9862 36.3261 54.8423 34.953 53.6261C33.4578 52.3053 29.9226 48.5391 27.621 46.6952C26.6097 45.8888 25.6551 45.4398 24.7832 45.3613C26.0299 46.1416 25.4502 46.4206 28.2226 48.5478C29.7134 49.6899 35.1535 55.7228 37.0541 54.9774Z" fill="url(#paint14_linear_17418_3561)"/>
<path d="M33.4317 41.1777C35.4499 43.6362 39.3905 47.6945 41.1603 46.5742C40.6721 46.7399 39.5605 46.4696 37.7471 44.495C35.9643 42.5552 31.1911 36.9799 28.3751 34.4516C26.0953 32.4029 24.2253 31.3349 22.6211 31.7054C27.2897 33.2398 31.518 38.8543 33.4317 41.1777Z" fill="url(#paint15_linear_17418_3561)"/>
<path d="M35.6161 30.5975C38.8374 34.1022 43.6194 41.055 46.043 39.8388C45.6463 39.9608 44.7919 39.4334 44.125 38.7621C43.3796 38.0167 36.7669 30.1791 35.2717 28.4965C33.3276 26.3169 31.0303 22.4112 28.3887 21.2168C31.0521 23.3179 33.005 27.7598 35.6161 30.5975Z" fill="url(#paint16_linear_17418_3561)"/>
<path d="M54.5481 38.5266C54.5525 38.5266 54.5525 38.5266 54.5481 38.5266C53.0442 37.2973 51.6319 35.4186 50.6206 33.8188C48.9554 31.1728 42.1117 22.6639 40.4465 20.249C39.9365 19.5123 39.3785 19.0023 38.7988 18.6797C39.5747 19.7956 40.0149 21.3867 41.7716 23.357C44.5876 26.5173 48.271 32.2103 49.5352 34.1675C50.7949 36.116 52.835 40.2397 54.5481 38.5266Z" fill="url(#paint17_linear_17418_3561)"/>
<path d="M63.772 66.5911C62.7258 64.0454 61.1959 62.4936 58.9859 63.9495C52.9572 67.9207 46.022 66.5781 37.3256 59.5512C29.5708 53.2785 25.5604 48.7974 21.7855 47.1758C20.8788 49.2376 24.6102 52.5462 25.4907 53.4267C26.8987 54.8347 32.6788 60.1746 34.4617 61.4213C37.5087 63.5485 43.6027 72.0007 51.6539 72.0007C56.1568 71.9964 60.4896 69.734 63.772 66.5911Z" fill="url(#paint18_linear_17418_3561)"/>
<path d="M67.642 39.3375C67.7553 34.2766 71.4388 31.8617 71.4388 29.3334C71.4388 28.588 71.0508 28.0432 70.5015 27.6465C71.1728 29.6168 69.5731 31.3648 67.1843 34.3377C64.595 37.559 64.024 42.5589 65.8025 47.5631C67.5853 52.5673 65.3404 59.4678 61.718 61.6517C58.0956 63.8356 53.2832 73.4386 39.5041 62.5889C39.4998 62.5845 39.4998 62.5845 39.4954 62.5801C38.6541 61.7999 37.8215 61.1068 36.9802 60.5837C31.1609 56.9787 27.8436 53.7356 25.3371 51.0112C24.8446 50.475 23.5194 48.4219 21.9414 49.0975C22.7304 50.8847 24.8533 52.7897 25.4897 53.4261C26.8977 54.8341 32.6778 60.1739 34.4607 61.4206C34.6917 61.5819 34.9445 61.7824 35.2104 62.0135C35.2802 62.0745 35.3499 62.1355 35.4197 62.1965C35.4371 62.214 35.4589 62.2314 35.4763 62.2445C35.5199 62.2837 35.5679 62.3273 35.6115 62.3666C35.6202 62.3753 35.6333 62.384 35.642 62.3971C37.451 64.0404 39.94 66.7605 42.9914 68.8834C42.9914 68.8834 42.9958 68.8834 42.9958 68.8877C43.2617 69.0752 43.5363 69.2583 43.8109 69.4326C43.8153 69.437 43.8196 69.437 43.824 69.4413C44.0986 69.6157 44.3776 69.7857 44.6566 69.947C44.6609 69.947 44.6609 69.9513 44.6653 69.9513C46.7751 71.1632 49.1159 72.0001 51.6442 72.0001C60.9595 72.0001 69.5861 62.2837 69.5861 55.1523C69.5861 48.0208 67.5069 45.3182 67.642 39.3375Z" fill="url(#paint19_radial_17418_3561)"/>
<defs>
<linearGradient id="paint0_linear_17418_3561" x1="65.0704" y1="73.8405" x2="57.3943" y2="55.8565" gradientUnits="userSpaceOnUse">
<stop offset="0.00132565" stop-color="#FFCB4B"/>
<stop offset="1" stop-color="#FFD748"/>
</linearGradient>
<linearGradient id="paint1_linear_17418_3561" x1="66.5985" y1="61.3331" x2="50.4985" y2="42.1281" gradientUnits="userSpaceOnUse">
<stop offset="0.00132565" stop-color="#FFCB4B"/>
<stop offset="1" stop-color="#FFD748"/>
</linearGradient>
<linearGradient id="paint2_linear_17418_3561" x1="23.5645" y1="48.5465" x2="33.052" y2="55.5328" gradientUnits="userSpaceOnUse">
<stop offset="0.00132565" stop-color="#FFCB4B"/>
<stop offset="1" stop-color="#FFD748"/>
</linearGradient>
<linearGradient id="paint3_linear_17418_3561" x1="20.109" y1="30.056" x2="36.7553" y2="47.4785" gradientUnits="userSpaceOnUse">
<stop offset="0.00132565" stop-color="#FFCB4B"/>
<stop offset="1" stop-color="#FFD748"/>
</linearGradient>
<linearGradient id="paint4_linear_17418_3561" x1="32.8888" y1="40.4016" x2="27.3861" y2="45.5853" gradientUnits="userSpaceOnUse">
<stop stop-color="#FFBC47" stop-opacity="0"/>
<stop offset="1" stop-color="#FFA754"/>
</linearGradient>
<linearGradient id="paint5_linear_17418_3561" x1="38.09" y1="21.8349" x2="47.75" y2="37.0149" gradientUnits="userSpaceOnUse">
<stop offset="0.00132565" stop-color="#FFCB4B"/>
<stop offset="1" stop-color="#FFD748"/>
</linearGradient>
<linearGradient id="paint6_linear_17418_3561" x1="28.1187" y1="24.3563" x2="41.2287" y2="42.0663" gradientUnits="userSpaceOnUse">
<stop offset="0.00132565" stop-color="#FFCB4B"/>
<stop offset="1" stop-color="#FFD748"/>
</linearGradient>
<linearGradient id="paint7_linear_17418_3561" x1="43.7101" y1="26.4928" x2="35.4301" y2="33.9678" gradientUnits="userSpaceOnUse">
<stop stop-color="#FFBC47" stop-opacity="0"/>
<stop offset="1" stop-color="#FFA754"/>
</linearGradient>
<linearGradient id="paint8_linear_17418_3561" x1="36.0938" y1="31.8191" x2="24.7088" y2="40.1422" gradientUnits="userSpaceOnUse">
<stop stop-color="#FFBC47" stop-opacity="0"/>
<stop offset="1" stop-color="#FFA754"/>
</linearGradient>
<linearGradient id="paint9_linear_17418_3561" x1="44.5735" y1="43.4206" x2="33.1885" y2="51.7436" gradientUnits="userSpaceOnUse">
<stop stop-color="#FFBC47" stop-opacity="0"/>
<stop offset="1" stop-color="#FFA754"/>
</linearGradient>
<radialGradient id="paint10_radial_17418_3561" cx="0" cy="0" r="1" gradientUnits="userSpaceOnUse" gradientTransform="translate(59.5131 29.9083) scale(13.6681)">
<stop stop-color="#FFBC47" stop-opacity="0"/>
<stop offset="1" stop-color="#FFA754"/>
</radialGradient>
<linearGradient id="paint11_linear_17418_3561" x1="45.2247" y1="25.0259" x2="38.1522" y2="31.5809" gradientUnits="userSpaceOnUse">
<stop offset="0.3118" stop-color="#FFBC47" stop-opacity="0"/>
<stop offset="1" stop-color="#FF8900"/>
</linearGradient>
<linearGradient id="paint12_linear_17418_3561" x1="39.8086" y1="28.5779" x2="30.4936" y2="36.9729" gradientUnits="userSpaceOnUse">
<stop offset="0.3118" stop-color="#FFBC47" stop-opacity="0"/>
<stop offset="1" stop-color="#FF8900"/>
</linearGradient>
<linearGradient id="paint13_linear_17418_3561" x1="36.662" y1="37.6585" x2="25.162" y2="47.3185" gradientUnits="userSpaceOnUse">
<stop offset="0.3118" stop-color="#FFBC47" stop-opacity="0"/>
<stop offset="1" stop-color="#FF8900"/>
</linearGradient>
<linearGradient id="paint14_linear_17418_3561" x1="24.1126" y1="44.6761" x2="37.4814" y2="55.5436" gradientUnits="userSpaceOnUse">
<stop stop-color="#FFBC47" stop-opacity="0"/>
<stop offset="1" stop-color="#FFBC47"/>
</linearGradient>
<linearGradient id="paint15_linear_17418_3561" x1="26.6714" y1="31.2067" x2="37.1077" y2="47.0767" gradientUnits="userSpaceOnUse">
<stop stop-color="#FFBC47" stop-opacity="0"/>
<stop offset="1" stop-color="#FFBC47"/>
</linearGradient>
<linearGradient id="paint16_linear_17418_3561" x1="34.8467" y1="32.3397" x2="37.7792" y2="30.0972" gradientUnits="userSpaceOnUse">
<stop stop-color="#FFBC47" stop-opacity="0"/>
<stop offset="1" stop-color="#FFA754"/>
</linearGradient>
<linearGradient id="paint17_linear_17418_3561" x1="49.3183" y1="41.1993" x2="45.4082" y2="22.5692" gradientUnits="userSpaceOnUse">
<stop stop-color="#FFBC47" stop-opacity="0"/>
<stop offset="1" stop-color="#FFBC47"/>
</linearGradient>
<linearGradient id="paint18_linear_17418_3561" x1="40.3927" y1="59.0801" x2="34.5277" y2="64.4708" gradientUnits="userSpaceOnUse">
<stop offset="0.3118" stop-color="#FFBC47" stop-opacity="0"/>
<stop offset="1" stop-color="#FF8900"/>
</linearGradient>
<radialGradient id="paint19_radial_17418_3561" cx="0" cy="0" r="1" gradientUnits="userSpaceOnUse" gradientTransform="translate(44.2763 41.2639) rotate(48.1401) scale(39.6178 35.9605)">
<stop offset="0.6134" stop-color="#FFBC47" stop-opacity="0"/>
<stop offset="1" stop-color="#FF8900"/>
</radialGradient>
</defs>
</svg>
